<?xml version="1.0" encoding="utf-8"?>
<!-- Generator: Adobe Illustrator 24.0.3, SVG Export Plug-In . SVG Version: 6.00 Build 0)  -->
<svg version="1.1" id="Layer_1" xmlns="http://www.w3.org/2000/svg" xmlns:xlink="http://www.w3.org/1999/xlink" x="0px" y="0px"
	 viewBox="0 0 792 51.67" enable-background="new 0 0 792 51.67" xml:space="preserve">
<path d="M0,0v15.26c0,0,32.82,8.5,65.65,8.39c32.83-0.11,72.77,4.95,93.79,6.27c30.84,1.93,56.69-5.86,89.88-5
	c35.38,0.92,69.01,11.06,103.05,9.14c29.77-1.68,65.5,9.97,82.41,8.98c16.91-0.99,55.82,0.96,80.51,3.89
	c26.11,3.09,71.51-0.37,96.59-2.02c37-2.43,53.77-0.83,76.43,0.02c25.86,0.98,84.22,6.78,103.7,6.75V0H0z"/>
</svg>
