<?xml version="1.0" encoding="utf-8"?>
<!-- Generator: Adobe Illustrator 24.0.3, SVG Export Plug-In . SVG Version: 6.00 Build 0)  -->
<svg version="1.1" id="Layer_1" xmlns="http://www.w3.org/2000/svg" xmlns:xlink="http://www.w3.org/1999/xlink" x="0px" y="0px"
	 viewBox="0 0 82.07 74.47" enable-background="new 0 0 82.07 74.47" xml:space="preserve">
<path fill="#EF4136" d="M33.67,40.12c0,0-7.04-0.98-9.38,2.15s-2.93,4.89-1.37,6.06s3.71,3.32,3.71,5.47c0,2.15,3.32,2.35,5.86,0
	c2.54-2.35,4.3-4.3,5.47-8.99c0,0,2.74,4.94,1.17,10.68s9.97,3.79,10.36-1.1c0.39-4.89-2.93-9.77-7.62-10.94
	c0,0,5.14-1.37,7.65,3.71s8.57-3.61,5.05-7.18c-3.52-3.57-6.06-4.16-11.14-2.98c0,0,7.04-11.14-3.13-12.12s-5.67,3.91-5.08,4.69
	c0.59,0.78,2.15,3.91,2.15,5.47c0,0-3.91-11.14-10.75-8.01s-3.13,8.4-2.15,8.79c0.98,0.39,4.3,0.59,6.06,1.56
	C32.3,38.36,31.91,37.97,33.67,40.12z"/>
</svg>
