<?xml version="1.0" encoding="utf-8"?>
<!-- Generator: Adobe Illustrator 24.0.3, SVG Export Plug-In . SVG Version: 6.00 Build 0)  -->
<svg version="1.1" id="Layer_1" xmlns="http://www.w3.org/2000/svg" xmlns:xlink="http://www.w3.org/1999/xlink" x="0px" y="0px"
	 viewBox="0 0 134.14 109.27" enable-background="new 0 0 134.14 109.27" xml:space="preserve">
<g>
	<path fill="#F7941D" d="M102.13,45.06c0,0-7.04-0.98-9.38,2.15s-2.93,4.89-1.37,6.06c1.56,1.17,3.71,3.32,3.71,5.47
		c0,2.15,3.32,2.35,5.86,0c2.54-2.35,4.3-4.3,5.47-8.99c0,0,2.74,4.94,1.17,10.68c-1.56,5.74,9.97,3.79,10.36-1.1
		c0.39-4.89-2.93-9.77-7.62-10.94c0,0,5.14-1.37,7.65,3.71s8.57-3.61,5.05-7.18c-3.52-3.57-6.06-4.16-11.14-2.98
		c0,0,7.04-11.14-3.13-12.12s-5.67,3.91-5.08,4.69c0.59,0.78,2.15,3.91,2.15,5.47c0,0-3.91-11.14-10.75-8.01
		c-6.84,3.13-3.13,8.4-2.15,8.79c0.98,0.39,4.3,0.59,6.06,1.56C100.76,43.3,100.37,42.91,102.13,45.06z"/>
	<path fill="#EF4136" d="M34.34,24.3c0,0-7.04-0.98-9.38,2.15s-2.93,4.89-1.37,6.06s3.71,3.32,3.71,5.47c0,2.15,3.32,2.35,5.86,0
		c2.54-2.35,4.3-4.3,5.47-8.99c0,0,2.74,4.94,1.17,10.68s9.97,3.79,10.36-1.1s-2.93-9.77-7.62-10.94c0,0,5.14-1.37,7.65,3.71
		s8.57-3.61,5.05-7.18S49.19,20,44.11,21.18c0,0,7.04-11.14-3.13-12.12s-5.67,3.91-5.08,4.69s2.15,3.91,2.15,5.47
		c0,0-3.91-11.14-10.75-8.01s-3.13,8.4-2.15,8.79c0.98,0.39,4.3,0.59,6.06,1.56S32.58,22.15,34.34,24.3z"/>
	<path fill="#F7941D" d="M25.64,33.39c0,0-7.04-0.98-9.38,2.15s-2.93,4.89-1.37,6.06s3.71,3.32,3.71,5.47c0,2.15,3.32,2.35,5.86,0
		c2.54-2.35,4.3-4.3,5.47-8.99c0,0,2.74,4.94,1.17,10.68c-1.56,5.74,9.97,3.79,10.36-1.1s-2.93-9.77-7.62-10.94
		c0,0,5.14-1.37,7.65,3.71c2.51,5.08,8.57-3.61,5.05-7.18s-6.06-4.16-11.14-2.98c0,0,7.04-11.14-3.13-12.12s-5.67,3.91-5.08,4.69
		s2.15,3.91,2.15,5.47c0,0-3.91-11.14-10.75-8.01s-3.13,8.4-2.15,8.79c0.98,0.39,4.3,0.59,6.06,1.56
		C24.28,31.63,23.89,31.24,25.64,33.39z"/>
	<path fill="#EF4136" d="M19.39,42.38c0,0-7.04-0.98-9.38,2.15s-2.93,4.89-1.37,6.06c1.56,1.17,3.71,3.32,3.71,5.47
		s3.32,2.35,5.86,0c2.54-2.35,4.3-4.3,5.47-8.99c0,0,2.74,4.94,1.17,10.68s9.97,3.79,10.36-1.1s-2.93-9.77-7.62-10.94
		c0,0,5.14-1.37,7.65,3.71s8.57-3.61,5.05-7.18c-3.52-3.57-6.06-4.16-11.14-2.98c0,0,7.04-11.14-3.13-12.12s-5.67,3.91-5.08,4.69
		c0.59,0.78,2.15,3.91,2.15,5.47c0,0-3.91-11.14-10.75-8.01s-3.13,8.4-2.15,8.79s4.3,0.59,6.06,1.56
		C18.02,40.62,17.63,40.23,19.39,42.38z"/>
	<path fill="#F7941D" d="M25.64,53.97c0,0-7.04-0.98-9.38,2.15c-2.35,3.13-2.93,4.89-1.37,6.06c1.56,1.17,3.71,3.32,3.71,5.47
		s3.32,2.35,5.86,0c2.54-2.35,4.3-4.3,5.47-8.99c0,0,2.74,4.94,1.17,10.68c-1.56,5.74,9.97,3.79,10.36-1.1s-2.93-9.77-7.62-10.94
		c0,0,5.14-1.37,7.65,3.71c2.51,5.08,8.57-3.61,5.05-7.18c-3.52-3.57-6.06-4.16-11.14-2.98c0,0,7.04-11.14-3.13-12.12
		c-10.16-0.98-5.67,3.91-5.08,4.69c0.59,0.78,2.15,3.91,2.15,5.47c0,0-3.91-11.14-10.75-8.01s-3.13,8.4-2.15,8.79
		c0.98,0.39,4.3,0.59,6.06,1.56C24.28,52.21,23.89,51.82,25.64,53.97z"/>
	<path fill="#EF4136" d="M36.19,65.37c0,0-7.04-0.98-9.38,2.15s-2.93,4.89-1.37,6.06c1.56,1.17,3.71,3.32,3.71,5.47
		c0,2.15,3.32,2.35,5.86,0c2.54-2.35,4.3-4.3,5.47-8.99c0,0,2.74,4.94,1.17,10.68c-1.56,5.74,9.97,3.79,10.36-1.1
		s-2.93-9.77-7.62-10.94c0,0,5.14-1.37,7.65,3.71c2.51,5.08,8.57-3.61,5.05-7.18c-3.52-3.57-6.06-4.16-11.14-2.98
		c0,0,7.04-11.14-3.13-12.12s-5.67,3.91-5.08,4.69c0.59,0.78,2.15,3.91,2.15,5.47c0,0-3.91-11.14-10.75-8.01s-3.13,8.4-2.15,8.79
		c0.98,0.39,4.3,0.59,6.06,1.56C34.82,63.61,34.43,63.22,36.19,65.37z"/>
	<path fill="#F7941D" d="M46.75,71.68c0,0-7.04-0.98-9.38,2.15c-2.35,3.13-2.93,4.89-1.37,6.06c1.56,1.17,3.71,3.32,3.71,5.47
		c0,2.15,3.32,2.35,5.86,0c2.54-2.35,4.3-4.3,5.47-8.99c0,0,2.74,4.94,1.17,10.68c-1.56,5.74,9.97,3.79,10.36-1.1
		c0.39-4.89-2.93-9.77-7.62-10.94c0,0,5.14-1.37,7.65,3.71c2.51,5.08,8.57-3.61,5.05-7.18c-3.52-3.57-6.06-4.16-11.14-2.98
		c0,0,7.04-11.14-3.13-12.12c-10.16-0.98-5.67,3.91-5.08,4.69c0.59,0.78,2.15,3.91,2.15,5.47c0,0-3.91-11.14-10.75-8.01
		c-6.84,3.13-3.13,8.4-2.15,8.79s4.3,0.59,6.06,1.56C45.38,69.92,44.99,69.53,46.75,71.68z"/>
	<path fill="#EF4136" d="M58.77,79.32c0,0-7.04-0.98-9.38,2.15c-2.35,3.13-2.93,4.89-1.37,6.06s3.71,3.32,3.71,5.47
		c0,2.15,3.32,2.35,5.86,0c2.54-2.35,4.3-4.3,5.47-8.99c0,0,2.74,4.94,1.17,10.68c-1.56,5.74,9.97,3.79,10.36-1.1
		s-2.93-9.77-7.62-10.94c0,0,5.14-1.37,7.65,3.71c2.51,5.08,8.57-3.61,5.05-7.18c-3.52-3.57-6.06-4.16-11.14-2.98
		c0,0,7.04-11.14-3.13-12.12s-5.67,3.91-5.08,4.69c0.59,0.78,2.15,3.91,2.15,5.47c0,0-3.91-11.14-10.75-8.01s-3.13,8.4-2.15,8.79
		c0.98,0.39,4.3,0.59,6.06,1.56C57.4,77.56,57.01,77.17,58.77,79.32z"/>
	<path fill="#F7941D" d="M69.68,82.5c0,0-7.04-0.98-9.38,2.15c-2.35,3.13-2.93,4.89-1.37,6.06c1.56,1.17,3.71,3.32,3.71,5.47
		s3.32,2.35,5.86,0s4.3-4.3,5.47-8.99c0,0,2.74,4.94,1.17,10.68c-1.56,5.74,9.97,3.79,10.36-1.1s-2.93-9.77-7.62-10.94
		c0,0,5.14-1.37,7.65,3.71c2.51,5.08,8.57-3.61,5.05-7.18s-6.06-4.16-11.14-2.98c0,0,7.04-11.14-3.13-12.12s-5.67,3.91-5.08,4.69
		s2.15,3.91,2.15,5.47c0,0-3.91-11.14-10.75-8.01s-3.13,8.4-2.15,8.79c0.98,0.39,4.3,0.59,6.06,1.56
		C68.31,80.74,67.92,80.35,69.68,82.5z"/>
	<path fill="#EF4136" d="M81.63,79.84c0,0-7.04-0.98-9.38,2.15c-2.35,3.13-2.93,4.89-1.37,6.06c1.56,1.17,3.71,3.32,3.71,5.47
		s3.32,2.35,5.86,0s4.3-4.3,5.47-8.99c0,0,2.74,4.94,1.17,10.68c-1.56,5.74,9.97,3.79,10.36-1.1s-2.93-9.77-7.62-10.94
		c0,0,5.14-1.37,7.65,3.71c2.51,5.08,8.57-3.61,5.05-7.18c-3.52-3.57-6.06-4.16-11.14-2.98c0,0,7.04-11.14-3.13-12.12
		s-5.67,3.91-5.08,4.69c0.59,0.78,2.15,3.91,2.15,5.47c0,0-3.91-11.14-10.75-8.01c-6.84,3.13-3.13,8.4-2.15,8.79s4.3,0.59,6.06,1.56
		S79.87,77.69,81.63,79.84z"/>
	<path fill="#F7941D" d="M92.38,71.68c0,0-7.04-0.98-9.38,2.15s-2.93,4.89-1.37,6.06c1.56,1.17,3.71,3.32,3.71,5.47
		c0,2.15,3.32,2.35,5.86,0c2.54-2.35,4.3-4.3,5.47-8.99c0,0,2.74,4.94,1.17,10.68c-1.56,5.74,9.97,3.79,10.36-1.1
		s-2.93-9.77-7.62-10.94c0,0,5.14-1.37,7.65,3.71c2.51,5.08,8.57-3.61,5.05-7.18c-3.52-3.57-6.06-4.16-11.14-2.98
		c0,0,7.04-11.14-3.13-12.12c-10.16-0.98-5.67,3.91-5.08,4.69c0.59,0.78,2.15,3.91,2.15,5.47c0,0-3.91-11.14-10.75-8.01
		c-6.84,3.13-3.13,8.4-2.15,8.79c0.98,0.39,4.3,0.59,6.06,1.56C91.01,69.92,90.62,69.53,92.38,71.68z"/>
	<path fill="#EF4136" d="M102.13,58.56c0,0-7.04-0.98-9.38,2.15c-2.35,3.13-2.93,4.89-1.37,6.06c1.56,1.17,3.71,3.32,3.71,5.47
		s3.32,2.35,5.86,0c2.54-2.35,4.3-4.3,5.47-8.99c0,0,2.74,4.94,1.17,10.68c-1.56,5.74,9.97,3.79,10.36-1.1
		c0.39-4.89-2.93-9.77-7.62-10.94c0,0,5.14-1.37,7.65,3.71c2.51,5.08,8.57-3.61,5.05-7.18c-3.52-3.57-6.06-4.16-11.14-2.98
		c0,0,7.04-11.14-3.13-12.12c-10.16-0.98-5.67,3.91-5.08,4.69c0.59,0.78,2.15,3.91,2.15,5.47c0,0-3.91-11.14-10.75-8.01
		c-6.84,3.13-3.13,8.4-2.15,8.79c0.98,0.39,4.3,0.59,6.06,1.56C100.76,56.8,100.37,56.41,102.13,58.56z"/>
</g>
</svg>
