<?xml version="1.0" encoding="utf-8"?>
<!-- Generator: Adobe Illustrator 24.0.3, SVG Export Plug-In . SVG Version: 6.00 Build 0)  -->
<svg version="1.1" id="Layer_1" xmlns="http://www.w3.org/2000/svg" xmlns:xlink="http://www.w3.org/1999/xlink" x="0px" y="0px"
	 viewBox="0 0 196.85 255.71" enable-background="new 0 0 196.85 255.71" xml:space="preserve">
<path d="M75.14,71.21c0,0,2.22-37.69,26.6-38.24c0,0,23.28-1.87,27.45,15.82c0,0,6,4.84,15.97,9.06c0,0,12.23,2.73,12.23,15.39
	c0,0-14.08-12.01-29.04-10.35c0,0,12.75,16.63,19.4,21.62c0,0,4.43,4.99,3.33,8.31c0,0-8.31-3.91-18.84-11.38
	c0,0-9.98-6.92-19.95-5.25c0,0,0.55,31.59,3.6,42.68c0,0,1.86,14.23,4.63,17.56c0,0,4.51,4.61,6.18,12.92s11.64,21.06,11.09,31.59
	c0,0,4.43,23.83-13.86,32.15c-18.29,8.31-14.97,14.97-16.07,19.4c0,0-2.22,12.75,4.43,10.53c0,0-4.99,1.63-10.53,0.26
	c0,0,4.43-16.89-3.33-24.65c0,0,0.55-3.88-14.97,2.77c0,0-6.65,0-13.3-1.66c0,0-9.98,1.06,0,24.09c0,0-2.77,1.36-8.31,0
	c0,0,0.55-15.77-9.42-20.76c0,0-6.47-2.15-9.42-6.1c0,0-10.49-0.97-14.41-1.11c-4.16-0.15-10.53-27.16,0-54.87
	c0,0,5.54-24.94,26.6-30.48C55.19,130.51,75.69,86.73,75.14,71.21z"/>
</svg>
