<?xml version="1.0" encoding="utf-8"?>
<!-- Generator: Adobe Illustrator 24.0.3, SVG Export Plug-In . SVG Version: 6.00 Build 0)  -->
<svg version="1.1" id="Layer_1" xmlns="http://www.w3.org/2000/svg" xmlns:xlink="http://www.w3.org/1999/xlink" x="0px" y="0px"
	 viewBox="0 0 477.83 347.64" enable-background="new 0 0 477.83 347.64" xml:space="preserve">
<radialGradient id="SVGID_1_" cx="234.2918" cy="163.0273" r="178.4265" gradientUnits="userSpaceOnUse">
	<stop  offset="0" style="stop-color:#D7DF23"/>
	<stop  offset="1" style="stop-color:#009444"/>
</radialGradient>
<path fill="url(#SVGID_1_)" d="M233.43,151.88c0,0-37.72,53.15,12,156.02c0,0,34.29-42.86,36-156.02c0,0,37.72,63.44,65.15,144.02
	c0,0,30.86-75.44-12-126.87c0,0,44.58,3.43,90.87,60.87c0,0,5.14-38.58-54.86-88.3c0,0,27.43,3.43,70.29,22.29
	c0,0-37.72-72.01-128.59-60.01c0,0,29.15-15.43,72.01-17.15c0,0-34.29-37.72-106.3,0c0,0,15.43-54.86-48.01-68.58
	c0,0,42.86,37.72,18.86,65.15c0,0-77.15-58.29-161.16-5.14c0,0,94.3,0,125.16,18.86c0,0-154.31-13.72-185.17,109.73
	c0,0,85.73-60.01,137.16-61.72c0,0-46.29,37.72-60.01,135.45C104.85,280.47,192.29,174.17,233.43,151.88z"/>
</svg>
