<?xml version="1.0" encoding="utf-8"?>
<!-- Generator: Adobe Illustrator 24.0.3, SVG Export Plug-In . SVG Version: 6.00 Build 0)  -->
<svg version="1.1" id="Layer_1" xmlns="http://www.w3.org/2000/svg" xmlns:xlink="http://www.w3.org/1999/xlink" x="0px" y="0px"
	 viewBox="0 0 206.51 792" enable-background="new 0 0 206.51 792" xml:space="preserve">
<linearGradient id="SVGID_1_" gradientUnits="userSpaceOnUse" x1="88.1016" y1="397.86" x2="125.8777" y2="397.86">
	<stop  offset="0" style="stop-color:#FFD215"/>
	<stop  offset="0.1153" style="stop-color:#EEC31D"/>
	<stop  offset="0.3014" style="stop-color:#CFA224"/>
	<stop  offset="0.5351" style="stop-color:#A27524"/>
	<stop  offset="0.8046" style="stop-color:#6F431A"/>
	<stop  offset="0.9664" style="stop-color:#53270F"/>
</linearGradient>
<path fill="url(#SVGID_1_)" d="M105.77,82.71c0,0,36.4,248.41,18.83,626.27c0,0-4.78,15.67-31.73-2.47c0,0,36.52-273.44-0.91-606.36
	C91.96,100.14,88.16,72.54,105.77,82.71z"/>
<path fill="none" stroke="#8B5E3C" stroke-miterlimit="10" d="M96.61,670.96"/>
<path fill="none" stroke="#8B5E3C" stroke-miterlimit="10" d="M127.54,675.26"/>
<path fill="#603913" d="M93.63,700.42c0,0,21.62,12.79,31.15,4.58l0.04-0.97c0,0-7.63,8.63-31.07-4.68L93.63,700.42z"/>
<path fill="#603913" d="M98.4,654.03c0,0,19.48,11.8,28.18,6.59l0.03-0.98c0,0-8.3,5.19-28.12-6.68L98.4,654.03z"/>
<path fill="#603913" d="M97.3,665.98c0,0,19.29,11.97,28.89,5.32l0.03-0.89c0,0-7.33,6.97-28.82-5.56L97.3,665.98z"/>
<path fill="#603913" d="M95.09,688.48c0,0,21.81,12.91,30.19,5.36l0.04-0.88c0,0-6.66,7.78-30.1-5.53L95.09,688.48z"/>
<path fill="#603913" d="M96.14,677.62c0,0,21.73,13.17,29.58,5.57l0.03-0.86c0,0-6.07,7.62-29.51-5.68L96.14,677.62z"/>
<path fill="#603913" d="M99.42,642.36c0,0,18.9,11.93,27.56,6.66l0.03-1.01c0,0-7.6,5.05-27.51-6.68L99.42,642.36z"/>
<path fill="#603913" d="M100.33,631.22c0,0,18.37,11.16,27.03,5.89l0.03-0.99c0,0-7.07,5.76-26.97-5.97L100.33,631.22z"/>
<path fill="#603913" d="M101.28,618.87c0,0,17.75,10.99,26.39,7.33l0.03-1.14c0,0-6.44,4.46-26.35-7.26L101.28,618.87z"/>
<path fill="#603913" d="M102.09,607.6c0,0,17.37,11.38,25.9,6.79l0.03-1.1c0,0-6.56,5.29-25.85-6.81L102.09,607.6z"/>
<path fill="#603913" d="M102.86,596.27c0,0,17.3,11.06,25.41,6.33l0.02-0.9c0,0-6.37,4.78-25.36-6.49L102.86,596.27z"/>
<path fill="#603913" d="M103.84,580.51c0,0,17.17,10.27,24.75,5.64l0.02-0.86c0,0-7.28,4.55-24.72-5.72L103.84,580.51z"/>
<path fill="#603913" d="M104.67,565.87c0,0,16.45,9.95,24.18,5.24l0.01-0.88c0,0-6.36,5.14-24.14-5.33L104.67,565.87z"/>
<path fill="#603913" d="M105.5,549.6c0,0,14.48,8.95,23.56,7.47l0.01-1.15c0,0-4.59,2.89-23.52-7.53L105.5,549.6z"/>
<path fill="#603913" d="M106.43,530.99c0,0,17.1,10.58,22.85,7.13l0.01-0.96c0,0-2.9,4.47-22.81-7.25L106.43,530.99z"/>
<path fill="#603913" d="M107.04,512.68c0,0,17.17,10.69,22.33,6.81l0.03-0.83c0,0-3.22,4.28-22.32-7.06L107.04,512.68z"/>
<path fill="#603913" d="M107.81,492.67c0,0,15.48,10.66,21.83,6.55v-0.7c0,0-3.73,4.16-21.8-6.91L107.81,492.67z"/>
<path fill="#603913" d="M108.23,469.67c0,0,13.44,10.25,21.08,7.63l-0.01-1.19c0,0-5.48,3.09-21.05-7.53L108.23,469.67z"/>
<path fill="#603913" d="M108.61,445.93c0,0,12.62,9.37,20.47,7.34l-0.01-1.22c0,0-5.69,2.66-20.45-7.31L108.61,445.93z"/>
<path fill="#603913" d="M108.81,421.4c0,0,11.62,8.58,19.91,7.28l-0.02-1.01c0,0-6.22,2.19-19.89-7.38L108.81,421.4z"/>
<path fill="#603913" d="M108.79,393.44c0,0,13.2,9.06,19.33,6.97l-0.03-1.3c0,0-2.77,3.57-19.28-7.13L108.79,393.44z"/>
<path fill="#603913" d="M108.42,360.7c0,0,11.38,8.18,18.76,7.29l-0.04-1.08c0,0-2.58,2.37-18.75-7.33L108.42,360.7z"/>
<path fill="#603913" d="M107.64,326.06c0,0,10.8,8.05,18.21,6.14l-0.05-1.15c0,0-4.63,2.59-18.2-6.18L107.64,326.06z"/>
<path fill="#603913" d="M105.76,275.68c0,0,10.42,8,17.71,7.1l-0.06-1.07c0,0-2.72,2.82-17.7-7.17L105.76,275.68z"/>
<path fill="#603913" d="M102.69,220.9c0,0,12.47,8.44,17.34,7.13l-0.08-1.1c0,0-1.73,2.54-17.33-7.14L102.69,220.9z"/>
<path fill="#603913" d="M98.64,167.58c0,0,10.09,7.96,17.11,6.71l-0.09-1.01c0,0-4.42,2.42-17.12-6.84L98.64,167.58z"/>
</svg>
