<?xml version="1.0" encoding="utf-8"?>
<!-- Generator: Adobe Illustrator 24.0.3, SVG Export Plug-In . SVG Version: 6.00 Build 0)  -->
<svg version="1.1" id="Layer_1" xmlns="http://www.w3.org/2000/svg" xmlns:xlink="http://www.w3.org/1999/xlink" x="0px" y="0px"
	 viewBox="0 0 792 294.35" enable-background="new 0 0 792 294.35" xml:space="preserve">
<path d="M-0.33,170.96c0,0,16.72-1.55,36.48,0.13c20.31,1.73,49.01-2.58,62.39,0.45c16.9,3.84,55.22,0.32,75.04-0.97
	s83.57-0.07,108.37,6.46c18.73,4.93,98.89-4.33,150.13-7.05c46.2-2.45,46.18,4.9,84.78,5.27c38.6,0.37,126.09-10.88,144.87-5.06
	s64.34,10.08,96.59,8.71c12.11-0.52,34.01-0.91,34.01-0.91v37.8c0,0-50.84,7.87-37.11-2.26c6.72-4.96-54.53,10.65-40.85-0.46
	c15.63-12.69-35.45,6.58-44.71,5.65c-31.15-3.13-12.98-11.83-46.87-7.98c0,0-55.76,14.64-60.63,0.85
	c-3.06-8.68-40.5,9.23-54.08,1.91c-30.74-16.57-100.72,14.04-96.72,0.7c1.93-6.44-7.06-8.48-40.66,1.68
	c-21.79,6.59-22.35-7.76-41.77-4.26c-46.36,8.37-79.39,8.62-67.57,0.23c10.01-7.11-3.5-7.95-19.41-1.27
	c-7.27,3.06-25.53,7.57-38.04,5.45c-11.18-1.9,3.92-18.68-46.14-4.74c-20.6,5.74-18.59-1.83-35.82,2.46
	c-51.67,12.88-8.11-7.58-36.14-6.14c-7.57,0.39-49.84,12.17-38.11,5.6c17.92-10.04-36.85,3.63-21.31-5.93
	c7.21-4.44-13.64-3.27-26.4-0.36L-0.33,170.96z"/>
</svg>
