<?xml version="1.0" encoding="utf-8"?>
<!-- Generator: Adobe Illustrator 24.0.3, SVG Export Plug-In . SVG Version: 6.00 Build 0)  -->
<svg version="1.1" id="Layer_1" xmlns="http://www.w3.org/2000/svg" xmlns:xlink="http://www.w3.org/1999/xlink" x="0px" y="0px"
	 viewBox="0 0 792 431.21" enable-background="new 0 0 792 431.21" xml:space="preserve">
<g>
	<path fill="#4B9FD2" d="M0,115.42h792v231.69c0,0-13.2,0.06-36.98,5.12c-14.39,3.06-33.27,2.54-21.53-7.69
		c11.74-10.23-19.56,3.07-33.26,5.11s-37.17,3.07-48.91-1.02c-11.74-4.09-31.3-9.21-44.02-5.11c-12.72,4.09-53.8,3.07-31.3-8.18
		s-23.48,9.21-51.84,9.21c-28.37,0-32.28-11.25-48.91-9.21s-37.17,11.25-49.89,7.16c-12.72-4.09-17.61-1.02-5.87-8.18
		c11.74-7.16-14.67,2.05-34.24,4.09c-19.56,2.05-68.47-5.11-83.14-5.11c-14.67,0-33.26,13.3-57.71,6.14
		c-24.45-7.16-43.87,18.92-57.14,11.69c-4.81-2.62-6.13-18.56-34.49-19.58s-100.12,46.15-81.12,17.65
		c7.44-11.16-4.42-13.3-27.89-10.23S0,346.69,0,346.69V115.42z"/>
	<path fill="#338BCB" d="M0,9.45c0,0,169.08-6.1,205.27,0s217.16,7.85,232.81,6.1s188.19,2.02,205.58,3.36
		c52.8,4.06,83.11-0.1,108.49-4.17c4.15-0.66,27.32-6.08,39.86-4.78v148.5c0,0-80.03,11.43-91.77,7.95s-5.06-2.43-23.48-3.49
		c-30.32-1.74-45,7.46-67.49,5.04s-43.04-9.4-65.54-9.4c-22.5,0-37.17-1.74-9.78-10.46c27.39-8.72-29.35-1.74-50.87,1.74
		c-21.52,3.49-84.12,4.36-67.49,2.62c16.63-1.74-23.19-2.23-45.97-0.87c-29.35,1.74-46.95-13.08-33.26-14.82
		c13.69-1.74-34.24,7.85-82.17,10.46c-47.93,2.62-104.89,11.38-92.18,10.51s-30.15-2.48-52.65-0.73s-91.4,14.22-84.09,8.04
		c23.2-19.61-19.31-8.32-25.32-6.58L0,9.45z"/>
</g>
</svg>
