<?xml version="1.0" encoding="utf-8"?>
<!-- Generator: Adobe Illustrator 24.0.3, SVG Export Plug-In . SVG Version: 6.00 Build 0)  -->
<svg version="1.1" id="Layer_1" xmlns="http://www.w3.org/2000/svg" xmlns:xlink="http://www.w3.org/1999/xlink" x="0px" y="0px"
	 viewBox="0 0 469.06 317.98" enable-background="new 0 0 469.06 317.98" xml:space="preserve">
<g>
	<g>
		<path fill="#E56B25" d="M469.06,100.67c0,0-119.93-0.87-131.17-5.37C326.65,90.8,110.7,42.29,103.92,46.17
			c-6.78,3.89-63.88-22.06-64.1-7.67c-0.64,42.46,10.5,66.05,9.53,97.19c-0.63,20.38,1.45,42.25,2.56,49.6
			c4.28,28.28,2.46,35.64,2.65,39.69c0.26,5.82,3.51,25.86,3.8,30.84c0.61,10.49,2.17,8.64,2.49,16.31
			c0.33,8.03,6.13,45.83,6.13,45.83c10.23,0,402.08,0,402.08,0V100.67z"/>
		<path fill="#7A512A" d="M469.06,100.67c0,0-114.87-9.16-138.19-17.49c-23.31-8.33-124.65-34.79-194-44.96c0,0-22.58-8.4-41.73-8.4
			s-49.68,0.9-54.68,6.73S61.1,62.37,68.6,69.86S86.91,91.51,88.58,96.5c1.67,5,35.8,17.49,36.64,22.48
			c0.83,5,14.15,17.49,19.15,24.98s7.42,13.32,18.7,17.49c11.28,4.16,17.94,16.65,22.1,19.15c4.16,2.5,11.99,10.33,15.82,13.32
			c6.26,4.9,13.32,8.33,20.82,10.82c7.49,2.5,41.63,7.49,46.63,14.15s32.02,13.32,39.97,19.98s34.97,11.65,39.13,12.49
			c4.16,0.84,54.12,19.98,64.94,25.81c10.82,5.83,38.39,31.57,56.59,40.8V100.67z"/>
	</g>
	<path fill="#40393B" d="M84.56,176.05c0,0,0.57,10.52,2.93,30.13c1.49,12.35,2.49,15.05,2.32,27.06
		c-0.1,7.07-3.95,31.41-3.54,51.74c0.19,9.6,4.82-42.9,6.11-49.94C93.66,227.99,84.56,176.05,84.56,176.05z"/>
	<path fill="#40393B" d="M217.1,267.7l7.95,28.92l-3.08,20.77l3.23-13.44c0.09-0.6,1.81-6.89,1.64-7.47L217.1,267.7z"/>
	<path fill="#40393B" d="M155.82,242.54c0,0-0.14,6.97-3.34,18.2c-0.18,0.64,4.74-17.93,4.74-17.93l-3.34-22.24L155.82,242.54z"/>
	<path fill="#40393B" d="M289.93,288.02c0,0-0.14,6.97-3.34,18.2c-0.18,0.64,4.74-17.93,4.74-17.93l-3.34-22.24L289.93,288.02z"/>
	
		<linearGradient id="SVGID_1_" gradientUnits="userSpaceOnUse" x1="282.0823" y1="101.9327" x2="318.5632" y2="101.9327" gradientTransform="matrix(0.1676 -0.9859 0.9859 0.1676 76.7958 426.2994)">
		<stop  offset="0" style="stop-color:#006838"/>
		<stop  offset="1" style="stop-color:#F9ED32"/>
	</linearGradient>
	<path fill="url(#SVGID_1_)" d="M233.47,152.19c0,0-1.92-0.26-1.64,5.81c0,0-0.01,1.31-1.14,4.06c0,0-0.32-0.84-0.89-1
		c0,0-2.38,0.12-6.51,4c0,0,0.6-4.68-0.65-5.81c0,0-0.62-0.56-3.61,0.43c0,0,1.59-1.63-0.93-1.47c0,0,0.75-1.31-2.13-0.95
		c0,0,1.96-0.72-5.38-3.4c0,0,3.12-0.26,2.42-0.77c0,0,2.19-0.54,1.35-1.8c0,0,2.78-0.18,2.16-1.53c0,0,7.38-0.25,0.91-2.66
		c0,0,1.72-1.28-1.52-2.62c0,0,1.82-1.46-0.06-2.37c0,0,2-0.51-2.34-5.51c0,0,6.33,1.67,7.01,0.01c0,0,2.21,1.23,2.57-0.09
		c0,0,1.2,1.78,2.39,0.99c0,0,4.04,6.65,1.52-2.03c0,0,1.52-0.07,0.76-2.56c0,0,1.04,0.83,1.57-3.86c0,0,2.9,4.16,4.3,4.4
		c0,0,0.25,2.4,2.14,0.89c0,0,0.49,9.45,6.66,2.44c0,0-2.97,9.38,0.69,6.73c0,0-2.76,3.92-0.63,3.69c0,0-6.38,1.88-8.79,4.72
		c-0.09,0.1,6.93,8.4,7.5,8.36c0.27-0.02-0.15,0.07-0.57,0.04C240.35,160.34,233.54,151.89,233.47,152.19z"/>
	
		<linearGradient id="SVGID_2_" gradientUnits="userSpaceOnUse" x1="230.3956" y1="250.1776" x2="266.8766" y2="250.1776" gradientTransform="matrix(0.1676 -0.9859 0.9859 0.1676 76.7958 426.2994)">
		<stop  offset="0" style="stop-color:#ED1C24"/>
		<stop  offset="1" style="stop-color:#FBB040"/>
	</linearGradient>
	<path fill="url(#SVGID_2_)" d="M370.96,227.99c0,0-1.92-0.26-1.64,5.81c0,0-0.01,1.31-1.14,4.06c0,0-0.32-0.84-0.89-1
		c0,0-2.38,0.12-6.51,4c0,0,0.6-4.68-0.65-5.81c0,0-0.62-0.56-3.61,0.43c0,0,1.59-1.63-0.93-1.47c0,0,0.75-1.31-2.13-0.95
		c0,0,1.96-0.72-5.38-3.4c0,0,3.12-0.26,2.42-0.77c0,0,2.19-0.54,1.35-1.8c0,0,2.78-0.18,2.16-1.53c0,0,7.38-0.25,0.91-2.66
		c0,0,1.72-1.28-1.52-2.62c0,0,1.82-1.46-0.06-2.37c0,0,2-0.51-2.34-5.51c0,0,6.33,1.67,7.01,0.01c0,0,2.21,1.23,2.57-0.09
		c0,0,1.2,1.78,2.39,0.99c0,0,4.04,6.65,1.52-2.03c0,0,1.52-0.07,0.76-2.56c0,0,1.04,0.83,1.57-3.86c0,0,2.9,4.16,4.3,4.4
		c0,0,0.25,2.4,2.14,0.89c0,0,0.49,9.45,6.66,2.44c0,0-2.97,9.38,0.69,6.73c0,0-2.76,3.92-0.63,3.69c0,0-6.38,1.88-8.79,4.72
		c-0.09,0.1,6.93,8.4,7.5,8.36c0.27-0.02-0.15,0.07-0.57,0.04C377.83,236.13,371.03,227.68,370.96,227.99z"/>
	
		<linearGradient id="SVGID_3_" gradientUnits="userSpaceOnUse" x1="295.1301" y1="66.4048" x2="331.611" y2="66.4048" gradientTransform="matrix(0.1676 -0.9859 0.9859 0.1676 76.7958 426.2994)">
		<stop  offset="0" style="stop-color:#F9ED32"/>
		<stop  offset="1" style="stop-color:#FBB040"/>
	</linearGradient>
	<path fill="url(#SVGID_3_)" d="M200.63,133.38c0,0-1.92-0.26-1.64,5.81c0,0-0.01,1.31-1.14,4.06c0,0-0.32-0.84-0.89-1
		c0,0-2.38,0.12-6.51,4c0,0,0.6-4.68-0.65-5.81c0,0-0.62-0.56-3.61,0.43c0,0,1.59-1.63-0.93-1.47c0,0,0.75-1.31-2.13-0.95
		c0,0,1.96-0.72-5.38-3.4c0,0,3.12-0.26,2.42-0.77c0,0,2.19-0.54,1.35-1.8c0,0,2.78-0.18,2.16-1.53c0,0,7.38-0.25,0.91-2.66
		c0,0,1.72-1.28-1.52-2.62c0,0,1.82-1.46-0.06-2.37c0,0,2-0.51-2.34-5.51c0,0,6.33,1.67,7.01,0.01c0,0,2.21,1.23,2.57-0.09
		c0,0,1.2,1.78,2.39,0.99c0,0,4.04,6.65,1.52-2.03c0,0,1.52-0.07,0.76-2.56c0,0,1.04,0.83,1.57-3.86c0,0,2.9,4.16,4.3,4.4
		c0,0,0.25,2.4,2.14,0.89c0,0,0.49,9.45,6.66,2.44c0,0-2.97,9.38,0.69,6.73c0,0-2.76,3.92-0.63,3.69c0,0-6.38,1.88-8.79,4.72
		c-0.09,0.1,6.93,8.4,7.5,8.36c0.27-0.02-0.15,0.07-0.57,0.04C207.51,141.52,200.7,133.07,200.63,133.38z"/>
	
		<linearGradient id="SVGID_4_" gradientUnits="userSpaceOnUse" x1="129.671" y1="221.2706" x2="166.152" y2="221.2706" gradientTransform="matrix(-0.2076 -0.9782 0.9782 -0.2076 205.3275 428.7746)">
		<stop  offset="0" style="stop-color:#F9ED32"/>
		<stop  offset="1" style="stop-color:#FBB040"/>
	</linearGradient>
	<path fill="url(#SVGID_4_)" d="M398.32,240.53c0,0-1.88,0.47,0.62,6.01c0,0,0.47,1.22,0.44,4.2c0,0-0.61-0.66-1.19-0.6
		c0,0-2.17,0.99-4.58,6.12c0,0-1.17-4.57-2.75-5.16c0,0-0.79-0.29-3.2,1.73c0,0,0.87-2.1-1.41-1.02c0,0,0.21-1.5-2.33-0.1
		c0,0,1.55-1.39-6.26-1.18c0,0,2.81-1.39,1.97-1.61c0,0,1.83-1.31,0.59-2.17c0,0,2.52-1.19,1.44-2.22c0,0,6.77-2.95-0.13-2.81
		c0,0,1.13-1.82-2.38-1.87c0,0,1.15-2.03-0.92-2.18c0,0,1.67-1.21-4.2-4.26c0,0,6.5-0.79,6.52-2.57c0,0,2.51,0.33,2.36-1.03
		c0,0,1.77,1.21,2.58,0.05c0,0,6.21,4.69,0.67-2.45c0,0,1.39-0.62-0.23-2.66c0,0,1.27,0.39,0.04-4.17c0,0,4.22,2.8,5.61,2.5
		c0,0,1.11,2.14,2.32,0.04c0,0,3.94,8.6,7.09-0.18c0,0,0.7,9.82,3.12,6c0,0-1.12,4.66,0.78,3.66c0,0-5.23,4.1-6.43,7.63
		c-0.04,0.13,9.54,5.25,10.05,5c0.25-0.12-0.12,0.13-0.51,0.25C407.71,245.57,398.27,240.22,398.32,240.53z"/>
	
		<linearGradient id="SVGID_5_" gradientUnits="userSpaceOnUse" x1="240.6685" y1="297.4274" x2="277.1494" y2="297.4274" gradientTransform="matrix(0.3074 -0.9516 0.9516 0.3074 48.4119 379.5326)">
		<stop  offset="0" style="stop-color:#006838"/>
		<stop  offset="1" style="stop-color:#F9ED32"/>
	</linearGradient>
	<path fill="url(#SVGID_5_)" d="M416.12,230.27c0,0-1.86-0.53-2.46,5.52c0,0-0.2,1.29-1.71,3.86c0,0-0.2-0.88-0.73-1.12
		c0,0-2.37-0.22-7.02,3.03c0,0,1.26-4.54,0.19-5.84c0,0-0.54-0.65-3.64-0.09c0,0,1.8-1.38-0.71-1.59c0,0,0.93-1.19-1.97-1.25
		c0,0,2.04-0.43-4.84-4.14c0,0,3.13,0.2,2.51-0.41c0,0,2.24-0.23,1.6-1.59c0,0,2.78,0.22,2.36-1.21c0,0,7.34,0.81,1.28-2.5
		c0,0,1.89-1.02-1.13-2.81c0,0,2.01-1.18,0.28-2.35c0,0,2.05-0.22-1.52-5.78c0,0,6.03,2.56,6.93,1.02c0,0,2.02,1.53,2.56,0.28
		c0,0,0.94,1.93,2.22,1.33c0,0,3.05,7.16,1.8-1.79c0,0,1.51,0.15,1.12-2.42c0,0,0.91,0.97,2.11-3.59c0,0,2.27,4.53,3.62,4.97
		c0,0-0.1,2.41,1.99,1.19c0,0-0.87,9.42,6.24,3.37c0,0-4.29,8.86-0.28,6.76c0,0-3.3,3.48-1.15,3.56c0,0-6.58,0.95-9.38,3.41
		c-0.1,0.09,5.66,9.31,6.22,9.35c0.27,0.02-0.16,0.05-0.57-0.04C421.76,239.31,416.24,229.97,416.12,230.27z"/>
	
		<linearGradient id="SVGID_6_" gradientUnits="userSpaceOnUse" x1="211.0049" y1="264.6949" x2="247.4858" y2="264.6949" gradientTransform="matrix(0.1676 -0.9859 0.9859 0.1676 76.7958 426.2994)">
		<stop  offset="0" style="stop-color:#ED1C24"/>
		<stop  offset="1" style="stop-color:#FBB040"/>
	</linearGradient>
	<path fill="url(#SVGID_6_)" d="M382.02,249.54c0,0-1.92-0.26-1.64,5.81c0,0-0.01,1.31-1.14,4.06c0,0-0.32-0.84-0.89-1
		c0,0-2.38,0.12-6.51,4c0,0,0.6-4.68-0.65-5.81c0,0-0.62-0.56-3.61,0.43c0,0,1.59-1.63-0.93-1.47c0,0,0.75-1.31-2.13-0.95
		c0,0,1.96-0.72-5.38-3.4c0,0,3.12-0.26,2.42-0.77c0,0,2.19-0.54,1.35-1.8c0,0,2.78-0.18,2.16-1.53c0,0,7.38-0.25,0.91-2.66
		c0,0,1.72-1.28-1.52-2.62c0,0,1.82-1.46-0.06-2.37c0,0,2-0.51-2.34-5.51c0,0,6.33,1.67,7.01,0.01c0,0,2.21,1.23,2.57-0.09
		c0,0,1.2,1.78,2.39,0.99c0,0,4.04,6.65,1.52-2.03c0,0,1.52-0.07,0.76-2.56c0,0,1.04,0.83,1.57-3.86c0,0,2.9,4.16,4.3,4.4
		c0,0,0.25,2.4,2.14,0.89c0,0,0.49,9.45,6.66,2.44c0,0-2.97,9.38,0.69,6.73c0,0-2.76,3.92-0.63,3.69c0,0-6.38,1.88-8.79,4.72
		c-0.09,0.1,6.93,8.4,7.5,8.36c0.27-0.02-0.15,0.07-0.57,0.04C388.9,257.68,382.09,249.23,382.02,249.54z"/>
	
		<linearGradient id="SVGID_7_" gradientUnits="userSpaceOnUse" x1="175.0462" y1="213.2419" x2="211.5271" y2="213.2419" gradientTransform="matrix(-0.2076 -0.9782 0.9782 -0.2076 205.3275 428.7746)">
		<stop  offset="0" style="stop-color:#F9ED32"/>
		<stop  offset="1" style="stop-color:#FBB040"/>
	</linearGradient>
	<path fill="url(#SVGID_7_)" d="M381.04,197.81c0,0-1.88,0.47,0.62,6.01c0,0,0.47,1.22,0.44,4.2c0,0-0.61-0.66-1.19-0.6
		c0,0-2.17,0.99-4.58,6.12c0,0-1.17-4.57-2.75-5.16c0,0-0.79-0.29-3.2,1.73c0,0,0.87-2.1-1.41-1.02c0,0,0.21-1.5-2.33-0.1
		c0,0,1.55-1.39-6.26-1.18c0,0,2.81-1.39,1.97-1.61c0,0,1.83-1.31,0.59-2.17c0,0,2.52-1.19,1.44-2.22c0,0,6.77-2.95-0.13-2.81
		c0,0,1.13-1.82-2.38-1.87c0,0,1.15-2.03-0.92-2.18c0,0,1.67-1.21-4.2-4.26c0,0,6.5-0.79,6.52-2.57c0,0,2.51,0.33,2.36-1.03
		c0,0,1.77,1.21,2.58,0.05c0,0,6.21,4.69,0.67-2.45c0,0,1.39-0.62-0.23-2.66c0,0,1.27,0.39,0.04-4.17c0,0,4.22,2.8,5.61,2.5
		c0,0,1.11,2.14,2.32,0.04c0,0,3.94,8.6,7.09-0.18c0,0,0.7,9.82,3.12,6c0,0-1.12,4.66,0.78,3.66c0,0-5.23,4.1-6.43,7.63
		c-0.04,0.13,9.54,5.25,10.05,5c0.25-0.12-0.12,0.13-0.51,0.25C390.44,202.85,381,197.5,381.04,197.81z"/>
	
		<linearGradient id="SVGID_8_" gradientUnits="userSpaceOnUse" x1="251.3818" y1="274.0927" x2="287.8628" y2="274.0927" gradientTransform="matrix(0.3074 -0.9516 0.9516 0.3074 48.4119 379.5326)">
		<stop  offset="0" style="stop-color:#006838"/>
		<stop  offset="1" style="stop-color:#F9ED32"/>
	</linearGradient>
	<path fill="url(#SVGID_8_)" d="M397.21,212.9c0,0-1.86-0.53-2.46,5.52c0,0-0.2,1.29-1.71,3.86c0,0-0.2-0.88-0.73-1.12
		c0,0-2.37-0.22-7.02,3.03c0,0,1.26-4.54,0.19-5.84c0,0-0.54-0.65-3.64-0.09c0,0,1.8-1.38-0.71-1.59c0,0,0.93-1.19-1.97-1.25
		c0,0,2.04-0.43-4.84-4.14c0,0,3.13,0.2,2.51-0.41c0,0,2.24-0.23,1.6-1.59c0,0,2.78,0.22,2.36-1.21c0,0,7.34,0.81,1.28-2.5
		c0,0,1.89-1.02-1.13-2.81c0,0,2.01-1.18,0.28-2.35c0,0,2.05-0.22-1.52-5.78c0,0,6.03,2.56,6.93,1.02c0,0,2.02,1.53,2.56,0.28
		c0,0,0.94,1.93,2.22,1.33c0,0,3.05,7.16,1.8-1.79c0,0,1.51,0.15,1.12-2.42c0,0,0.91,0.97,2.11-3.59c0,0,2.27,4.53,3.62,4.97
		c0,0-0.1,2.41,1.99,1.19c0,0-0.87,9.42,6.24,3.37c0,0-4.29,8.86-0.28,6.76c0,0-3.3,3.48-1.15,3.56c0,0-6.58,0.95-9.38,3.41
		c-0.1,0.09,5.66,9.31,6.22,9.35c0.27,0.02-0.16,0.05-0.57-0.04C402.85,221.95,397.33,212.61,397.21,212.9z"/>
	
		<linearGradient id="SVGID_9_" gradientUnits="userSpaceOnUse" x1="282.433" y1="68.5628" x2="318.9139" y2="68.5628" gradientTransform="matrix(0.1676 -0.9859 0.9859 0.1676 76.7958 426.2994)">
		<stop  offset="0" style="stop-color:#ED1C24"/>
		<stop  offset="1" style="stop-color:#FBB040"/>
	</linearGradient>
	<path fill="url(#SVGID_9_)" d="M200.63,146.26c0,0-1.92-0.26-1.64,5.81c0,0-0.01,1.31-1.14,4.06c0,0-0.32-0.84-0.89-1
		c0,0-2.38,0.12-6.51,4c0,0,0.6-4.68-0.65-5.81c0,0-0.62-0.56-3.61,0.43c0,0,1.59-1.63-0.93-1.47c0,0,0.75-1.31-2.13-0.95
		c0,0,1.96-0.72-5.38-3.4c0,0,3.12-0.26,2.42-0.77c0,0,2.19-0.54,1.35-1.8c0,0,2.78-0.18,2.16-1.53c0,0,7.38-0.25,0.91-2.66
		c0,0,1.72-1.28-1.52-2.62c0,0,1.82-1.46-0.06-2.37c0,0,2-0.51-2.34-5.51c0,0,6.33,1.67,7.01,0.01c0,0,2.21,1.23,2.57-0.09
		c0,0,1.2,1.78,2.39,0.99c0,0,4.04,6.65,1.52-2.03c0,0,1.52-0.07,0.76-2.56c0,0,1.04,0.83,1.57-3.86c0,0,2.9,4.16,4.3,4.4
		c0,0,0.25,2.4,2.14,0.89c0,0,0.49,9.45,6.66,2.44c0,0-2.97,9.38,0.69,6.73c0,0-2.76,3.92-0.63,3.69c0,0-6.38,1.88-8.79,4.72
		c-0.09,0.1,6.93,8.4,7.5,8.36c0.27-0.02-0.15,0.07-0.57,0.04C207.51,154.4,200.7,145.95,200.63,146.26z"/>
	
		<linearGradient id="SVGID_10_" gradientUnits="userSpaceOnUse" x1="237.1122" y1="215.9362" x2="273.5931" y2="215.9362" gradientTransform="matrix(0.7173 0.6968 -0.6968 0.7173 404.1235 -195.6399)">
		<stop  offset="0" style="stop-color:#F9ED32"/>
		<stop  offset="1" style="stop-color:#FBB040"/>
	</linearGradient>
	<path fill="url(#SVGID_10_)" d="M429.46,139.23c0,0,1.3-1.43-3.86-4.65c0,0-1.07-0.75-2.7-3.24c0,0,0.88,0.21,1.33-0.16
		c0,0,1.25-2.03,0.39-7.63c0,0,3.52,3.15,5.15,2.76c0,0,0.82-0.19,1.69-3.22c0,0,0.44,2.23,1.74,0.07c0,0,0.66,1.36,1.99-1.22
		c0,0-0.52,2.02,5.85-2.5c0,0-1.56,2.72-0.74,2.43c0,0-0.79,2.11,0.72,2.14c0,0-1.43,2.4,0.04,2.65c0,0-3.97,6.22,1.68,2.26
		c0,0,0.08,2.14,3.02,0.23c0,0,0.17,2.33,1.98,1.3c0,0-0.71,1.94,5.86,1.19c0,0-4.96,4.27-3.98,5.77c0,0-2.27,1.13-1.38,2.17
		c0,0-2.15-0.01-2.17,1.4c0,0-7.77-0.44,0.81,2.41c0,0-0.8,1.29,1.67,2.08c0,0-1.27,0.38,2.29,3.48c0,0-5.07,0.03-6.06,1.05
		c0,0-2.12-1.16-1.95,1.26c0,0-8.06-4.95-5.79,4.1c0,0-6.05-7.77-5.94-3.25c0,0-1.66-4.5-2.69-2.61c0,0,2.06-6.32,1.09-9.92
		c-0.03-0.13-10.85,0.95-11.14,1.44c-0.14,0.23,0.03-0.17,0.29-0.49C418.86,140.28,429.68,139.46,429.46,139.23z"/>
	
		<linearGradient id="SVGID_11_" gradientUnits="userSpaceOnUse" x1="334.9554" y1="220.7673" x2="371.4363" y2="220.7673" gradientTransform="matrix(0.4314 -0.9022 0.9022 0.4314 16.6625 337.3486)">
		<stop  offset="0" style="stop-color:#006838"/>
		<stop  offset="1" style="stop-color:#F9ED32"/>
	</linearGradient>
	<path fill="url(#SVGID_11_)" d="M372.49,120.25c0,0-1.78-0.78-3.17,5.14c0,0-0.37,1.26-2.21,3.59c0,0-0.08-0.9-0.58-1.21
		c0,0-2.32-0.54-7.36,2.06c0,0,1.86-4.34,0.97-5.76c0,0-0.45-0.71-3.59-0.57c0,0,1.97-1.13-0.49-1.67c0,0,1.08-1.06-1.79-1.5
		c0,0,2.08-0.15-4.24-4.75c0,0,3.07,0.61,2.54-0.07c0,0,2.25,0.08,1.8-1.36c0,0,2.73,0.59,2.5-0.88c0,0,7.16,1.78,1.61-2.31
		c0,0,2.01-0.76-0.74-2.93c0,0,2.15-0.9,0.59-2.29c0,0,2.06,0.06-0.74-5.94c0,0,5.63,3.34,6.73,1.93c0,0,1.79,1.79,2.49,0.62
		c0,0,0.67,2.04,2.02,1.61c0,0,2.07,7.5,2.02-1.54c0,0,1.48,0.35,1.43-2.25c0,0,0.77,1.08,2.57-3.28c0,0,1.64,4.79,2.93,5.41
		c0,0-0.42,2.38,1.82,1.44c0,0-2.12,9.22,5.73,4.17c0,0-5.43,8.21-1.18,6.66c0,0-3.73,3.01-1.62,3.38c0,0-6.65,0.06-9.75,2.13
		c-0.11,0.07,4.37,9.98,4.92,10.09c0.27,0.06-0.17,0.03-0.55-0.12C376.87,129.97,372.64,119.98,372.49,120.25z"/>
	
		<linearGradient id="SVGID_12_" gradientUnits="userSpaceOnUse" x1="314.6801" y1="229.6836" x2="351.1611" y2="229.6836" gradientTransform="matrix(-0.9896 0.1438 -0.1438 -0.9896 766.7249 315.9706)">
		<stop  offset="0" style="stop-color:#ED1C24"/>
		<stop  offset="1" style="stop-color:#FBB040"/>
	</linearGradient>
	<path fill="url(#SVGID_12_)" d="M407.08,129.48c0,0,0.34,1.91,6.04-0.22c0,0,1.25-0.39,4.22-0.16c0,0-0.7,0.57-0.68,1.15
		c0,0,0.85,2.23,5.81,4.96c0,0-4.64,0.87-5.33,2.41c0,0-0.35,0.77,1.52,3.3c0,0-2.04-1.01-1.11,1.34c0,0-1.48-0.31-0.25,2.32
		c0,0-1.28-1.64-1.58,6.17c0,0-1.2-2.89-1.48-2.07c0,0-1.19-1.91-2.13-0.73c0,0-1.03-2.59-2.12-1.58c0,0-2.51-6.94-2.81-0.05
		c0,0-1.75-1.25-2.02,2.25c0,0-1.95-1.28-2.24,0.78c0,0-1.1-1.74-4.52,3.92c0,0-0.36-6.54-2.14-6.67c0,0,0.49-2.48-0.87-2.42
		c0,0,1.32-1.69,0.21-2.58c0,0,5.08-5.89-2.4-0.83c0,0-0.53-1.42-2.67,0.06c0,0,0.47-1.24-4.16-0.31c0,0,3.07-4.03,2.86-5.44
		c0,0,2.21-0.97,0.19-2.31c0,0,8.84-3.37,0.27-7.09c0,0,9.84-0.06,6.19-2.73c0,0,4.58,1.42,3.71-0.54c0,0,3.75,5.49,7.19,6.91
		c0.12,0.05,5.86-9.18,5.65-9.71c-0.1-0.25,0.12,0.12,0.21,0.53C412.71,120.44,406.77,129.51,407.08,129.48z"/>
	
		<linearGradient id="SVGID_13_" gradientUnits="userSpaceOnUse" x1="139.2862" y1="227.9487" x2="175.7672" y2="227.9487" gradientTransform="matrix(-0.2076 -0.9782 0.9782 -0.2076 205.3275 428.7746)">
		<stop  offset="0" style="stop-color:#F9ED32"/>
		<stop  offset="1" style="stop-color:#FBB040"/>
	</linearGradient>
	<path fill="url(#SVGID_13_)" d="M402.86,229.74c0,0-1.88,0.47,0.62,6.01c0,0,0.47,1.22,0.44,4.2c0,0-0.61-0.66-1.19-0.6
		c0,0-2.17,0.99-4.58,6.12c0,0-1.17-4.57-2.75-5.16c0,0-0.79-0.29-3.2,1.73c0,0,0.87-2.1-1.41-1.02c0,0,0.21-1.5-2.33-0.1
		c0,0,1.55-1.39-6.26-1.18c0,0,2.81-1.39,1.97-1.61c0,0,1.83-1.31,0.59-2.17c0,0,2.52-1.19,1.44-2.22c0,0,6.77-2.95-0.13-2.81
		c0,0,1.13-1.82-2.38-1.87c0,0,1.15-2.03-0.92-2.18c0,0,1.67-1.21-4.2-4.26c0,0,6.5-0.79,6.52-2.57c0,0,2.51,0.33,2.36-1.03
		c0,0,1.77,1.21,2.58,0.05c0,0,6.21,4.69,0.67-2.45c0,0,1.39-0.62-0.23-2.66c0,0,1.27,0.39,0.04-4.17c0,0,4.22,2.8,5.61,2.5
		c0,0,1.11,2.14,2.32,0.04c0,0,3.94,8.6,7.09-0.18c0,0,0.7,9.82,3.12,6c0,0-1.12,4.66,0.78,3.66c0,0-5.23,4.1-6.43,7.63
		c-0.04,0.13,9.54,5.25,10.05,5c0.25-0.12-0.12,0.13-0.51,0.25C412.25,234.77,402.81,229.43,402.86,229.74z"/>
	
		<linearGradient id="SVGID_14_" gradientUnits="userSpaceOnUse" x1="250.8018" y1="317.4177" x2="287.2827" y2="317.4177" gradientTransform="matrix(-0.1609 -0.987 0.987 -0.1609 165.7849 526.1862)">
		<stop  offset="0" style="stop-color:#006838"/>
		<stop  offset="1" style="stop-color:#F9ED32"/>
	</linearGradient>
	<path fill="url(#SVGID_14_)" d="M442.91,212.3c0,0-1.9,0.38,0.33,6.03c0,0,0.41,1.24,0.24,4.21c0,0-0.58-0.69-1.16-0.66
		c0,0-2.21,0.88-4.86,5.9c0,0-0.95-4.62-2.5-5.28c0,0-0.77-0.33-3.27,1.58c0,0,0.97-2.06-1.35-1.09c0,0,0.28-1.49-2.32-0.21
		c0,0,1.62-1.31-6.19-1.48c0,0,2.87-1.25,2.04-1.51c0,0,1.89-1.22,0.7-2.14c0,0,2.57-1.07,1.55-2.15c0,0,6.9-2.63,0-2.81
		c0,0,1.22-1.77-2.29-1.98c0,0,1.25-1.97-0.82-2.22c0,0,1.73-1.13-4-4.45c0,0,6.53-0.48,6.63-2.26c0,0,2.49,0.44,2.4-0.91
		c0,0,1.72,1.29,2.58,0.17c0,0,5.98,4.98,0.78-2.42c0,0,1.41-0.56-0.11-2.66c0,0,1.25,0.45,0.24-4.16c0,0,4.09,3,5.49,2.77
		c0,0,1.01,2.19,2.31,0.15c0,0,3.52,8.78,7.09,0.15c0,0,0.23,9.84,2.83,6.15c0,0-1.34,4.6,0.6,3.7c0,0-5.42,3.85-6.79,7.31
		c-0.05,0.12,9.28,5.7,9.8,5.48c0.25-0.11-0.12,0.12-0.52,0.22C452.05,217.78,442.88,211.99,442.91,212.3z"/>
	
		<linearGradient id="SVGID_15_" gradientUnits="userSpaceOnUse" x1="242.1182" y1="235.5352" x2="278.5991" y2="235.5352" gradientTransform="matrix(0.1951 -1.148 1.0847 0.1844 48.3887 461.8496)">
		<stop  offset="0" style="stop-color:#ED1C24"/>
		<stop  offset="1" style="stop-color:#FBB040"/>
	</linearGradient>
	<path fill="url(#SVGID_15_)" d="M361.09,212.02c0,0-2.11-0.28-1.87,6.77c0,0-0.02,1.52-1.3,4.74c0,0-0.35-0.97-0.97-1.16
		c0,0-2.62,0.16-7.22,4.72c0,0,0.71-5.45-0.66-6.75c0,0-0.68-0.65-3.98,0.54c0,0,1.77-1.91-1.01-1.7c0,0,0.84-1.54-2.34-1.08
		c0,0,2.16-0.85-5.89-3.9c0,0,3.44-0.33,2.68-0.92c0,0,2.42-0.66,1.51-2.11c0,0,3.07-0.24,2.4-1.8c0,0,8.13-0.37,1.03-3.1
		c0,0,1.91-1.51-1.65-3.03c0,0,2.02-1.72-0.04-2.75c0,0,2.21-0.62-2.52-6.38c0,0,6.96,1.87,7.72-0.06c0,0,2.43,1.4,2.83-0.13
		c0,0,1.31,2.05,2.62,1.13c0,0,4.39,7.69,1.7-2.38c0,0,1.67-0.1,0.87-2.98c0,0,1.13,0.96,1.77-4.5c0,0,3.15,4.81,4.69,5.07
		c0,0,0.25,2.79,2.35,1.01c0,0,0.44,10.98,7.31,2.77c0,0-3.37,10.94,0.69,7.82c0,0-3.09,4.59-0.73,4.3c0,0-7.05,2.26-9.74,5.58
		c-0.1,0.12,7.55,9.69,8.18,9.64c0.3-0.03-0.17,0.09-0.62,0.05C368.58,221.41,361.17,211.66,361.09,212.02z"/>
	
		<linearGradient id="SVGID_16_" gradientUnits="userSpaceOnUse" x1="104.3946" y1="243.8973" x2="140.8756" y2="243.8973" gradientTransform="matrix(-0.2076 -0.9782 0.9782 -0.2076 205.3275 428.7746)">
		<stop  offset="0" style="stop-color:#F9ED32"/>
		<stop  offset="1" style="stop-color:#FBB040"/>
	</linearGradient>
	<path fill="url(#SVGID_16_)" d="M425.7,260.56c0,0-1.88,0.47,0.62,6.01c0,0,0.47,1.22,0.44,4.2c0,0-0.61-0.66-1.19-0.6
		c0,0-2.17,0.99-4.58,6.12c0,0-1.17-4.57-2.75-5.16c0,0-0.79-0.29-3.2,1.73c0,0,0.87-2.1-1.41-1.02c0,0,0.21-1.5-2.33-0.1
		c0,0,1.55-1.39-6.26-1.18c0,0,2.81-1.39,1.97-1.61c0,0,1.83-1.31,0.59-2.17c0,0,2.52-1.19,1.44-2.22c0,0,6.77-2.95-0.13-2.81
		c0,0,1.13-1.82-2.38-1.87c0,0,1.15-2.03-0.92-2.18c0,0,1.67-1.21-4.2-4.26c0,0,6.5-0.79,6.52-2.57c0,0,2.51,0.33,2.36-1.03
		c0,0,1.77,1.21,2.58,0.05c0,0,6.21,4.69,0.67-2.45c0,0,1.39-0.62-0.23-2.66c0,0,1.27,0.39,0.04-4.17c0,0,4.22,2.8,5.61,2.5
		c0,0,1.11,2.14,2.32,0.04c0,0,3.94,8.6,7.09-0.18c0,0,0.7,9.82,3.12,6c0,0-1.12,4.66,0.78,3.66c0,0-5.23,4.1-6.43,7.63
		c-0.04,0.13,9.54,5.25,10.05,5c0.25-0.12-0.12,0.13-0.51,0.25C435.09,265.59,425.65,260.25,425.7,260.56z"/>
	
		<linearGradient id="SVGID_17_" gradientUnits="userSpaceOnUse" x1="225.6558" y1="334.6893" x2="262.1367" y2="334.6893" gradientTransform="matrix(-0.0793 -0.9969 0.9969 -0.0793 130.0798 513.9926)">
		<stop  offset="0" style="stop-color:#006838"/>
		<stop  offset="1" style="stop-color:#F9ED32"/>
	</linearGradient>
	<path fill="url(#SVGID_17_)" d="M451.26,247.63c0,0-1.93,0.22-0.17,6.04c0,0,0.31,1.27-0.11,4.22c0,0-0.52-0.74-1.1-0.75
		c0,0-2.28,0.7-5.33,5.48c0,0-0.57-4.68-2.05-5.47c0,0-0.74-0.39-3.39,1.31c0,0,1.14-1.97-1.26-1.2c0,0,0.4-1.46-2.3-0.4
		c0,0,1.72-1.17-6.05-1.98c0,0,2.96-1.01,2.16-1.34c0,0,1.99-1.06,0.87-2.08c0,0,2.65-0.86,1.72-2.02c0,0,7.09-2.05,0.23-2.8
		c0,0,1.36-1.66-2.12-2.16c0,0,1.41-1.86-0.63-2.28c0,0,1.81-0.99-3.62-4.76c0,0,6.55,0.06,6.79-1.71c0,0,2.45,0.65,2.47-0.71
		c0,0,1.6,1.43,2.56,0.38c0,0,5.55,5.45,0.98-2.34c0,0,1.45-0.44,0.11-2.66c0,0,1.21,0.55,0.58-4.13c0,0,3.83,3.32,5.24,3.21
		c0,0,0.83,2.27,2.29,0.34c0,0,2.79,9.04,7.05,0.73c0,0-0.58,9.83,2.32,6.36c0,0-1.72,4.48,0.3,3.73c0,0-5.72,3.39-7.37,6.73
		c-0.06,0.12,8.78,6.44,9.32,6.26c0.26-0.09-0.13,0.11-0.54,0.18C459.92,253.84,451.25,247.32,451.26,247.63z"/>
	
		<linearGradient id="SVGID_18_" gradientUnits="userSpaceOnUse" x1="221.2599" y1="308.9082" x2="257.7408" y2="308.9082" gradientTransform="matrix(0.2861 -0.9582 0.9582 0.2861 57.6016 384.8217)">
		<stop  offset="0" style="stop-color:#ED1C24"/>
		<stop  offset="1" style="stop-color:#FBB040"/>
	</linearGradient>
	<path fill="url(#SVGID_18_)" d="M427.35,249.28c0,0-1.87-0.49-2.34,5.57c0,0-0.17,1.3-1.63,3.89c0,0-0.22-0.87-0.76-1.1
		c0,0-2.38-0.17-6.95,3.18c0,0,1.16-4.57,0.06-5.84c0,0-0.55-0.64-3.64-0.01c0,0,1.77-1.42-0.74-1.57c0,0,0.9-1.21-2-1.2
		c0,0,2.03-0.47-4.93-4.03c0,0,3.13,0.13,2.5-0.47c0,0,2.24-0.28,1.56-1.62c0,0,2.78,0.16,2.33-1.26c0,0,7.35,0.65,1.23-2.53
		c0,0,1.87-1.06-1.19-2.78c0,0,1.98-1.23,0.23-2.36c0,0,2.05-0.26-1.65-5.75c0,0,6.08,2.42,6.95,0.86c0,0,2.05,1.49,2.56,0.23
		c0,0,0.98,1.91,2.25,1.28c0,0,3.21,7.09,1.76-1.83c0,0,1.52,0.12,1.07-2.44c0,0,0.93,0.95,2.03-3.64c0,0,2.37,4.48,3.73,4.89
		c0,0-0.05,2.41,2.02,1.14c0,0-0.66,9.44,6.31,3.23c0,0-4.09,8.95-0.13,6.77c0,0-3.22,3.55-1.07,3.59c0,0-6.56,1.09-9.3,3.62
		c-0.1,0.09,5.86,9.18,6.43,9.21c0.27,0.01-0.16,0.05-0.57-0.03C433.18,258.2,427.45,248.99,427.35,249.28z"/>
	
		<linearGradient id="SVGID_19_" gradientUnits="userSpaceOnUse" x1="212.2554" y1="93.0105" x2="248.7364" y2="93.0105" gradientTransform="matrix(-0.2076 -0.9782 0.9782 -0.2076 205.3275 428.7746)">
		<stop  offset="0" style="stop-color:#F9ED32"/>
		<stop  offset="1" style="stop-color:#FBB040"/>
	</linearGradient>
	<path fill="url(#SVGID_19_)" d="M255.71,186.38c0,0-1.88,0.47,0.62,6.01c0,0,0.47,1.22,0.44,4.2c0,0-0.61-0.66-1.19-0.6
		c0,0-2.17,0.99-4.58,6.12c0,0-1.17-4.57-2.75-5.16c0,0-0.79-0.29-3.2,1.73c0,0,0.87-2.1-1.41-1.02c0,0,0.21-1.5-2.33-0.1
		c0,0,1.55-1.39-6.26-1.18c0,0,2.81-1.39,1.97-1.61c0,0,1.83-1.31,0.59-2.17c0,0,2.52-1.19,1.44-2.22c0,0,6.77-2.95-0.13-2.81
		c0,0,1.13-1.82-2.38-1.87c0,0,1.15-2.03-0.92-2.18c0,0,1.67-1.21-4.2-4.26c0,0,6.5-0.79,6.52-2.57c0,0,2.51,0.33,2.36-1.03
		c0,0,1.77,1.21,2.58,0.05c0,0,6.21,4.69,0.67-2.45c0,0,1.39-0.62-0.23-2.66c0,0,1.27,0.39,0.04-4.17c0,0,4.22,2.8,5.61,2.5
		c0,0,1.11,2.14,2.32,0.04c0,0,3.94,8.6,7.09-0.18c0,0,0.7,9.82,3.12,6c0,0-1.12,4.66,0.78,3.66c0,0-5.23,4.1-6.43,7.63
		c-0.04,0.13,9.54,5.25,10.05,5c0.25-0.12-0.12,0.13-0.51,0.25C265.1,191.41,255.66,186.07,255.71,186.38z"/>
	
		<linearGradient id="SVGID_20_" gradientUnits="userSpaceOnUse" x1="242.1302" y1="145.3674" x2="278.6112" y2="145.3674" gradientTransform="matrix(0.3074 -0.9516 0.9516 0.3074 48.4119 379.5326)">
		<stop  offset="0" style="stop-color:#006838"/>
		<stop  offset="1" style="stop-color:#F9ED32"/>
	</linearGradient>
	<path fill="url(#SVGID_20_)" d="M271.88,182.14c0,0-1.86-0.53-2.46,5.52c0,0-0.2,1.29-1.71,3.86c0,0-0.2-0.88-0.73-1.12
		c0,0-2.37-0.22-7.02,3.03c0,0,1.26-4.54,0.19-5.84c0,0-0.54-0.65-3.64-0.09c0,0,1.8-1.38-0.71-1.59c0,0,0.93-1.19-1.97-1.25
		c0,0,2.04-0.43-4.84-4.14c0,0,3.13,0.2,2.51-0.41c0,0,2.24-0.23,1.6-1.59c0,0,2.78,0.22,2.36-1.21c0,0,7.34,0.81,1.28-2.5
		c0,0,1.89-1.02-1.13-2.81c0,0,2.01-1.18,0.28-2.35c0,0,2.05-0.22-1.52-5.78c0,0,6.03,2.56,6.93,1.02c0,0,2.02,1.53,2.56,0.28
		c0,0,0.94,1.93,2.22,1.33c0,0,3.05,7.16,1.8-1.79c0,0,1.51,0.15,1.12-2.42c0,0,0.91,0.97,2.11-3.59c0,0,2.27,4.53,3.62,4.97
		c0,0-0.1,2.41,1.99,1.19c0,0-0.87,9.42,6.24,3.37c0,0-4.29,8.86-0.28,6.76c0,0-3.3,3.48-1.15,3.56c0,0-6.58,0.95-9.38,3.41
		c-0.1,0.09,5.66,9.31,6.22,9.35c0.27,0.02-0.16,0.05-0.57-0.04C277.51,191.18,271.99,181.84,271.88,182.14z"/>
	
		<linearGradient id="SVGID_21_" gradientUnits="userSpaceOnUse" x1="255.3468" y1="104.6897" x2="291.8277" y2="104.6897" gradientTransform="matrix(0.5871 -0.8095 0.8095 0.5871 -19.5235 334.1328)">
		<stop  offset="0" style="stop-color:#ED1C24"/>
		<stop  offset="1" style="stop-color:#FBB040"/>
	</linearGradient>
	<path fill="url(#SVGID_21_)" d="M228.93,181.11c0,0-1.61-1.08-4.05,4.48c0,0-0.59,1.17-2.82,3.14c0,0,0.08-0.9-0.35-1.29
		c0,0-2.18-0.95-7.61,0.7c0,0,2.61-3.93,1.99-5.5c0,0-0.31-0.78-3.43-1.21c0,0,2.14-0.76-0.18-1.73c0,0,1.25-0.85-1.49-1.8
		c0,0,2.07,0.23-3.32-5.44c0,0,2.91,1.15,2.51,0.39c0,0,2.2,0.48,2.01-1.01c0,0,2.57,1.07,2.62-0.42c0,0,6.73,3.04,2-1.98
		c0,0,2.11-0.38-0.2-3.02c0,0,2.28-0.5,1-2.15c0,0,2.02,0.43,0.34-5.97c0,0,4.94,4.3,6.28,3.12c0,0,1.44,2.08,2.34,1.06
		c0,0,0.29,2.13,1.7,1.95c0,0,0.68,7.75,2.27-1.15c0,0,1.39,0.61,1.82-1.95c0,0,0.56,1.21,3.12-2.76c0,0,0.75,5.01,1.9,5.85
		c0,0-0.84,2.26,1.53,1.74c0,0-3.75,8.69,4.89,5.14c0,0-6.82,7.1-2.37,6.34c0,0-4.21,2.29-2.2,3.03c0,0-6.55-1.14-9.97,0.33
		c-0.12,0.05,2.49,10.6,3.02,10.82c0.25,0.1-0.17,0-0.52-0.21C231.49,191.45,229.13,180.86,228.93,181.11z"/>
	
		<linearGradient id="SVGID_22_" gradientUnits="userSpaceOnUse" x1="361.3486" y1="203.1578" x2="397.8295" y2="203.1578" gradientTransform="matrix(0.7834 -0.6215 0.6215 0.7834 -55.844 222.8978)">
		<stop  offset="0" style="stop-color:#ED1C24"/>
		<stop  offset="1" style="stop-color:#FBB040"/>
	</linearGradient>
	<path fill="url(#SVGID_22_)" d="M368.88,153.68c0,0-1.25-1.48-5.11,3.23c0,0-0.88,0.97-3.56,2.26c0,0,0.32-0.84,0.01-1.34
		c0,0-1.85-1.5-7.52-1.37c0,0,3.57-3.08,3.4-4.76c0,0-0.09-0.84-2.98-2.09c0,0,2.27-0.15,0.29-1.71c0,0,1.43-0.48-0.95-2.13
		c0,0,1.93,0.77-1.73-6.13c0,0,2.49,1.9,2.32,1.05c0,0,1.99,1.06,2.21-0.43c0,0,2.19,1.72,2.63,0.3c0,0,5.66,4.74,2.46-1.37
		c0,0,2.14,0.2,0.62-2.96c0,0,2.33,0.13,1.54-1.8c0,0,1.83,0.96,1.94-5.66c0,0,3.6,5.47,5.2,4.69c0,0,0.83,2.39,1.97,1.65
		c0,0-0.29,2.13,1.11,2.33c0,0-1.43,7.65,2.49-0.49c0,0,1.18,0.96,2.27-1.39c0,0,0.22,1.31,3.75-1.82c0,0-0.63,5.03,0.26,6.14
		c0,0-1.42,1.95,1,2.09c0,0-5.95,7.36,3.32,6.27c0,0-8.48,5-3.99,5.47c0,0-4.67,1.07-2.93,2.33c0,0-6-2.86-9.69-2.36
		c-0.13,0.02-0.45,10.88,0,11.23c0.22,0.17-0.16-0.05-0.45-0.35C368.56,164.33,369.14,153.5,368.88,153.68z"/>
	
		<linearGradient id="SVGID_23_" gradientUnits="userSpaceOnUse" x1="271.6634" y1="2.364" x2="308.1443" y2="2.364" gradientTransform="matrix(0.9596 0.2812 -0.2812 0.9596 -124.9505 17.0466)">
		<stop  offset="0" style="stop-color:#ED1C24"/>
		<stop  offset="1" style="stop-color:#FBB040"/>
	</linearGradient>
	<path fill="url(#SVGID_23_)" d="M147.05,106.09c0,0,0.48-1.88-5.58-2.31c0,0-1.3-0.16-3.9-1.61c0,0,0.87-0.22,1.1-0.76
		c0,0,0.16-2.38-3.22-6.93c0,0,4.58,1.14,5.84,0.03c0,0,0.63-0.55-0.01-3.64c0,0,1.43,1.77,1.57-0.75c0,0,1.22,0.9,1.19-2.01
		c0,0,0.48,2.03,4.01-4.95c0,0-0.11,3.13,0.48,2.5c0,0,0.29,2.24,1.63,1.55c0,0-0.14,2.78,1.27,2.32c0,0-0.61,7.36,2.54,1.21
		c0,0,1.07,1.86,2.78-1.21c0,0,1.24,1.98,2.36,0.22c0,0,0.28,2.05,5.74-1.68c0,0-2.39,6.09-0.83,6.96c0,0-1.48,2.06-0.21,2.56
		c0,0-1.9,0.99-1.27,2.25c0,0-7.07,3.24,1.84,1.75c0,0-0.11,1.52,2.45,1.05c0,0-0.95,0.93,3.65,2.01c0,0-4.47,2.39-4.87,3.75
		c0,0-2.41-0.03-1.13,2.02c0,0-9.44-0.61-3.2,6.33c0,0-8.98-4.04-6.77-0.1c0,0-3.57-3.2-3.59-1.05c0,0-1.13-6.55-3.66-9.28
		c-0.09-0.1-9.15,5.91-9.17,6.48c-0.01,0.27-0.06-0.16,0.03-0.57C138.16,111.97,147.34,106.2,147.05,106.09z"/>
</g>
</svg>
