<?xml version="1.0" encoding="utf-8"?>
<!-- Generator: Adobe Illustrator 24.0.3, SVG Export Plug-In . SVG Version: 6.00 Build 0)  -->
<svg version="1.1" id="Layer_1" xmlns="http://www.w3.org/2000/svg" xmlns:xlink="http://www.w3.org/1999/xlink" x="0px" y="0px"
	 viewBox="0 0 254.77 227.44" enable-background="new 0 0 254.77 227.44" xml:space="preserve">
<path d="M34.71,140.54c0,0,5.34-12.73,14.52-17.22s15.42,0.39,19.13-14.64c3.71-15.03-0.39-28.5-1.95-30.84S52.35,59.49,46.3,53.05
	s6.25-18.35,8.78-19.13s7.47-7.65,8.98,4.88c0.41,3.39,3.51,4.88,4.68,5.08s22.84,5.66,31.23,10.54c0,0,23.62-15.81,35.33-13.27
	c0,0,57.97-25.77,68.52-24.99c10.54,0.78-40.6,19.72-42.94,20.89s7.42-3.12,28.11-9.17s37.48-7.81,39.63-7.03
	c2.15,0.78-16.59,8-52.51,18.35c0,0,46.65-8.78,60.32-5.66s-46.85,9.96-51.14,10.93c0,0,44.7-2.15,54.66,0.98s-40.8,6.05-51.14,6.05
	c0,0,39.24,1.76,49,7.22c9.76,5.47-42.94,2.73-45.29,2.73s32.01,7.22,35.33,12.88c0,0,0.59,1.56-28.89,0.59c0,0-13.55,2.57-19.72,8
	c0,0-8.83,13.08-0.78,35.14c0,0,28.69-10.54,34.94-9.76c6.25,0.78-3.9,5.08-3.9,5.08s5.27-0.39,3.71,2.54
	c0,0-20.89,7.03-30.65,10.74c-9.76,3.71,41.58-17.18,35.14-8.59c0,0-25.57,11.52-28.3,12.88s24.6-9.56,30.45-8.39
	s-22.25,9.37-23.23,9.96c0,0,24.6-8.39,20.89-4.29c-3.71,4.1-18.54,6.05-19.72,7.03c-1.17,0.98,27.91-7.22,16.79-0.78
	c0,0,13.08,1.56-25.38,9.96c0,0,7.22,5.86,12.3,6.05c0,0-5.52-0.01-14.41,4.14c0,0,7.9,3.16-3.46,5.13c0,0-5.93-0.49-11.85,1.98
	c0,0,0.99,4.44,4.44,4.94c0,0-8.89-2.47-14.32,0c-5.43,2.47-10.37,0.99-11.85,0c-1.48-0.99-2.47,2.96,1.98,6.91s4.7,5.43-5.44,4.44
	c-10.15-0.99-2.23,5.45-0.99,6.19c1.24,0.74-8.41-0.99-11.63-2.48c-3.22-1.49,1.73,6.43,2.72,6.93c0.99,0.49-5.2-1.46-7.67-2.83
	c-2.47-1.38-0.67,2.91-0.67,2.91s1.8,1.49,1.08,4.74c-0.72,3.25-1.44-1.08-3.25-1.8c-1.8-0.72-1.8,7.58-0.72,9.02
	c1.08,1.44-5.77-8.3-9.74-7.22s-8.3,2.1-11.19,7.36s-2.64,11.9-4.33,14.65c-1.75,2.85-5.09,5.11-4.23,3.37
	c2.9-5.86-0.1-3.78,0.98-8.78c0,0-2.25,0.84-3.5,2.43c-1.93,2.45-2.88,4.83-0.47-5.67c0,0-1.99,0.09-5.1,2.89
	c-0.65,0.59,1.67-3.61,15.2-16.6c0,0,3.25-9.38-5.05-1.8c0,0,2.87,1.87,2.41,2.48c-0.46,0.61,0.31,3.98-4.9,2.14
	c0,0-0.13-0.14-0.46,2.6c-0.32,2.74-4.59,10.87-5.21,1.23c0,0,2.14-8.58-7.35,0.77c0,0-1.68,1.07-3.52,0.15
	c-1.84-0.92-1.38,2.3-1.68,3.22c-0.31,0.92-1.53-5.36,1.68-5.82s3.52-1.68,3.83-2.3c0.31-0.61-5.97,1.23-9.04,0.15
	c-3.06-1.07-0.77-2.3-0.77-2.76c0-0.46-3.06-1.53-4.29,2.76c0,0-0.77-6.74,5.67-3.98c6.43,2.76,9.5-0.61,10.26-1.23
	c0.77-0.61,0.46-6.59-1.99-1.68c0,0,2.14-9.19,6.43-1.53c0,0,5.27,2.1,9.03-6.39c0,0,2.54-6.76-3.71-11.79s-14.92-8.5-19.78-10.24
	c-4.86-1.74-13.54-6.59-16.66-10.76c-3.12-4.17-14.75-2.78-19.96,7.64C38.01,155.95,30.55,153.43,34.71,140.54z"/>
</svg>
