<?xml version="1.0" encoding="utf-8"?>
<!-- Generator: Adobe Illustrator 24.0.3, SVG Export Plug-In . SVG Version: 6.00 Build 0)  -->
<svg version="1.1" id="Layer_1" xmlns="http://www.w3.org/2000/svg" xmlns:xlink="http://www.w3.org/1999/xlink" x="0px" y="0px"
	 viewBox="0 0 165.17 151.69" enable-background="new 0 0 165.17 151.69" xml:space="preserve">
<linearGradient id="SVGID_1_" gradientUnits="userSpaceOnUse" x1="188.4239" y1="33.9461" x2="332.7907" y2="33.9461" gradientTransform="matrix(0.9596 0.2812 -0.2812 0.9596 -164.7032 -26.2497)">
	<stop  offset="0" style="stop-color:#ED1C24"/>
	<stop  offset="1" style="stop-color:#FBB040"/>
</linearGradient>
<path fill="url(#SVGID_1_)" d="M53.91,100.41c0,0,1.91-7.43-22.09-9.13c0,0-5.14-0.64-15.44-6.36c0,0,3.45-0.88,4.35-3.02
	c0,0,0.63-9.4-12.73-27.43c0,0,18.12,4.51,23.13,0.12c0,0,2.51-2.19-0.04-14.39c0,0,5.67,6.99,6.2-2.98c0,0,4.82,3.54,4.72-7.94
	c0,0,1.91,8.02,15.86-19.58c0,0-0.43,12.39,1.9,9.88c0,0,1.13,8.85,6.45,6.15c0,0-0.57,11.02,5.03,9.19c0,0-2.41,29.12,10.04,4.81
	c0,0,4.23,7.36,10.98-4.77c0,0,4.9,7.82,9.33,0.87c0,0,1.09,8.09,22.72-6.66c0,0-9.46,24.12-3.27,27.53c0,0-5.85,8.14-0.84,10.14
	c0,0-7.54,3.92-5.01,8.92c0,0-27.99,12.83,7.29,6.93c0,0-0.43,6,9.69,4.17c0,0-3.75,3.7,14.44,7.96c0,0-17.68,9.46-19.26,14.86
	c0,0-9.55-0.13-4.48,8.01c0,0-37.36-2.43-12.66,25.05c0,0-35.52-16-26.78-0.39c0,0-14.13-12.66-14.22-4.17
	c0,0-4.46-25.93-14.49-36.73c-0.36-0.38-36.2,23.38-36.3,25.62c-0.05,1.08-0.22-0.64,0.1-2.24
	C18.73,123.67,55.07,100.82,53.91,100.41z"/>
</svg>
