<?xml version="1.0" encoding="utf-8"?>
<!-- Generator: Adobe Illustrator 24.0.3, SVG Export Plug-In . SVG Version: 6.00 Build 0)  -->
<svg version="1.1" id="Layer_1" xmlns="http://www.w3.org/2000/svg" xmlns:xlink="http://www.w3.org/1999/xlink" x="0px" y="0px"
	 viewBox="0 0 1200 345.5" enable-background="new 0 0 1200 345.5" xml:space="preserve">
<path d="M1200,194.28c0,0-24.14-21.41-27.31-26.17s-11.9-6.89-15.86-8.6s-30.14-26.3-36.48-29.47c-6.34-3.17-9.52-3.17-47.59,16.66
	s-90.41-26.97-111.83-35.69c-21.41-8.72-88.83-53.14-98.35-56.31c-9.52-3.17-36.48-8.72-46.79-7.93
	c-10.31,0.79-31.72-15.07-34.9-16.66s-18.24,5.55-45.21,27.76c-26.97,22.21-53.93,17.45-57.9,18.24
	c-3.97,0.79-15.07,10.31-21.41,16.66c-6.34,6.34-15.86,3.17-19.03,4.76c-3.17,1.59-24.71,22.21-37.34,23.79s-20.56,0-30.08-2.38
	c-9.52-2.38-16.66,0-22.21,0s-14.28,3.97-17.45,2.38c-3.17-1.59-11.9-12.69-49.17-26.17s-84.07-34.1-94.38-41.24
	c-10.31-7.14-17.45,0.79-26.97,10.31s-27.76,18.24-50.76,38.86c-23,20.62-57.9,38.07-61.86,38.07s-18.24,11.9-33.31,0.79
	s-21.41-24.59-44.41-2.38s-68.21,41.24-74.55,44.41c-6.34,3.17-19.03,19.83-23,23c-3.97,3.17-35.15,22.31-46.42,31.32
	c-11.27,9.01-19.32,44.42-17.71,50.86c1.61,6.44-2.02,41.86-0.21,56.34H1200V194.28z"/>
</svg>
