<?xml version="1.0" encoding="utf-8"?>
<!-- Generator: Adobe Illustrator 24.0.3, SVG Export Plug-In . SVG Version: 6.00 Build 0)  -->
<svg version="1.1" id="Layer_1" xmlns="http://www.w3.org/2000/svg" xmlns:xlink="http://www.w3.org/1999/xlink" x="0px" y="0px"
	 viewBox="0 0 279.76 454.88" enable-background="new 0 0 279.76 454.88" xml:space="preserve">
<path d="M118.1,56.29c0,0,4.86,0.35,5.44-14.34c0,0,0.25-5.85,0.95-17.74c0.7-11.89,8.75,15.51,9.47,21.77
	c0.69,5.97,2.41,10.35,5.86,10.76c0,0,13.09,1.39,22.18-3.5c0,0-8.99,10.13-13.89,14.32c0,0,5.49,2.47,13.89-5.23
	c0,0-7.23,11.9-10.02,16.8c-2.8,4.9-2.51,18.38,21.92-2.11c0,0-26.95,28.28-22.75,29.68c4.2,1.4,5.96,6,22.75-9.39
	c0,0-19.14,19.93-17.74,26.93c1.4,7,14.18,0.43,18.38-1.67c4.2-2.1-18.69,16.53-11.69,24.22c7,7.7,21.62,3.4,26.51,1.3
	c4.9-2.1-14.69,11.89-12.59,13.99c2.1,2.1,6.47,1.4,13.38-2.1c0,0-14.08,10.49-14.08,13.29c0,2.8,4.2,2.8,7.7,0
	c3.5-2.8-12.59,11.19-9.79,14.69c2.8,3.5,7-1.4,12.59-2.8s-9.79,11.19-6.3,13.99c3.5,2.8,18.19,0,29.38-7
	c11.19-7-16.73,19.84-16.73,29.23c0,9.39,10,1,14.2-3.61c4.2-4.6-4.04,12.56-10.29,25.76c-5.38,11.36,6.51,8.87,20.5,1.18
	s-21.91,17.02-21.91,24.01c0,7,9.31,8.87,15.61,8.17c0,0-12.54,2.49-13.94,14.39c0,0,6.24,4.5,15.34,4.5c0,0-11.19,7-12.59,12.59
	c0,0,7,4.2,26.58,0c0,0-24.1,12.51-24.1,18.11c0,0,21.3,0.08,31.09,0.78c0,0-15.39,5.6-18.89,13.29c0,0-2.34,8.35,22.84,6.95
	c0,0-42.83,13.63-1.86,23.13c0,0-14.93,4.58-15.63,14.38c0,0,2.03,3.03,16.02,2.33c0,0-15.09,3.93-15.79,10.23
	c0,0,17.88,4.47,34.67,3.07c0,0-27.61,9.95-31.81,12.74c-4.2,2.8,5.92,3.35,23.41,1.25c17.49-2.1-10.21,4.49-17.91,11.49
	c0,0,1.91,12.06,22.9,7.17c0,0-81.18,33.34-134.38,17.13c0,0-80.53-16.24-87.06-17.87c-6.53-1.63-6.53-1.63-6.53-1.63
	s25.04,1.9,23.65-1.82c0,0-20.34-3.9-28.68-5.98s24.1-4.13,30.36-6.22s-51.9-13.95-9.9-12.57c5.94,0.19-18.4,0.22-25.52-7.43
	c0,0,27.81,1.1,38.88-0.98c0,0-46.54-8.3-47.23-11.08c-0.7-2.78,35.1-0.78,37.13-1.39s-14.39-3.25-14.39-3.25S3.48,375.33,0,367.69
	c0,0,36.84,8.79,43.79,5.31c0,0,11.39-2.26,1.39-7.65c0,0-15.32-1.21-31.28-9.73c0,0,21.79,0.11,33.61-4.06c0,0,0,0-8.58-6.37
	c0,0-18.07-8.34-22.24-14.6c0,0,18.07,9.73,27.81,6.95c0,0-13.9-6.95-17.38-13.21c0,0,18.07,9.04,25.02,7.65
	c0,0-16.41-21.82-20.58-27.38c0,0,29.38,6.74,37.72,6.74c0,0-33.55-12.99-37.72-19.95c0,0,11.12,6.95,19.46,7.65
	c0,0-14.6-7.65-19.46-20.16c0,0,29.89,21.55,45.88,6.95c0,0-13.21,0.7-29.2-27.11c0,0,12.46,13.21,26.04,13.21
	c0,0-12.83-6.26-21.17-24.33c0,0,5.7,13.68,32.11,20.63c0,0-27.25-22.02-30.03-36.62c0,0,11.12,10.43,27.11,9.04
	c0,0-29.89-13.9-29.89-24.33c0,0,17.38,12.51,27.11,10.43c0,0-27.11-16.68-29.89-43.79c0,0,15.29,24.33,38.93,36.15
	c0,0,6.21,2.39,4.75-8.57c0,0-14.53-17.84-19.02-36.61c0,0,10.58,21.26,25.27,21.26c0,0-13.36-15.59-20.36-32.38
	c0,0,16.09,16.68,28.68,16.68c0,0,1.4-6.18-4.2-12.48c-5.6-6.3-16.79-13.99-23.09-30.08c0,0,14.69,16.09,27.28,18.89
	c0,0-18.19-9.79-21.69-29.38c0,0,11.41,21.17,23.27,19.07c0,0-10.65-12.73-13.45-20.42c0,0,37.16,27.67-1.44-33.02
	c0,0,8.48,8.97,18.28,8.27c0,0,5.53-6.08-2.17-16.57s-8.15-6.12-14.43-17.32c0,0,11.63,11.02,17.23,8.92
	c5.6-2.1-15.14-26.85-15.14-26.85"/>
<path fill="#0C8C44" d="M382.79-24.48"/>
<path fill="#0C8C44" d="M383.13-19.75"/>
</svg>
