<?xml version="1.0" encoding="utf-8"?>
<!-- Generator: Adobe Illustrator 24.0.3, SVG Export Plug-In . SVG Version: 6.00 Build 0)  -->
<svg version="1.1" id="Layer_1" xmlns="http://www.w3.org/2000/svg" xmlns:xlink="http://www.w3.org/1999/xlink" x="0px" y="0px"
	 viewBox="0 0 1600 363.82" enable-background="new 0 0 1600 363.82" xml:space="preserve">
<path fill="#A1DBE8" d="M169.66,63.33c0,0,151.54-7.83,221.82,0c71.34,7.95,408.83,2.13,422.42,2.13c13.59,0,200,5.45,403.52,3.07
	c0,0,90.75,8.59,142.01,0s200.75-2.93,203.77,8.4s-94.93,91.46,3.03,115.15c44.64,10.79,54.67,113.17-30.21,139.66
	c-40.72,12.71-168.96,27.21-176.59,30.59s-1189.78,0-1189.78,0S-72.07,289.21,21.55,202.88S50.18,82.47,23,74.55
	S97.73,69.43,169.66,63.33z"/>
</svg>
