<?xml version="1.0" encoding="utf-8"?>
<!-- Generator: Adobe Illustrator 24.0.3, SVG Export Plug-In . SVG Version: 6.00 Build 0)  -->
<svg version="1.1" id="Layer_1" xmlns="http://www.w3.org/2000/svg" xmlns:xlink="http://www.w3.org/1999/xlink" x="0px" y="0px"
	 viewBox="0 0 612 792" enable-background="new 0 0 612 792" xml:space="preserve">
<path d="M186.95,215.63c0,0-0.97-18.37,26.11-28.04c0,0,7.74-42.55,43.52-39.65c0,0,52.22-0.97,62.86,60.92
	c0,0,13.54,44.48,18.37,49.32c4.84,4.84,35.78,31.91,49.32,33.85c13.54,1.93,35.78,19.34,35.78,55.12s4.84,63.82,0,74.46
	c-4.84,10.64,3.87,37.71-8.7,59.95c-12.57,22.24,4.84-0.97-8.7,47.38c0,0-4.84,50.28-6.77,61.89c-1.93,11.6,20.31,68.66,18.37,76.39
	c0,0-58.99,66.72-125.71,5.8c0,0-6.77-39.65-2.9-58.02c0,0-47.38-6.77-54.15-11.6c0,0-10.64-13.54,36.75-1.93
	c0,0,10.64-10.64,5.8-33.85c0,0-16.44-24.18-19.34-30.94c0,0-10.64,23.21-63.82-146.99c0,0-6.77-82.2,34.81-91.87
	C228.53,297.83,274.95,170.18,186.95,215.63z"/>
</svg>
