<?xml version="1.0" encoding="utf-8"?>
<!-- Generator: Adobe Illustrator 24.0.3, SVG Export Plug-In . SVG Version: 6.00 Build 0)  -->
<svg version="1.1" id="Layer_1" xmlns="http://www.w3.org/2000/svg" xmlns:xlink="http://www.w3.org/1999/xlink" x="0px" y="0px"
	 viewBox="0 0 612 792" enable-background="new 0 0 612 792" xml:space="preserve">
<path d="M553.22,478.87c0,0-67.17-50.38-78.62-60.3c0,0-16.79,10.69-51.14,0c0,0,16.59,1.24,18.91-2.63c0,0-8.52,6.71-31.48-3.35
	c0,0,10.06,0.65,10.58-1.35c0,0-7.48,7.29-48.25-20.06c0,0-177.4-76.93-189.86-81.77c0,0-70.92-33.66-71.82-46.23
	c0,0-7.19-14.94,117.27,19.47c0,0,133.38,30.84,197.97,80.13c0,0,10.8,6.98,15.05,10.38c0,0,7,5.45,7.44,2.09
	c0,0,3.2,7.25,6.37,2.55c0,0-0.62-2.98,2.78,5.1l-1.22-5.87c0,0,14.15,10.54,20.1,38.15c0,0,62.64,44.18,75.92,58.62
	C566.51,488.23,553.22,478.87,553.22,478.87z"/>
</svg>
