<svg aria-hidden="true" style="position: absolute; width: 0; height: 0; overflow: hidden;" version="1.1" xmlns="http://www.w3.org/2000/svg" xmlns:xlink="http://www.w3.org/1999/xlink">
<defs>
<symbol id="icon-CS-Icon1" viewBox="0 0 41 32">
<title>CS-Icon1</title>
<path d="M36.659 3.746c-0.47-0.587-7.063 3.921-14.728 10.068-4.92 3.946-9.079 7.607-11.306 9.877-0.686-0.42-1.941-0.422-3.262 1.39-2.248 3.083-3.987 0.937-3.987 0.937s0.672 1.517 2.559 2.026 4.378-1.17 4.378-1.17 1.047-0.79 1.002-1.903c2.673-1.635 7.263-4.977 12.322-9.035 7.662-6.147 13.493-11.605 13.023-12.191z"></path>
</symbol>
<symbol id="icon-CS-Icon2" viewBox="0 0 35 32">
<title>CS-Icon2</title>
<path d="M31.596 6.811l-1.732-0.007c-1.349-1.049-4.328-3.657-4.328-3.657v0c-0.298-0.391-0.768-0.646-1.295-0.646h-4.337c-0.527 0-0.996 0.255-1.295 0.646h-0.003c-1.943 2.002-3.58 3.467-3.729 3.598l-3.734-0.015c0.011-0.031 0.018-0.063 0.018-0.098 0-0.157-0.127-0.284-0.284-0.284h-0.346c0.031-0.046 0.049-0.101 0.049-0.16 0-0.161-0.132-0.293-0.293-0.293h-3.625c-0.161 0-0.293 0.132-0.293 0.293 0 0.059 0.018 0.114 0.049 0.16h-0.346c-0.157 0-0.284 0.128-0.284 0.284 0 0.027 0.006 0.052 0.013 0.077l-2.144-0.008c-0.925-0.004-1.684 0.75-1.688 1.674l-0.074 18.851c-0.004 0.925 0.75 1.684 1.674 1.688l27.939 0.111c0.925 0.004 1.684-0.75 1.688-1.674l0.074-18.851c0.003-0.925-0.751-1.684-1.676-1.688zM20.985 4.191h2.354c0.549 0 0.999 0.45 0.999 0.999s-0.45 0.999-0.999 0.999h-2.354c-0.549 0-0.999-0.45-0.999-0.999s0.45-0.999 0.999-0.999zM6.371 11.373c-0.673 0-1.219-0.545-1.219-1.219s0.545-1.219 1.219-1.219c0.673 0 1.219 0.545 1.219 1.219s-0.546 1.219-1.219 1.219zM22.277 25.235c-4.072 0-7.373-3.301-7.373-7.373s3.301-7.373 7.373-7.373 7.373 3.301 7.373 7.373c0 4.073-3.301 7.373-7.373 7.373z"></path>
<path d="M22.301 11.787c-3.367-0.014-6.106 2.704-6.12 6.071s2.704 6.106 6.071 6.12c3.367 0.014 6.106-2.704 6.12-6.071s-2.704-6.108-6.071-6.12zM27.057 15.957l0.391 0.621c0.342 0.96 0.361 1.185 0.286 1.938-0.126 1.261-1.093 2.325-1.093 2.325 1.708-2.442 0.416-4.883 0.416-4.883z"></path>
</symbol>
<symbol id="icon-CS-Icon3" viewBox="0 0 47 32">
<title>CS-Icon3</title>
<path d="M24.947 23.763c-0.032-0.013-0.064-0.024-0.096-0.037-8.653-0.637-14.745 3.186-14.745 3.186l-6.426-13.389c-0.001 0.001-0.003 0.003-0.004 0.004l-0.274 0.278 4.075 8.629 2.481 5.168c0 0 5.354-3.985 14.094-3.865 0 0 0 0 0 0 0.295-0.006 0.597-0.006 0.895 0.027z"></path>
<path d="M24.922 23.748l0.024 0.015c-0.004-0.013-0.014-0.014-0.024-0.015z"></path>
<path d="M25.093 23.617l-8.046-14.804-0.309-0.199 8.208 15.15 0.189-0.067c-0.103 0.041-0.189 0.067-0.189 0.067-0.302-0.014-0.601-0.022-0.895-0.026 0.085 0.439 0.472 0.439 0.472 0.439 0.377-0.087 1.192-0.223 1.192-0.223 0.451-0.163 0.167-0.653 0.167-0.653 6.243-2.918 10.882-1.491 10.882-1.491l-0.404-0.511-0.184-0.12c-6.553-1.446-10.319 1.708-11.084 2.437z"></path>
<path d="M4.844 10.033l0.059 0.135 0.666 1.528 8.975-2.229c-4.008-0.673-7.75 1.101-7.75 1.101s3.895-2.255 8.050-1.176l1.895-0.471 8.075 14.597-8.075-14.905c-1.329-0.552-2.597-0.824-3.77-0.913-2.117-0.121-4.965 0.297-8.125 2.333z"></path>
<path d="M28.469 8.873c-4.751-1.079-8.102 1.102-8.817 1.624l1.143 0.74c1.165-0.844 4.129-2.481 8.409-1.286-4.080-0.926-7.125 0.55-8.359 1.318l1.442 0.932c1.474-0.83 4.099-1.753 7.608-0.774-3.33-0.756-5.972 0.090-7.501 0.842l1.416 0.914c1.541-0.697 3.895-1.251 6.895-0.414-2.837-0.644-5.174-0.126-6.75 0.508l1.649 1.066c1.491-0.477 3.484-0.705 5.898-0.031-2.269-0.516-4.217-0.286-5.713 0.15l1.534 0.992c1.358-0.289 3.035-0.333 4.985 0.211-1.823-0.414-3.439-0.347-4.781-0.078l1.65 1.066c1.104-0.090 2.367-0.003 3.771 0.39-1.3-0.296-2.494-0.345-3.559-0.252l1.687 1.091c0.804 0.028 1.673 0.152 2.608 0.413-0.855-0.194-1.666-0.282-2.423-0.293l2.068 1.338c0.198 0.036 0.4 0.080 0.605 0.129l0.5-1.007 0.665-0.565-6.961-11.576c0 0-2.455-0.421-5.147-0.27-2.208 0.162-4.624 0.76-6.141 2.399 0 0 0 0.001-0.001 0.001-0.039 0.053-0.076 0.107-0.111 0.162 0 0-0.001 0-0.001 0-0.005-0.003-0.076-0.041-0.208-0.1 0.136 0.062 0.208 0.1 0.208 0.1l2.902 1.875c0.662-0.572 3.859-3.003 8.828-1.615zM27.829 7.469c-5.375-1.221-8.961 1.734-8.961 1.734s3.352-3.3 8.961-1.734z"></path>
<path d="M34.777 18.844l0.592-0.503-0.024-0.040-0.597 0.507z"></path>
<path d="M34.044 19.495c0.109 0.027 0.22 0.055 0.332 0.087-0.123-0.028-0.246-0.051-0.367-0.076v0c-0.028-0.005-0.057-0.013-0.085-0.018-0.165-0.031-0.328-0.058-0.489-0.081l2.742 1.774c0.345 0.076 0.697 0.165 1.057 0.268l-1.648-2.74-0.536 0.457-1.007 0.329z"></path>
<path d="M33.967 19.403l-0.032 0.064c0.036 0.009 0.072 0.017 0.108 0.026l-0.076-0.090z"></path>
<path d="M24.85 23.726c0.013 0.001 0.026 0.001 0.039 0.003l-4.65-2.768c-4.036-0.709-7.826 1.088-7.826 1.088s3.531-2.045 7.456-1.309l-2.714-1.615c-3.068 0.082-5.528 1.249-5.528 1.249s2.264-1.311 5.182-1.456l-1.915-1.14c-2.338 0.319-4.041 1.127-4.041 1.127s1.561-0.904 3.761-1.294l-1.74-1.035c-1.718 0.372-2.878 0.921-2.878 0.921s1.061-0.613 2.665-1.048l-1.75-1.042c-1.052 0.311-1.704 0.621-1.704 0.621s0.595-0.345 1.57-0.701l-1.597-0.95c-0.374 0.143-0.584 0.243-0.584 0.243s0.192-0.111 0.535-0.271l-3.245-1.931 5.478 12.559c-0.001 0.001 6.774-3.874 13.488-1.25z"></path>
<path d="M24.922 23.748l-0.033-0.019c0.004 0.019 0.019 0.018 0.033 0.019z"></path>
<path d="M16.803 8.521c0.026-0.036 0.049-0.069 0.049-0.069l-0.049 0.069z"></path>
<path d="M16.851 8.451v0c-0.009 0.012-0.077 0.112-0.103 0.148l0.103-0.148z"></path>
<path d="M3.676 13.527l0.004-0.004c0.377-0.341 1.095-0.855 2.205-1.106l-0.102-0.197c-0.001 0-1.267 0.181-2.197 1.105l0.090 0.188-0.278 0.282 0.005 0.010 0.001-0.001c0.045-0.055 0.136-0.154 0.271-0.277z"></path>
<path d="M16.458 9.988c-0.538-0.262-1.078-0.457-1.614-0.595l-0.3 0.075c0.637 0.105 1.278 0.274 1.914 0.521z"></path>
<path d="M7.278 11.682c0 0 5.025-2.382 9.664-0.58-4.7-2.295-9.664 0.58-9.664 0.58z"></path>
<path d="M17.579 12.571c-4.7-2.295-9.664 0.58-9.664 0.58s5.025-2.382 9.664-0.58z"></path>
<path d="M18.257 14.040c-3.776-1.844-7.723-0.35-9.129 0.309l0.049 0.030c1.456-0.557 5.389-1.771 9.080-0.338z"></path>
<path d="M18.868 15.448c-3.071-1.5-6.256-0.791-8.094-0.121l0.134 0.080c1.868-0.552 4.993-1.111 7.96 0.041z"></path>
<path d="M19.658 16.917c-2.529-1.235-5.132-0.972-6.999-0.468l0.213 0.127c1.86-0.401 4.374-0.595 6.786 0.341z"></path>
<path d="M20.516 18.325c-2.064-1.008-4.18-1.019-5.904-0.714l0.28 0.167c1.678-0.229 3.685-0.207 5.623 0.547z"></path>
<path d="M21.29 19.794c-1.527-0.745-3.080-0.945-4.482-0.876l0.347 0.206c1.314-0.035 2.742 0.129 4.135 0.67z"></path>
<path d="M22.076 21.469c-0.736-0.36-1.479-0.592-2.208-0.729l0.37 0.221c0.612 0.107 1.228 0.271 1.838 0.508z"></path>
<path d="M19.509 10.607c0 0 0.050-0.041 0.144-0.109l-0.013-0.009c-0.086 0.073-0.131 0.118-0.131 0.118z"></path>
<path d="M20.244 11.685c0 0 0.211-0.172 0.602-0.415l-0.050-0.032c-0.361 0.261-0.552 0.448-0.552 0.448z"></path>
<path d="M20.935 13.16c0 0 0.521-0.428 1.46-0.891l-0.107-0.069c-0.884 0.498-1.353 0.961-1.353 0.961z"></path>
<path d="M21.745 14.504c0 0 0.8-0.659 2.211-1.226l-0.145-0.094c-1.34 0.606-2.066 1.32-2.066 1.32z"></path>
<path d="M22.541 16.046c0 0 1.199-0.985 3.248-1.583l-0.185-0.12c-1.973 0.633-3.062 1.703-3.062 1.703z"></path>
<path d="M23.349 17.401c0 0 1.567-1.29 4.18-1.812l-0.204-0.132c-2.549 0.541-3.976 1.945-3.976 1.945z"></path>
<path d="M23.988 18.778c0 0 2.063-1.696 5.402-1.986l-0.212-0.136c-3.305 0.268-5.19 2.122-5.19 2.122z"></path>
<path d="M24.724 20.030c0 0 2.535-2.087 6.538-2.027l-0.185-0.12c-4.022-0.144-6.352 2.147-6.352 2.147z"></path>
<path d="M25.415 21.314c0 0 3.172-2.612 8.019-1.909l-0.104-0.068c-4.977-0.914-7.915 1.977-7.915 1.977z"></path>
<path d="M16.74 8.612v0z"></path>
<path d="M16.853 8.449c-0.001 0.001-0.003 0.003-0.003 0.003v0c0.001-0.001 0.003-0.003 0.003-0.003z"></path>
<path d="M16.74 8.612l0.001-0.003 0.003-0.003 0.059-0.086c-0.030 0.042-0.060 0.086-0.063 0.091 0 0 0.001-0.001 0.001-0.001l-0.001 0.001z"></path>
<path d="M16.741 8.61c0.001-0.001 0.004-0.005 0.008-0.010l-0.005 0.008-0.003 0.003z"></path>
<path d="M16.74 8.612v0-0.001z"></path>
<path d="M44.080 10.263l0.209-0.177 0.606 0.712-0.209 0.177-0.606-0.712z"></path>
<path d="M44.322 10.729l-8.953 7.612 0.22 0.367 9.006-7.658z"></path>
<path d="M34.009 19.506v0l0.035-0.012z"></path>
<path d="M44.292 10.693l-0.304-0.356-8.889 7.558 0.244 0.406z"></path>
</symbol>
<symbol id="icon-CS-Icon4" viewBox="0 0 28 32">
<title>CS-Icon4</title>
<path d="M13.417 11.852c-0.076-0.164-0.11-0.266-0.112-0.269 0.007 0.027 0.041 0.125 0.112 0.269z"></path>
<path d="M23.152 7.066c-2.007-2.078-5.315-2.134-7.393-0.127-1.541 1.489-1.968 3.694-1.267 5.582-0.076-0.195-0.127-0.366-0.164-0.496 0.154 0.601 0.649 2.024 2.088 2.974 0.022 0.015 0.044 0.029 0.068 0.044 0.037 0.024 0.076 0.046 0.115 0.071 0.449 0.286 0.935 0.496 1.436 0.63 0.032 0.010 0.061 0.020 0.093 0.029l0.005-0.005c1.687 0.418 3.545-0.012 4.888-1.309 2.080-2.007 2.136-5.318 0.132-7.393zM19.562 7.134c0.049 0.051 0.049 0.132-0.002 0.181s-0.132 0.049-0.181-0.002c-0.049-0.051-0.049-0.132 0.002-0.181 0.049-0.049 0.132-0.046 0.181 0.002zM17.116 9.593c-0.039 0.037-0.1 0.037-0.137-0.002s-0.037-0.1 0.002-0.137c0.039-0.037 0.1-0.037 0.137 0.002s0.034 0.1-0.002 0.137zM18.193 8.419c-0.037-0.039-0.037-0.1 0.002-0.137s0.1-0.037 0.137 0.002c0.037 0.039 0.037 0.1-0.002 0.137s-0.1 0.034-0.137-0.002zM16.029 10.548c0.049 0.051 0.049 0.132-0.002 0.181s-0.132 0.049-0.181-0.002c-0.049-0.051-0.049-0.132 0.002-0.181 0.049-0.049 0.129-0.049 0.181 0.002zM17.848 8.617c0.037 0.039 0.037 0.1-0.002 0.137s-0.1 0.037-0.137-0.002c-0.037-0.039-0.037-0.1 0.002-0.137s0.1-0.037 0.137 0.002zM19.572 6.097c0.063 0.066 0.061 0.171-0.005 0.232-0.066 0.063-0.171 0.061-0.232-0.005s-0.061-0.171 0.005-0.232c0.063-0.061 0.168-0.061 0.232 0.005zM17.829 7.73c-0.049-0.051-0.049-0.132 0.002-0.181s0.132-0.049 0.181 0.002c0.049 0.051 0.049 0.132-0.002 0.181-0.049 0.049-0.129 0.049-0.181-0.002zM16.388 9.3c-0.051 0.049-0.132 0.049-0.181-0.002s-0.049-0.132 0.002-0.181c0.051-0.049 0.132-0.049 0.181 0.002 0.051 0.049 0.049 0.132-0.002 0.181zM17.37 7.994c0.049 0.051 0.049 0.132-0.002 0.181s-0.132 0.049-0.181-0.002c-0.049-0.051-0.049-0.132 0.002-0.181s0.132-0.046 0.181 0.002zM16.757 7.203c0.063 0.066 0.061 0.171-0.005 0.232-0.066 0.063-0.171 0.061-0.232-0.005s-0.061-0.171 0.005-0.232c0.063-0.063 0.168-0.061 0.232 0.005zM15.81 7.886c0.066-0.063 0.171-0.061 0.232 0.005 0.063 0.066 0.061 0.171-0.005 0.232-0.066 0.063-0.171 0.061-0.232-0.005-0.061-0.063-0.059-0.168 0.005-0.232zM15.263 8.875c-0.063-0.066-0.061-0.171 0.005-0.232s0.171-0.061 0.232 0.005c0.063 0.066 0.061 0.171-0.005 0.232s-0.168 0.059-0.232-0.005zM17.345 6.861c-0.063-0.066-0.061-0.171 0.005-0.232 0.066-0.063 0.171-0.061 0.232 0.005s0.061 0.171-0.005 0.232c-0.063 0.063-0.168 0.061-0.232-0.005zM14.909 9.776c-0.063-0.066-0.061-0.171 0.005-0.232 0.066-0.063 0.171-0.061 0.232 0.005 0.063 0.066 0.061 0.171-0.005 0.232-0.063 0.063-0.168 0.061-0.232-0.005zM18.332 6.47c-0.063-0.066-0.061-0.171 0.005-0.232 0.066-0.063 0.171-0.061 0.232 0.005s0.061 0.171-0.005 0.232c-0.063 0.063-0.168 0.061-0.232-0.005zM16.635 8.526c0.051-0.049 0.132-0.049 0.181 0.002s0.049 0.132-0.002 0.181c-0.051 0.049-0.132 0.049-0.181-0.002-0.049-0.049-0.049-0.129 0.002-0.181zM14.794 10.714c-0.063-0.066-0.061-0.171 0.005-0.232 0.066-0.063 0.171-0.061 0.232 0.005 0.063 0.066 0.061 0.171-0.005 0.232-0.063 0.061-0.168 0.059-0.232-0.005zM15.934 9.998c-0.049-0.051-0.049-0.132 0.002-0.181s0.132-0.049 0.181 0.002c0.049 0.051 0.049 0.132-0.002 0.181s-0.132 0.049-0.181-0.002zM18.598 7.425c-0.049-0.051-0.049-0.132 0.002-0.181s0.132-0.049 0.181 0.002c0.049 0.051 0.049 0.132-0.002 0.181-0.051 0.051-0.132 0.049-0.181-0.002zM17.299 9.014c0.039-0.037 0.1-0.037 0.137 0.002s0.037 0.1-0.002 0.137c-0.039 0.037-0.1 0.037-0.137-0.002s-0.037-0.1 0.002-0.137zM14.765 11.737c-0.063-0.066-0.061-0.171 0.005-0.232 0.066-0.063 0.171-0.061 0.232 0.005 0.063 0.066 0.061 0.171-0.005 0.232s-0.168 0.061-0.232-0.005zM16.774 10.116c-0.037-0.039-0.037-0.1 0.002-0.137s0.1-0.037 0.137 0.002c0.037 0.039 0.037 0.1-0.002 0.137s-0.1 0.037-0.137-0.002zM18.766 8.189c-0.037-0.039-0.037-0.1 0.002-0.137s0.1-0.037 0.137 0.002c0.037 0.039 0.037 0.1-0.002 0.137-0.039 0.039-0.1 0.037-0.137-0.002zM20.473 6.451c-0.063-0.066-0.061-0.171 0.005-0.232 0.066-0.063 0.171-0.061 0.232 0.005s0.061 0.171-0.005 0.232c-0.066 0.063-0.168 0.061-0.232-0.005zM23.33 12.999c0.063 0.066 0.061 0.171-0.005 0.232-0.066 0.063-0.171 0.061-0.232-0.005-0.063-0.066-0.061-0.171 0.005-0.232s0.168-0.061 0.232 0.005zM23.779 12.108c0.063 0.066 0.061 0.171-0.005 0.232s-0.171 0.061-0.232-0.005c-0.063-0.066-0.061-0.171 0.005-0.232s0.168-0.061 0.232 0.005zM22.045 13.29c-0.051 0.049-0.132 0.049-0.181-0.002s-0.049-0.132 0.002-0.181c0.051-0.049 0.132-0.049 0.181 0.002 0.049 0.049 0.049 0.129-0.002 0.181zM22.304 12.504c0.051-0.049 0.132-0.049 0.181 0.002s0.049 0.132-0.002 0.181c-0.051 0.049-0.132 0.049-0.181-0.002s-0.049-0.132 0.002-0.181zM23.948 11.097c0.063 0.066 0.061 0.171-0.005 0.232-0.066 0.063-0.171 0.061-0.232-0.005-0.063-0.066-0.061-0.171 0.005-0.232 0.063-0.063 0.168-0.061 0.232 0.005zM22.834 11.813c0.049 0.051 0.049 0.132-0.002 0.181s-0.132 0.049-0.181-0.002c-0.049-0.051-0.049-0.132 0.002-0.181s0.132-0.049 0.181 0.002zM23.95 10.157c0.063 0.066 0.061 0.171-0.005 0.232-0.066 0.063-0.171 0.061-0.232-0.005-0.063-0.066-0.061-0.171 0.005-0.232 0.066-0.063 0.168-0.061 0.232 0.005zM22.966 11.026c0.049 0.051 0.049 0.132-0.002 0.181s-0.132 0.049-0.181-0.002c-0.049-0.051-0.049-0.132 0.002-0.181 0.051-0.051 0.132-0.049 0.181 0.002zM21.677 11.991c0.037 0.039 0.037 0.1-0.002 0.137s-0.1 0.037-0.137-0.002c-0.037-0.039-0.037-0.1 0.002-0.137s0.1-0.034 0.137 0.002zM21.936 11.607c-0.039 0.037-0.1 0.037-0.137-0.002s-0.037-0.1 0.002-0.137c0.039-0.037 0.1-0.037 0.137 0.002s0.037 0.1-0.002 0.137zM20.312 13.177c-0.039 0.037-0.1 0.037-0.137-0.002s-0.037-0.1 0.002-0.137c0.039-0.037 0.1-0.037 0.137 0.002s0.034 0.1-0.002 0.137zM22.966 10.475c-0.051 0.049-0.132 0.049-0.181-0.002s-0.049-0.132 0.002-0.181c0.051-0.049 0.132-0.049 0.181 0.002s0.049 0.132-0.002 0.181zM19.575 12.499c-0.027-0.027-0.024-0.071 0.002-0.098s0.071-0.024 0.098 0.002c0.027 0.027 0.024 0.071-0.002 0.098-0.027 0.024-0.071 0.024-0.098-0.002zM18.708 13.346c-0.039 0.037-0.1 0.037-0.137-0.002s-0.037-0.1 0.002-0.137c0.039-0.037 0.1-0.037 0.137 0.002s0.034 0.1-0.002 0.137zM21.901 10.333c0.039-0.037 0.1-0.037 0.137 0.002s0.037 0.1-0.002 0.137c-0.039 0.037-0.1 0.037-0.137-0.002s-0.034-0.1 0.002-0.137zM21.22 11.166c0.027 0.027 0.024 0.071-0.002 0.098s-0.071 0.024-0.098-0.002c-0.027-0.027-0.024-0.071 0.002-0.098 0.029-0.027 0.073-0.024 0.098 0.002zM20.705 11.854c0.027-0.027 0.071-0.024 0.098 0.002s0.024 0.071-0.002 0.098c-0.027 0.027-0.071 0.024-0.098-0.002-0.024-0.029-0.024-0.073 0.002-0.098zM20.432 12.213c-0.027 0.027-0.071 0.024-0.098-0.002s-0.024-0.071 0.002-0.098c0.027-0.027 0.071-0.024 0.098 0.002 0.024 0.029 0.024 0.071-0.002 0.098zM21.901 10.882c0.039-0.037 0.1-0.037 0.137 0.002s0.037 0.1-0.002 0.137c-0.039 0.037-0.1 0.037-0.137-0.002s-0.037-0.1 0.002-0.137zM23.803 9.188c0.063 0.066 0.061 0.171-0.005 0.232-0.066 0.063-0.171 0.061-0.232-0.005-0.063-0.066-0.061-0.171 0.005-0.232s0.168-0.059 0.232 0.005zM21.035 11.632c-0.027 0.027-0.071 0.024-0.098-0.002s-0.024-0.071 0.002-0.098c0.027-0.027 0.071-0.024 0.098 0.002 0.024 0.027 0.024 0.071-0.002 0.098zM22.854 9.542c0.049 0.051 0.049 0.132-0.002 0.181s-0.132 0.049-0.181-0.002c-0.049-0.051-0.049-0.132 0.002-0.181 0.051-0.051 0.132-0.049 0.181 0.002zM21.291 10.746c0.027 0.027 0.024 0.071-0.002 0.098s-0.071 0.024-0.098-0.002c-0.027-0.027-0.024-0.071 0.002-0.098 0.029-0.024 0.071-0.024 0.098 0.002zM19.306 12.56c-0.027 0.027-0.071 0.024-0.098-0.002s-0.024-0.071 0.002-0.098c0.027-0.027 0.071-0.024 0.098 0.002s0.024 0.071-0.002 0.098zM20.429 11.105c0.017 0.017 0.015 0.044 0 0.059-0.017 0.017-0.044 0.015-0.059 0-0.017-0.017-0.015-0.044 0-0.059 0.017-0.017 0.044-0.015 0.059 0zM20.485 10.936c-0.017-0.017-0.015-0.044 0-0.059 0.017-0.017 0.044-0.015 0.059 0 0.017 0.017 0.015 0.044 0 0.059-0.017 0.017-0.044 0.017-0.059 0zM20.285 11.302c0.017 0.017 0.015 0.044 0 0.059-0.017 0.017-0.044 0.015-0.059 0-0.017-0.017-0.015-0.044 0-0.059 0.017-0.017 0.044-0.015 0.059 0zM21.193 10.45c-0.027-0.027-0.024-0.071 0.002-0.098s0.071-0.024 0.098 0.002c0.027 0.027 0.024 0.071-0.002 0.098s-0.071 0.024-0.098-0.002zM21.95 9.908c-0.039 0.037-0.1 0.037-0.137-0.002s-0.037-0.1 0.002-0.137c0.039-0.037 0.1-0.037 0.137 0.002s0.037 0.1-0.002 0.137zM23.388 8.189c0.063 0.066 0.061 0.171-0.005 0.232-0.066 0.063-0.171 0.061-0.232-0.005-0.063-0.066-0.061-0.171 0.005-0.232 0.066-0.063 0.168-0.061 0.232 0.005zM22.531 8.763c0.049 0.051 0.049 0.132-0.002 0.181s-0.132 0.049-0.181-0.002c-0.049-0.051-0.049-0.132 0.002-0.181 0.051-0.051 0.132-0.049 0.181 0.002zM20.143 10.824c-0.012-0.012-0.010-0.029 0-0.041 0.012-0.012 0.029-0.010 0.041 0 0.012 0.012 0.010 0.029 0 0.041-0.012 0.010-0.032 0.010-0.041 0zM19.694 11.297c-0.012 0.012-0.029 0.010-0.041 0-0.012-0.012-0.010-0.029 0-0.041 0.012-0.012 0.029-0.010 0.041 0s0.012 0.029 0 0.041zM19.85 11.227c-0.012 0.012-0.029 0.010-0.041 0-0.012-0.012-0.010-0.029 0-0.041 0.012-0.012 0.029-0.010 0.041 0 0.012 0.012 0.012 0.029 0 0.041zM19.965 11.073c0.012-0.012 0.029-0.010 0.041 0 0.012 0.012 0.010 0.029 0 0.041-0.012 0.012-0.029 0.010-0.041 0-0.010-0.012-0.010-0.029 0-0.041zM19.365 11.678c0.017 0.017 0.015 0.044 0 0.059-0.017 0.017-0.044 0.015-0.059 0-0.017-0.017-0.015-0.044 0-0.059 0.015-0.017 0.041-0.017 0.059 0zM21.135 9.952c0.027-0.027 0.071-0.024 0.098 0.002s0.024 0.071-0.002 0.098c-0.027 0.027-0.071 0.024-0.098-0.002-0.024-0.027-0.024-0.071 0.002-0.098zM20.588 10.619c0.017 0.017 0.015 0.044 0 0.059-0.017 0.017-0.044 0.015-0.059 0-0.017-0.017-0.015-0.044 0-0.059 0.017-0.017 0.044-0.017 0.059 0zM19.589 11.642c0.017 0.017 0.015 0.044 0 0.059s-0.044 0.015-0.059 0c-0.017-0.017-0.015-0.044 0-0.059 0.015-0.017 0.041-0.017 0.059 0zM20.107 10.938c0.012 0.012 0.010 0.029 0 0.041-0.012 0.012-0.029 0.010-0.041 0-0.012-0.012-0.010-0.029 0-0.041 0.012-0.012 0.029-0.012 0.041 0zM20.588 10.438c-0.017 0.017-0.044 0.015-0.059 0-0.017-0.017-0.015-0.044 0-0.059 0.017-0.017 0.044-0.015 0.059 0 0.017 0.015 0.017 0.041 0 0.059zM19.374 11.332c0.012 0.012 0.010 0.029 0 0.041-0.012 0.012-0.029 0.010-0.041 0-0.012-0.012-0.010-0.029 0-0.041 0.012-0.012 0.032-0.012 0.041 0zM20.173 10.479c-0.012-0.012-0.010-0.029 0-0.041 0.012-0.012 0.029-0.010 0.041 0s0.010 0.029 0 0.041c-0.012 0.012-0.029 0.012-0.041 0zM20.173 10.646c-0.012-0.012-0.010-0.029 0-0.041 0.012-0.012 0.029-0.010 0.041 0 0.012 0.012 0.010 0.029 0 0.041-0.012 0.012-0.032 0.012-0.041 0zM19.528 11.346c-0.012 0.012-0.029 0.010-0.041 0-0.012-0.012-0.010-0.029 0-0.041 0.012-0.012 0.029-0.010 0.041 0 0.012 0.012 0.012 0.032 0 0.041zM19.125 11.642c0.017 0.017 0.015 0.044 0 0.059-0.017 0.017-0.044 0.015-0.059 0-0.017-0.017-0.015-0.044 0-0.059 0.015-0.017 0.041-0.017 0.059 0zM18.505 12.267c0.027 0.027 0.024 0.071-0.002 0.098s-0.071 0.024-0.098-0.002c-0.027-0.027-0.024-0.071 0.002-0.098 0.029-0.027 0.071-0.027 0.098 0.002zM21.711 9.19c0.037 0.039 0.037 0.1-0.002 0.137s-0.1 0.037-0.137-0.002c-0.037-0.039-0.037-0.1 0.002-0.137s0.1-0.034 0.137 0.002zM20.551 10.189c-0.017 0.017-0.044 0.015-0.059 0-0.017-0.017-0.015-0.044 0-0.059 0.017-0.017 0.044-0.015 0.059 0 0.017 0.017 0.017 0.044 0 0.059zM21.059 9.539c0.027 0.027 0.024 0.071-0.002 0.098s-0.071 0.024-0.098-0.002c-0.027-0.027-0.024-0.071 0.002-0.098 0.029-0.024 0.073-0.024 0.098 0.002zM18.869 11.556c0.017 0.017 0.015 0.044 0 0.059-0.017 0.017-0.044 0.015-0.059 0-0.017-0.017-0.015-0.044 0-0.059 0.015-0.017 0.041-0.017 0.059 0zM19.46 10.931c0.007-0.005 0.017-0.005 0.022 0s0.005 0.017 0 0.022c-0.007 0.005-0.017 0.005-0.022 0-0.005-0.007-0.005-0.017 0-0.022zM19.721 10.804c0.007-0.005 0.017-0.005 0.022 0 0.005 0.007 0.005 0.017 0 0.022-0.007 0.005-0.017 0.005-0.022 0-0.007-0.005-0.007-0.015 0-0.022zM19.658 10.887c-0.007 0.005-0.017 0.005-0.022 0s-0.005-0.017 0-0.022c0.007-0.005 0.017-0.005 0.022 0s0.005 0.017 0 0.022zM19.775 10.753c-0.005-0.007-0.005-0.017 0-0.022 0.007-0.005 0.017-0.005 0.022 0 0.005 0.007 0.005 0.017 0 0.022-0.007 0.007-0.017 0.007-0.022 0zM19.816 10.667c-0.005-0.007-0.005-0.017 0-0.022 0.007-0.005 0.017-0.005 0.022 0s0.005 0.017 0 0.022-0.015 0.007-0.022 0zM19.572 10.904c0.005 0.007 0.005 0.017 0 0.022-0.007 0.005-0.017 0.005-0.022 0-0.005-0.007-0.005-0.017 0-0.022 0.007-0.007 0.017-0.007 0.022 0zM19.169 11.305c0.012-0.012 0.029-0.010 0.041 0 0.012 0.012 0.010 0.029 0 0.041-0.012 0.012-0.029 0.010-0.041 0-0.010-0.012-0.010-0.029 0-0.041zM20.19 10.27c0.012 0.012 0.010 0.029 0 0.041-0.012 0.012-0.029 0.010-0.041 0-0.012-0.012-0.010-0.029 0-0.041 0.012-0.012 0.029-0.010 0.041 0zM19.855 10.55c0.005 0.007 0.005 0.017 0 0.022-0.007 0.005-0.017 0.005-0.022 0-0.005-0.007-0.005-0.017 0-0.022 0.005-0.007 0.015-0.007 0.022 0zM19.399 10.968c-0.007 0.005-0.017 0.005-0.022 0-0.005-0.007-0.005-0.017 0-0.022 0.007-0.005 0.017-0.005 0.022 0s0.005 0.015 0 0.022zM19.035 11.249c0.012 0.012 0.010 0.029 0 0.041-0.012 0.012-0.029 0.010-0.041 0-0.012-0.012-0.010-0.029 0-0.041 0.012-0.012 0.029-0.012 0.041 0zM19.286 10.953c-0.005-0.007-0.005-0.017 0-0.022 0.007-0.005 0.017-0.005 0.022 0 0.005 0.007 0.005 0.017 0 0.022-0.005 0.007-0.015 0.005-0.022 0zM19.833 10.46c0.007-0.005 0.017-0.005 0.022 0 0.005 0.007 0.005 0.017 0 0.022-0.007 0.005-0.017 0.005-0.022 0-0.007-0.005-0.007-0.017 0-0.022zM20.446 9.874c0.017 0.017 0.015 0.044 0 0.059-0.017 0.017-0.044 0.015-0.059 0-0.017-0.017-0.015-0.044 0-0.059 0.015-0.017 0.041-0.017 0.059 0zM20.117 10.094c0.012 0.012 0.010 0.029 0 0.041-0.012 0.012-0.029 0.010-0.041 0-0.012-0.012-0.010-0.029 0-0.041 0.012-0.012 0.029-0.010 0.041 0zM19.841 10.389c-0.007 0.005-0.017 0.005-0.022 0-0.005-0.007-0.005-0.017 0-0.022 0.007-0.005 0.017-0.005 0.022 0 0.007 0.007 0.007 0.017 0 0.022zM19.435 10.667c0.002 0.002 0.002 0.007 0 0.010s-0.007 0.002-0.010 0c-0.002-0.002-0.002-0.007 0-0.010s0.007-0.002 0.010 0zM19.582 10.509c0.002-0.002 0.007-0.002 0.010 0s0.002 0.007 0 0.010-0.007 0.002-0.010 0c-0.002-0.002-0.002-0.007 0-0.010zM19.213 10.899c0.005 0.007 0.005 0.017 0 0.022-0.007 0.005-0.017 0.005-0.022 0-0.005-0.007-0.005-0.017 0-0.022 0.007-0.007 0.017-0.005 0.022 0zM19.465 10.655c0.002-0.002 0.007-0.002 0.010 0s0.002 0.007 0 0.010c-0.002 0.002-0.007 0.002-0.010 0s-0.002-0.007 0-0.010zM19.499 10.641c0.002-0.002 0.007-0.002 0.010 0s0.002 0.007 0 0.010c-0.002 0.002-0.007 0.002-0.010 0s-0.002-0.007 0-0.010zM19.535 10.616c0.002-0.002 0.007-0.002 0.010 0s0.002 0.007 0 0.010-0.007 0.002-0.010 0c-0.002-0.005-0.002-0.007 0-0.010zM19.567 10.594c-0.002 0.002-0.007 0.002-0.010 0s-0.002-0.007 0-0.010 0.007-0.002 0.010 0c0.002 0.002 0.002 0.007 0 0.010zM19.584 10.558c-0.002 0.002-0.007 0.002-0.010 0s-0.002-0.007 0-0.010c0.002-0.002 0.007-0.002 0.010 0 0.002 0.005 0.002 0.007 0 0.010zM21.962 8.248c-0.051 0.049-0.132 0.049-0.181-0.002s-0.049-0.132 0.002-0.181 0.132-0.049 0.181 0.002c0.049 0.049 0.049 0.132-0.002 0.181zM19.592 10.472c0.002 0.002 0.002 0.007 0 0.010s-0.007 0.002-0.010 0c-0.002-0.002-0.002-0.007 0-0.010s0.007-0.002 0.010 0zM19.78 10.272c0.007-0.005 0.017-0.005 0.022 0s0.005 0.017 0 0.022c-0.007 0.005-0.017 0.005-0.022 0-0.007-0.005-0.007-0.015 0-0.022zM19.401 10.672c0.002 0.002 0.002 0.007 0 0.010s-0.007 0.002-0.010 0c-0.002-0.002-0.002-0.007 0-0.010s0.007-0.002 0.010 0zM21.149 8.802c-0.037-0.039-0.037-0.1 0.002-0.137s0.1-0.037 0.137 0.002c0.037 0.039 0.037 0.1-0.002 0.137s-0.1 0.037-0.137-0.002zM19.584 10.443c-0.002 0.002-0.007 0.002-0.010 0s-0.002-0.007 0-0.010c0.002-0.002 0.007-0.002 0.010 0s0.002 0.007 0 0.010zM19.235 10.526c0.002 0.002 0.002 0.007 0 0.010s-0.007 0.002-0.010 0c-0.002-0.002-0.002-0.007 0-0.010s0.007-0.002 0.010 0zM19.626 10.123c0.007-0.005 0.017-0.005 0.022 0 0.005 0.007 0.005 0.017 0 0.022-0.007 0.005-0.017 0.005-0.022 0s-0.007-0.017 0-0.022zM19.452 10.316c0.002-0.002 0.007-0.002 0.010 0s0.002 0.007 0 0.010-0.007 0.002-0.010 0c-0.002-0.005-0.002-0.007 0-0.010zM22.661 7.293c0.063 0.066 0.061 0.171-0.005 0.232-0.066 0.063-0.171 0.061-0.232-0.005-0.063-0.066-0.061-0.171 0.005-0.232 0.063-0.063 0.168-0.061 0.232 0.005zM19.24 10.448c0.002 0.002 0.002 0.007 0 0.010s-0.007 0.002-0.010 0c-0.002-0.002-0.002-0.007 0-0.010s0.007-0.002 0.010 0zM19.367 10.316c0.002-0.002 0.007-0.002 0.010 0s0.002 0.007 0 0.010-0.007 0.002-0.010 0c-0.002-0.002-0.002-0.007 0-0.010zM19.025 10.68c0.005 0.007 0.005 0.017 0 0.022-0.007 0.005-0.017 0.005-0.022 0s-0.005-0.017 0-0.022c0.005-0.005 0.015-0.005 0.022 0zM19.235 10.484c0.002 0.002 0.002 0.007 0 0.010s-0.007 0.002-0.010 0-0.002-0.007 0-0.010c0.005-0.002 0.007-0.002 0.010 0zM19.409 10.311c0.002-0.002 0.007-0.002 0.010 0s0.002 0.007 0 0.010c-0.002 0.002-0.007 0.002-0.010 0-0.005-0.005-0.002-0.007 0-0.010zM19.277 10.382c0.002 0.002 0.002 0.007 0 0.010s-0.007 0.002-0.010 0c-0.002-0.002-0.002-0.007 0-0.010s0.007-0.002 0.010 0zM19.296 10.355c0.002-0.002 0.007-0.002 0.010 0s0.002 0.007 0 0.010c-0.002 0.002-0.007 0.002-0.010 0-0.002-0.005-0.002-0.007 0-0.010zM19.255 10.411c0.002 0.002 0.002 0.007 0 0.010s-0.007 0.002-0.010 0c-0.002-0.002-0.002-0.007 0-0.010s0.007-0.002 0.010 0zM19.328 10.34c-0.002-0.002-0.002-0.007 0-0.010s0.007-0.002 0.010 0c0.002 0.002 0.002 0.007 0 0.010s-0.007 0.002-0.010 0zM19.833 9.818c0.012 0.012 0.010 0.029 0 0.041-0.012 0.012-0.029 0.010-0.041 0-0.012-0.012-0.010-0.029 0-0.041 0.012-0.012 0.029-0.012 0.041 0zM19.545 10.108c-0.007 0.005-0.017 0.005-0.022 0-0.005-0.007-0.005-0.017 0-0.022 0.007-0.005 0.017-0.005 0.022 0 0.007 0.005 0.007 0.015 0 0.022zM19.001 10.589c0.005 0.007 0.005 0.017 0 0.022-0.007 0.005-0.017 0.005-0.022 0-0.005-0.007-0.005-0.017 0-0.022 0.007-0.007 0.017-0.007 0.022 0zM18.686 10.887c-0.012 0.012-0.029 0.010-0.041 0-0.012-0.012-0.010-0.029 0-0.041 0.012-0.012 0.029-0.010 0.041 0 0.012 0.012 0.010 0.029 0 0.041zM19.003 10.492c0.005 0.007 0.005 0.017 0 0.022-0.007 0.005-0.017 0.005-0.022 0-0.005-0.007-0.005-0.017 0-0.022 0.007-0.007 0.017-0.007 0.022 0zM19.416 10.072c0.007-0.005 0.017-0.005 0.022 0s0.005 0.017 0 0.022c-0.007 0.005-0.017 0.005-0.022 0s-0.007-0.015 0-0.022zM17.275 12.277c0.037 0.039 0.037 0.1-0.002 0.137s-0.1 0.037-0.137-0.002c-0.037-0.039-0.037-0.1 0.002-0.137s0.1-0.034 0.137 0.002zM20.031 9.471c0.017 0.017 0.015 0.044 0 0.059-0.017 0.017-0.044 0.015-0.059 0-0.017-0.017-0.015-0.044 0-0.059 0.017-0.017 0.044-0.017 0.059 0zM19.225 10.145c-0.005-0.007-0.005-0.017 0-0.022 0.007-0.005 0.017-0.005 0.022 0 0.005 0.007 0.005 0.017 0 0.022-0.005 0.007-0.017 0.007-0.022 0zM19.050 10.338c-0.007 0.005-0.017 0.005-0.022 0-0.005-0.007-0.005-0.017 0-0.022 0.007-0.005 0.017-0.005 0.022 0 0.005 0.007 0.005 0.017 0 0.022zM19.169 10.201c-0.007 0.005-0.017 0.005-0.022 0-0.005-0.007-0.005-0.017 0-0.022 0.007-0.005 0.017-0.005 0.022 0s0.005 0.015 0 0.022zM19.101 10.245c0.005 0.007 0.005 0.017 0 0.022-0.007 0.005-0.017 0.005-0.022 0-0.005-0.007-0.005-0.017 0-0.022 0.007-0.007 0.017-0.007 0.022 0zM18.644 10.677c0.012 0.012 0.010 0.029 0 0.041-0.012 0.012-0.029 0.010-0.041 0-0.012-0.012-0.010-0.029 0-0.041 0.012-0.012 0.029-0.012 0.041 0zM18.359 10.97c0.017 0.017 0.015 0.044 0 0.059-0.017 0.017-0.044 0.015-0.059 0-0.017-0.017-0.015-0.044 0-0.059 0.015-0.020 0.041-0.017 0.059 0zM18.993 10.401c0.007-0.005 0.017-0.005 0.022 0 0.005 0.007 0.005 0.017 0 0.022-0.007 0.005-0.017 0.005-0.022 0-0.007-0.005-0.007-0.015 0-0.022zM19.321 10.108c-0.005-0.007-0.005-0.017 0-0.022 0.007-0.005 0.017-0.005 0.022 0s0.005 0.017 0 0.022c-0.007 0.007-0.017 0.007-0.022 0zM19.645 9.749c0.012 0.012 0.010 0.029 0 0.041-0.012 0.012-0.029 0.010-0.041 0-0.012-0.012-0.010-0.029 0-0.041 0.012-0.012 0.032-0.012 0.041 0zM20.39 8.888c0.027 0.027 0.024 0.071-0.002 0.098s-0.071 0.024-0.098-0.002c-0.027-0.027-0.024-0.071 0.002-0.098 0.029-0.027 0.071-0.027 0.098 0.002zM18.669 10.333c0.012 0.012 0.010 0.029 0 0.041-0.012 0.012-0.029 0.010-0.041 0-0.012-0.012-0.010-0.029 0-0.041 0.012-0.012 0.032-0.012 0.041 0zM19.23 9.752c0.012-0.012 0.029-0.010 0.041 0 0.012 0.012 0.010 0.029 0 0.041-0.012 0.012-0.029 0.010-0.041 0-0.012-0.012-0.012-0.029 0-0.041zM18.298 10.724c0.017 0.017 0.015 0.044 0 0.059-0.017 0.017-0.044 0.015-0.059 0-0.017-0.017-0.015-0.044 0-0.059 0.015-0.017 0.041-0.017 0.059 0zM19.699 9.369c0.017-0.017 0.044-0.015 0.059 0 0.017 0.017 0.015 0.044 0 0.059-0.017 0.017-0.044 0.015-0.059 0-0.017-0.015-0.017-0.041 0-0.059zM19.404 9.767c-0.012-0.012-0.010-0.029 0-0.041 0.012-0.012 0.029-0.010 0.041 0 0.012 0.012 0.010 0.029 0 0.041-0.012 0.012-0.029 0.012-0.041 0zM18.649 10.538c-0.012 0.012-0.029 0.010-0.041 0-0.012-0.012-0.010-0.029 0-0.041s0.029-0.010 0.041 0c0.012 0.012 0.010 0.029 0 0.041zM20.768 8.409c-0.039 0.037-0.1 0.037-0.137-0.002s-0.037-0.1 0.002-0.137c0.039-0.037 0.1-0.037 0.137 0.002s0.037 0.1-0.002 0.137zM18.305 10.462c0.017 0.017 0.015 0.044 0 0.059-0.017 0.017-0.044 0.015-0.059 0-0.017-0.017-0.015-0.044 0-0.059 0.017-0.020 0.041-0.017 0.059 0zM19.409 9.337c0.017-0.017 0.044-0.015 0.059 0 0.017 0.017 0.015 0.044 0 0.059-0.017 0.017-0.044 0.015-0.059 0-0.017-0.015-0.017-0.041 0-0.059zM18.786 10.042c0.012-0.012 0.029-0.010 0.041 0 0.012 0.012 0.010 0.029 0 0.041-0.012 0.012-0.029 0.010-0.041 0-0.012-0.012-0.012-0.032 0-0.041zM18.91 9.962c-0.012-0.012-0.010-0.029 0-0.041 0.012-0.012 0.029-0.010 0.041 0 0.012 0.012 0.010 0.029 0 0.041-0.012 0.012-0.029 0.012-0.041 0zM19.057 9.82c0.012-0.012 0.029-0.010 0.041 0 0.012 0.012 0.010 0.029 0 0.041-0.012 0.012-0.029 0.010-0.041 0-0.012-0.012-0.012-0.029 0-0.041zM21.276 7.537c0.049 0.051 0.049 0.132-0.002 0.181s-0.132 0.049-0.181-0.002c-0.049-0.051-0.049-0.132 0.002-0.181 0.049-0.051 0.132-0.049 0.181 0.002zM19.948 8.724c0.027 0.027 0.024 0.071-0.002 0.098s-0.071 0.024-0.098-0.002c-0.027-0.027-0.024-0.071 0.002-0.098 0.029-0.024 0.071-0.024 0.098 0.002zM18.747 9.681c-0.017 0.017-0.044 0.015-0.059 0-0.017-0.017-0.015-0.044 0-0.059 0.017-0.017 0.044-0.015 0.059 0 0.017 0.015 0.015 0.041 0 0.059zM18.898 9.474c0.017-0.017 0.044-0.015 0.059 0 0.017 0.017 0.015 0.044 0 0.059-0.017 0.017-0.044 0.015-0.059 0-0.017-0.015-0.017-0.041 0-0.059zM18.564 9.798c0.017 0.017 0.015 0.044 0 0.059-0.017 0.017-0.044 0.015-0.059 0-0.017-0.017-0.015-0.044 0-0.059 0.017-0.017 0.044-0.017 0.059 0zM18.425 9.991c0.017 0.017 0.015 0.044 0 0.059-0.017 0.017-0.044 0.015-0.059 0-0.017-0.017-0.015-0.044 0-0.059 0.017-0.017 0.044-0.017 0.059 0zM17.582 10.917c0.027 0.027 0.024 0.071-0.002 0.098s-0.071 0.024-0.098-0.002c-0.027-0.027-0.024-0.071 0.002-0.098s0.071-0.024 0.098 0.002zM18.276 10.221c0.017-0.017 0.044-0.015 0.059 0 0.017 0.017 0.015 0.044 0 0.059-0.017 0.017-0.044 0.015-0.059 0-0.017-0.015-0.017-0.041 0-0.059zM19.211 9.376c0.017 0.017 0.015 0.044 0 0.059-0.017 0.017-0.044 0.015-0.059 0-0.017-0.017-0.015-0.044 0-0.059 0.017-0.017 0.044-0.017 0.059 0zM21.774 6.614c0.063 0.066 0.061 0.171-0.005 0.232-0.066 0.063-0.171 0.061-0.232-0.005s-0.061-0.171 0.005-0.232c0.066-0.063 0.168-0.061 0.232 0.005zM20.151 8.045c0.037 0.039 0.037 0.1-0.002 0.137s-0.1 0.037-0.137-0.002c-0.037-0.039-0.037-0.1 0.002-0.137s0.1-0.034 0.137 0.002zM19.379 8.768c-0.027-0.027-0.024-0.071 0.002-0.098s0.071-0.024 0.098 0.002c0.027 0.027 0.024 0.071-0.002 0.098s-0.073 0.024-0.098-0.002zM17.592 10.587c-0.027 0.027-0.071 0.024-0.098-0.002s-0.024-0.071 0.002-0.098c0.027-0.027 0.071-0.024 0.098 0.002 0.027 0.029 0.024 0.073-0.002 0.098zM19.059 8.829c-0.027 0.027-0.071 0.024-0.098-0.002s-0.024-0.071 0.002-0.098c0.027-0.027 0.071-0.024 0.098 0.002s0.024 0.071-0.002 0.098zM17.641 10.199c-0.027 0.027-0.071 0.024-0.098-0.002s-0.024-0.071 0.002-0.098c0.027-0.027 0.071-0.024 0.098 0.002 0.024 0.029 0.024 0.073-0.002 0.098zM20.446 7.232c0.049 0.051 0.049 0.132-0.002 0.181s-0.132 0.049-0.181-0.002c-0.049-0.051-0.049-0.132 0.002-0.181s0.132-0.049 0.181 0.002zM18.014 9.415c0.027 0.027 0.024 0.071-0.002 0.098s-0.071 0.024-0.098-0.002c-0.027-0.027-0.024-0.071 0.002-0.098 0.027-0.024 0.071-0.024 0.098 0.002zM18.212 9.129c0.027-0.027 0.071-0.024 0.098 0.002s0.024 0.071-0.002 0.098c-0.027 0.027-0.071 0.024-0.098-0.002-0.024-0.029-0.024-0.071 0.002-0.098zM17.787 9.73c0.027 0.027 0.024 0.071-0.002 0.098s-0.071 0.024-0.098-0.002c-0.027-0.027-0.024-0.071 0.002-0.098 0.029-0.027 0.073-0.024 0.098 0.002zM18.554 8.99c-0.027-0.027-0.024-0.071 0.002-0.098s0.071-0.024 0.098 0.002c0.027 0.027 0.024 0.071-0.002 0.098-0.029 0.024-0.071 0.024-0.098-0.002zM19.489 7.974c0.037 0.039 0.037 0.1-0.002 0.137s-0.1 0.037-0.137-0.002c-0.037-0.039-0.037-0.1 0.002-0.137 0.039-0.039 0.1-0.037 0.137 0.002zM16.845 10.526c0.037 0.039 0.037 0.1-0.002 0.137s-0.1 0.037-0.137-0.002c-0.037-0.039-0.037-0.1 0.002-0.137s0.1-0.034 0.137 0.002zM15.819 11.522c-0.049-0.051-0.049-0.132 0.002-0.181s0.132-0.049 0.181 0.002c0.049 0.051 0.049 0.132-0.002 0.181-0.049 0.051-0.132 0.049-0.181-0.002zM15.004 12.696c-0.063-0.066-0.061-0.171 0.005-0.232 0.066-0.063 0.171-0.061 0.232 0.005 0.063 0.066 0.061 0.171-0.005 0.232s-0.168 0.061-0.232-0.005zM16.689 11.256c-0.037-0.039-0.037-0.1 0.002-0.137s0.1-0.037 0.137 0.002c0.037 0.039 0.037 0.1-0.002 0.137s-0.1 0.037-0.137-0.002zM16.007 12.269c-0.049-0.051-0.049-0.132 0.002-0.181s0.132-0.049 0.181 0.002c0.049 0.051 0.049 0.132-0.002 0.181-0.051 0.051-0.132 0.049-0.181-0.002zM16.828 11.815c-0.037-0.039-0.037-0.1 0.002-0.137s0.1-0.037 0.137 0.002c0.037 0.039 0.037 0.1-0.002 0.137s-0.1 0.037-0.137-0.002zM18.691 10.216c-0.012-0.012-0.010-0.029 0-0.041 0.012-0.012 0.029-0.010 0.041 0 0.012 0.012 0.010 0.029 0 0.041-0.012 0.010-0.032 0.010-0.041 0zM17.582 11.41c-0.027-0.027-0.024-0.071 0.002-0.098s0.071-0.024 0.098 0.002c0.027 0.027 0.024 0.071-0.002 0.098-0.027 0.024-0.071 0.024-0.098-0.002zM15.534 13.72c-0.063-0.066-0.061-0.171 0.005-0.232 0.066-0.063 0.171-0.061 0.232 0.005 0.063 0.066 0.061 0.171-0.005 0.232-0.066 0.063-0.168 0.061-0.232-0.005zM16.42 13.065c-0.049-0.051-0.049-0.132 0.002-0.181s0.132-0.049 0.181 0.002c0.049 0.051 0.049 0.132-0.002 0.181-0.051 0.051-0.132 0.049-0.181-0.002zM17.802 11.832c-0.027-0.027-0.024-0.071 0.002-0.098s0.071-0.024 0.098 0.002c0.027 0.027 0.024 0.071-0.002 0.098s-0.071 0.024-0.098-0.002zM18.434 11.29c-0.017-0.017-0.015-0.044 0-0.059 0.017-0.017 0.044-0.015 0.059 0 0.017 0.017 0.015 0.044 0 0.059-0.017 0.017-0.044 0.017-0.059 0zM18.737 11.065c-0.012-0.012-0.010-0.029 0-0.041 0.012-0.012 0.029-0.010 0.041 0 0.012 0.012 0.010 0.029 0 0.041-0.012 0.012-0.029 0.012-0.041 0zM20.2 9.644c0.017-0.017 0.044-0.015 0.059 0 0.017 0.017 0.015 0.044 0 0.059-0.017 0.017-0.044 0.015-0.059 0-0.017-0.017-0.017-0.044 0-0.059zM19.504 10.34c-0.002 0.002-0.007 0.002-0.010 0s-0.002-0.007 0-0.010 0.007-0.002 0.010 0c0.002 0.002 0.002 0.007 0 0.010zM19.245 10.572c-0.002 0.002-0.007 0.002-0.010 0s-0.002-0.007 0-0.010 0.007-0.002 0.010 0c0.002 0.002 0.002 0.007 0 0.010zM19.052 10.799c-0.005-0.007-0.005-0.017 0-0.022 0.007-0.005 0.017-0.005 0.022 0 0.005 0.007 0.005 0.017 0 0.022-0.005 0.007-0.015 0.007-0.022 0zM19.257 10.604c0.002-0.002 0.007-0.002 0.010 0s0.002 0.007 0 0.010c-0.002 0.002-0.007 0.002-0.010 0s-0.002-0.007 0-0.010zM19.531 10.367c-0.002-0.002-0.002-0.007 0-0.010s0.007-0.002 0.010 0c0.002 0.002 0.002 0.007 0 0.010s-0.007 0.002-0.010 0zM19.711 10.186c0.007-0.005 0.017-0.005 0.022 0 0.005 0.007 0.005 0.017 0 0.022-0.007 0.005-0.017 0.005-0.022 0s-0.007-0.015 0-0.022zM19.284 10.643c-0.002-0.002-0.002-0.007 0-0.010s0.007-0.002 0.010 0c0.002 0.002 0.002 0.007 0 0.010s-0.007 0.002-0.010 0zM19.946 9.976c-0.012-0.012-0.010-0.029 0-0.041 0.012-0.012 0.029-0.010 0.041 0 0.012 0.012 0.010 0.029 0 0.041-0.012 0.012-0.029 0.012-0.041 0zM20.659 9.264c-0.027-0.027-0.024-0.071 0.002-0.098s0.071-0.024 0.098 0.002c0.027 0.027 0.024 0.071-0.002 0.098-0.027 0.024-0.071 0.024-0.098-0.002zM19.56 10.401c-0.002-0.002-0.002-0.007 0-0.010s0.007-0.002 0.010 0c0.002 0.002 0.002 0.007 0 0.010-0.005 0.002-0.007 0.002-0.010 0zM19.323 10.655c0.002 0.002 0.002 0.007 0 0.010s-0.007 0.002-0.010 0c-0.002-0.002-0.002-0.007 0-0.010s0.007-0.002 0.010 0zM19.12 10.873c-0.005-0.007-0.005-0.017 0-0.022 0.007-0.005 0.017-0.005 0.022 0 0.005 0.007 0.005 0.017 0 0.022s-0.015 0.005-0.022 0zM19.355 10.667c0.002-0.002 0.007-0.002 0.010 0s0.002 0.007 0 0.010c-0.002 0.002-0.007 0.002-0.010 0s-0.002-0.007 0-0.010zM18.864 11.156c0.012-0.012 0.029-0.010 0.041 0 0.012 0.012 0.010 0.029 0 0.041-0.012 0.012-0.029 0.010-0.041 0-0.012-0.012-0.010-0.032 0-0.041zM18.617 11.481c-0.017-0.017-0.015-0.044 0-0.059 0.017-0.017 0.044-0.015 0.059 0 0.017 0.017 0.015 0.044 0 0.059-0.015 0.017-0.041 0.017-0.059 0zM18.102 12.047c0.027-0.027 0.071-0.024 0.098 0.002s0.024 0.071-0.002 0.098c-0.027 0.027-0.071 0.024-0.098-0.002-0.024-0.029-0.024-0.073 0.002-0.098zM17.56 12.711c0.039-0.037 0.1-0.037 0.137 0.002s0.037 0.1-0.002 0.137c-0.039 0.037-0.1 0.037-0.137-0.002s-0.037-0.1 0.002-0.137zM16.984 13.466c0.051-0.049 0.132-0.049 0.181 0.002s0.049 0.132-0.002 0.181c-0.051 0.049-0.132 0.049-0.181-0.002-0.051-0.049-0.049-0.129 0.002-0.181zM16.254 14.467c-0.063-0.066-0.061-0.171 0.005-0.232 0.066-0.063 0.171-0.061 0.232 0.005 0.063 0.066 0.061 0.171-0.005 0.232s-0.168 0.061-0.232-0.005zM17.985 13.151c-0.037-0.039-0.037-0.1 0.002-0.137s0.1-0.037 0.137 0.002c0.037 0.039 0.037 0.1-0.002 0.137-0.039 0.039-0.098 0.037-0.137-0.002zM18.823 12.496c-0.027-0.027-0.024-0.071 0.002-0.098s0.071-0.024 0.098 0.002c0.027 0.027 0.024 0.071-0.002 0.098s-0.071 0.024-0.098-0.002zM19.77 11.627c-0.017-0.017-0.015-0.044 0-0.059 0.017-0.017 0.044-0.015 0.059 0 0.017 0.017 0.015 0.044 0 0.059-0.015 0.017-0.041 0.015-0.059 0zM19.999 11.463c0.017-0.017 0.044-0.015 0.059 0 0.017 0.017 0.015 0.044 0 0.059-0.017 0.017-0.044 0.015-0.059 0-0.020-0.015-0.017-0.041 0-0.059zM17.553 14.056c-0.049-0.051-0.049-0.132 0.002-0.181s0.132-0.049 0.181 0.002c0.049 0.051 0.049 0.132-0.002 0.181-0.049 0.049-0.132 0.049-0.181-0.002zM16.991 14.992c-0.063-0.066-0.061-0.171 0.005-0.232 0.066-0.063 0.171-0.061 0.232 0.005 0.063 0.066 0.061 0.171-0.005 0.232-0.063 0.063-0.168 0.061-0.232-0.005zM19.965 12.377c-0.027-0.027-0.024-0.071 0.002-0.098s0.071-0.024 0.098 0.002c0.027 0.027 0.024 0.071-0.002 0.098s-0.071 0.024-0.098-0.002zM19.116 13.292c0.039-0.037 0.1-0.037 0.137 0.002s0.037 0.1-0.002 0.137c-0.039 0.037-0.1 0.037-0.137-0.002s-0.034-0.1 0.002-0.137zM18.337 14.313c-0.049-0.051-0.049-0.132 0.002-0.181s0.132-0.049 0.181 0.002c0.049 0.051 0.049 0.132-0.002 0.181s-0.132 0.049-0.181-0.002zM19.626 13.346c-0.037-0.039-0.037-0.1 0.002-0.137s0.1-0.037 0.137 0.002c0.037 0.039 0.037 0.1-0.002 0.137s-0.098 0.034-0.137-0.002zM17.997 15.321c-0.063-0.066-0.061-0.171 0.005-0.232 0.066-0.063 0.171-0.061 0.232 0.005 0.063 0.066 0.061 0.171-0.005 0.232s-0.168 0.061-0.232-0.005zM19.059 14.425c-0.049-0.051-0.049-0.132 0.002-0.181s0.132-0.049 0.181 0.002c0.049 0.051 0.049 0.132-0.002 0.181-0.049 0.051-0.132 0.049-0.181-0.002zM20.693 12.943c-0.037-0.039-0.037-0.1 0.002-0.137s0.1-0.037 0.137 0.002c0.037 0.039 0.037 0.1-0.002 0.137s-0.1 0.034-0.137-0.002zM21.21 12.574c-0.037-0.039-0.037-0.1 0.002-0.137s0.1-0.037 0.137 0.002c0.037 0.039 0.037 0.1-0.002 0.137s-0.1 0.037-0.137-0.002zM19.745 14.315c-0.049-0.051-0.049-0.132 0.002-0.181s0.132-0.049 0.181 0.002c0.049 0.051 0.049 0.132-0.002 0.181-0.049 0.049-0.129 0.049-0.181-0.002zM18.927 15.468c-0.063-0.066-0.061-0.171 0.005-0.232 0.066-0.063 0.171-0.061 0.232 0.005 0.063 0.066 0.061 0.171-0.005 0.232-0.063 0.061-0.168 0.059-0.232-0.005zM20.48 14.088c-0.049-0.051-0.049-0.132 0.002-0.181s0.132-0.049 0.181 0.002c0.049 0.051 0.049 0.132-0.002 0.181s-0.132 0.049-0.181-0.002zM21.174 13.595c0.051-0.049 0.132-0.049 0.181 0.002s0.049 0.132-0.002 0.181c-0.051 0.049-0.132 0.049-0.181-0.002-0.051-0.049-0.049-0.132 0.002-0.181zM19.809 15.324c-0.063-0.066-0.061-0.171 0.005-0.232 0.066-0.063 0.171-0.061 0.232 0.005s0.061 0.171-0.005 0.232c-0.063 0.063-0.168 0.061-0.232-0.005zM20.751 15.033c-0.063-0.066-0.061-0.171 0.005-0.232 0.066-0.063 0.171-0.061 0.232 0.005 0.063 0.066 0.061 0.171-0.005 0.232-0.063 0.061-0.168 0.059-0.232-0.005zM21.64 14.633c-0.063-0.066-0.061-0.171 0.005-0.232 0.066-0.063 0.171-0.061 0.232 0.005 0.063 0.066 0.061 0.171-0.005 0.232-0.066 0.063-0.168 0.061-0.232-0.005zM22.531 14c-0.063-0.066-0.061-0.171 0.005-0.232 0.066-0.063 0.171-0.061 0.232 0.005 0.063 0.066 0.061 0.171-0.005 0.232-0.066 0.063-0.168 0.061-0.232-0.005z"></path>
<path d="M10.667 18.879l-0.454 0.43c-0.081 0.076-0.083 0.2-0.007 0.281s0.2 0.083 0.281 0.007l0.454-0.43c0.081-0.076 0.083-0.2 0.007-0.281-0.073-0.078-0.2-0.081-0.281-0.007z"></path>
<path d="M10.885 18.53l0.418 0.432c0.356-0.725-0.418-0.432-0.418-0.432z"></path>
<path d="M10.277 19.953l-0.418-0.432c-0.359 0.723 0.418 0.432 0.418 0.432z"></path>
<path d="M17.101 16.552l0.725-0.552c-0.068-0.012-3.487-0.625-3.821-3.953l-10.66 12.582c-0.032 0.3 0.027 0.535 0.129 0.723l-0.339 0.435c0.002 0.071 0.022 0.127 0.051 0.168-0.359 0.366-0.366 0.579-0.366 0.579-0.090 0.679 0.889 0.877 0.889 0.877 0.896 0.22 0.842 1.16 0.842 1.16 0.037 0.117 0.083 0.107 0.083 0.107 0.151-0.449-0.252-1.221-0.869-1.35-0.776-0.164-0.857-0.564-0.845-0.794 0.010-0.193 0.247-0.435 0.327-0.513 0.083 0.066 0.183 0.078 0.183 0.078l0.461-0.313c0.339 0.217 0.708 0.266 0.708 0.266l12.338-9.376c0 0-3.191-0.559-3.521-3.933l0.134-0.159c0-0.002 0 2.989 3.55 3.968zM10.914 18.3c0.181-0.171 0.471-0.164 0.642 0.017s0.164 0.471-0.017 0.642l-1.228 1.16c-0.181 0.171-0.471 0.164-0.642-0.017s-0.164-0.471 0.017-0.642l1.228-1.16z"></path>
</symbol>
<symbol id="icon-CS-Icon5" viewBox="0 0 36 32">
<title>CS-Icon5</title>
<path d="M18.536 12.726h0.374c-0.043-0.029-0.083-0.058-0.12-0.083h-0.267c0.006 0.027 0.010 0.052 0.014 0.083z"></path>
<path d="M26.138 15.23v4.358h-7.343c-0.077 0.844-0.203 1.698-0.403 2.522 1.394 5.527 5.533 5.852 5.533 5.852 8.022 0.401 9.004-13.747 9.004-13.747-2.495 0.956-4.795 1.175-6.791 1.014zM24.148 25.91c-2.702-0.829-2.838-3.012-2.838-3.012l6.189 0.761c-0.714 2.486-3.351 2.251-3.351 2.251zM26.432 18.803c2.135-2.023 3.715 0.457 3.715 0.457l-3.715-0.457z"></path>
<path d="M20.602 14.525h-1.843c0.004 0.035 0.006 0.068 0.010 0.103h1.907v-0.89c-0.023-0.012-0.048-0.023-0.072-0.035v0.823z"></path>
<path d="M22.969 14.629c-0.114-0.035-0.225-0.070-0.335-0.105h-1.27v-0.476c-0.027-0.012-0.056-0.023-0.081-0.035v0.616h1.686z"></path>
<path d="M24.965 15.446v3.039h-6.098c-0.002 0.031-0.002 0.064-0.004 0.095h6.199v-3.221h-6.237c0.002 0.029 0.004 0.058 0.006 0.087h6.135z"></path>
<path d="M16.976 14.525v-1.162c-0.027 0.015-0.054 0.031-0.081 0.046v1.218h1.282c0.004-0.035 0.010-0.070 0.014-0.103h-1.214z"></path>
<path d="M18.468 12.726c0.006-0.027 0.010-0.054 0.014-0.083h-0.343c-0.043 0.029-0.083 0.054-0.126 0.083h0.455z"></path>
<path d="M16.203 14.525h-1.824c-0.106 0.035-0.211 0.070-0.316 0.103h2.22v-0.898c-0.027 0.014-0.054 0.027-0.081 0.041v0.755z"></path>
<path d="M11.292 19.587v-4.371c-4.139 0.474-7.203-0.914-7.203-0.914 1.028 15.102 9.124 13.667 9.124 13.667 3.032-0.625 4.509-3.080 5.18-5.862-0.188-0.741-0.323-1.58-0.395-2.522h-6.706zM6.942 19.32c1.558-2.493 3.711-0.49 3.711-0.49l-3.711 0.49zM9.84 25.308c0.074-2.584 2.685-3.014 2.685-3.014 2.824 0.13 3.498 2.211 3.498 2.211l-6.183 0.803z"></path>
<path d="M12.575 18.486v-3.039h5.506c0.002-0.029 0.006-0.058 0.010-0.087h-5.587v3.223h5.444c0-0.031 0-0.064-0.002-0.095h-5.37z"></path>
<path d="M20.561 7.606l-1.384-0.538v1.163l1.384 0.542z"></path>
<path d="M18.033 6.621l-1.525-0.594v1.156l1.525 0.598z"></path>
<path d="M23.347 8.692l-1.64-0.639v1.171l1.64 0.645z"></path>
<path d="M12.694 4.54l-1.402-0.546v1.14l1.402 0.55z"></path>
<path d="M15.363 5.581l-1.525-0.594v1.146l1.525 0.6z"></path>
<path d="M17.948 18.581c0.008 0.348 0.025 0.681 0.050 1.005h0.798c0.031-0.337 0.054-0.674 0.070-1.005h-0.918z"></path>
<path d="M12.504 14.627v-1.984h3.781v1.086c0.201-0.101 0.405-0.207 0.608-0.319v-0.765h1.247c0.114-0.077 0.228-0.157 0.343-0.238 0 0 0.008 0.043 0.021 0.12 0.006-0.027 0.010-0.054 0.015-0.081 0 0 0.093 0.075 0.271 0.201h1.884v1.092c0.192 0.093 0.395 0.186 0.608 0.279v-1.369h3.781v1.984h-2.095c0.937 0.283 2.002 0.507 3.169 0.6v-5.453l-1.645-0.641v1.179l0.641 0.252 0.002 0.203-0.579-0.004 0.405 1.162-1.229-0.048-0.391-1.123-1.649-0.014 0.403 1.156-1.229-0.048-0.391-1.119-1.454-0.012 0.407 1.163-1.229-0.048-0.393-1.125-1.462-0.012 0.405 1.162-1.229-0.048-0.391-1.123-1.403-0.012 0.405 1.158-1.229-0.048-0.391-1.121-1.214-0.010v4.557c0.883-0.101 1.812-0.287 2.772-0.588h-1.56z"></path>
<path d="M18.524 12.643c-0.008-0.045-0.014-0.087-0.019-0.12-0.008 0.041-0.014 0.079-0.021 0.12h0.041z"></path>
<path d="M18.766 14.627h-0.592c-0.031 0.248-0.060 0.492-0.085 0.732h0.734c-0.015-0.256-0.035-0.501-0.056-0.732z"></path>
<path d="M16.203 12.726h-3.628v1.798h1.804c0.598-0.203 1.208-0.451 1.824-0.755v-1.043z"></path>
<path d="M13.342 18.476l3.711-0.49c0 0.002-2.151-2.004-3.711 0.49z"></path>
<path d="M18.83 15.446h-0.749c-0.112 1.109-0.153 2.118-0.134 3.039h0.923c0.045-1.092 0.017-2.135-0.041-3.039z"></path>
<path d="M20.025 18.015l3.715 0.457c0 0-1.582-2.48-3.715-0.457z"></path>
<path d="M20.602 12.726h-1.692c0.348 0.238 0.923 0.598 1.692 0.976v-0.976z"></path>
<path d="M16.976 12.726v0.637c0.347-0.194 0.693-0.407 1.040-0.637h-1.040z"></path>
<path d="M18.468 12.726c-0.112 0.625-0.205 1.223-0.281 1.798h0.569c-0.076-0.811-0.165-1.444-0.221-1.798h-0.068z"></path>
<path d="M24.992 12.726h-3.628v1.322c0.389 0.165 0.813 0.327 1.27 0.476h2.358v-1.798z"></path>
</symbol>
</defs>
</svg>
