<?xml version="1.0" encoding="utf-8"?>
<!-- Generator: Adobe Illustrator 24.0.3, SVG Export Plug-In . SVG Version: 6.00 Build 0)  -->
<svg version="1.1" id="Layer_1" xmlns="http://www.w3.org/2000/svg" xmlns:xlink="http://www.w3.org/1999/xlink" x="0px" y="0px"
	 viewBox="0 0 116.13 131.06" enable-background="new 0 0 116.13 131.06" xml:space="preserve">
<path d="M54.95,48.54c-0.31-0.67-0.45-1.09-0.46-1.1C54.52,47.55,54.66,47.95,54.95,48.54z"/>
<g>
	<path d="M94.82,28.94c-8.22-8.51-21.77-8.74-30.28-0.52c-6.31,6.1-8.06,15.13-5.19,22.86c-0.31-0.8-0.52-1.5-0.67-2.03
		c0.63,2.46,2.66,8.29,8.55,12.18c0.09,0.06,0.18,0.12,0.28,0.18c0.15,0.1,0.31,0.19,0.47,0.29c1.84,1.17,3.83,2.03,5.88,2.58
		c0.13,0.04,0.25,0.08,0.38,0.12l0.02-0.02c6.91,1.71,14.52-0.05,20.02-5.36C102.8,51,103.03,37.44,94.82,28.94z M80.12,29.22
		c0.2,0.21,0.2,0.54-0.01,0.74s-0.54,0.2-0.74-0.01c-0.2-0.21-0.2-0.54,0.01-0.74C79.58,29.01,79.92,29.02,80.12,29.22z M70.1,39.29
		c-0.16,0.15-0.41,0.15-0.56-0.01c-0.15-0.16-0.15-0.41,0.01-0.56c0.16-0.15,0.41-0.15,0.56,0.01
		C70.26,38.89,70.25,39.14,70.1,39.29z M74.51,34.48c-0.15-0.16-0.15-0.41,0.01-0.56c0.16-0.15,0.41-0.15,0.56,0.01
		c0.15,0.16,0.15,0.41-0.01,0.56C74.91,34.64,74.66,34.63,74.51,34.48z M65.65,43.2c0.2,0.21,0.2,0.54-0.01,0.74
		c-0.21,0.2-0.54,0.2-0.74-0.01c-0.2-0.21-0.2-0.54,0.01-0.74C65.11,42.99,65.44,42.99,65.65,43.2z M73.1,35.29
		c0.15,0.16,0.15,0.41-0.01,0.56c-0.16,0.15-0.41,0.15-0.56-0.01c-0.15-0.16-0.15-0.41,0.01-0.56C72.7,35.13,72.95,35.13,73.1,35.29
		z M80.16,24.97c0.26,0.27,0.25,0.7-0.02,0.95c-0.27,0.26-0.7,0.25-0.95-0.02s-0.25-0.7,0.02-0.95C79.47,24.7,79.9,24.7,80.16,24.97
		z M73.02,31.66c-0.2-0.21-0.2-0.54,0.01-0.74c0.21-0.2,0.54-0.2,0.74,0.01c0.2,0.21,0.2,0.54-0.01,0.74
		C73.56,31.87,73.23,31.87,73.02,31.66z M67.12,38.09c-0.21,0.2-0.54,0.2-0.74-0.01c-0.2-0.21-0.2-0.54,0.01-0.74
		c0.21-0.2,0.54-0.2,0.74,0.01C67.34,37.55,67.33,37.89,67.12,38.09z M71.14,32.74c0.2,0.21,0.2,0.54-0.01,0.74s-0.54,0.2-0.74-0.01
		c-0.2-0.21-0.2-0.54,0.01-0.74C70.61,32.53,70.94,32.54,71.14,32.74z M68.63,29.5c0.26,0.27,0.25,0.7-0.02,0.95
		c-0.27,0.26-0.7,0.25-0.95-0.02s-0.25-0.7,0.02-0.95C67.94,29.22,68.37,29.23,68.63,29.5z M64.75,32.3
		c0.27-0.26,0.7-0.25,0.95,0.02c0.26,0.27,0.25,0.7-0.02,0.95c-0.27,0.26-0.7,0.25-0.95-0.02C64.48,32.99,64.49,32.56,64.75,32.3z
		 M62.51,36.35c-0.26-0.27-0.25-0.7,0.02-0.95s0.7-0.25,0.95,0.02c0.26,0.27,0.25,0.7-0.02,0.95
		C63.19,36.62,62.77,36.61,62.51,36.35z M71.04,28.1c-0.26-0.27-0.25-0.7,0.02-0.95c0.27-0.26,0.7-0.25,0.95,0.02
		s0.25,0.7-0.02,0.95C71.73,28.38,71.3,28.37,71.04,28.1z M61.06,40.04c-0.26-0.27-0.25-0.7,0.02-0.95c0.27-0.26,0.7-0.25,0.95,0.02
		c0.26,0.27,0.25,0.7-0.02,0.95C61.75,40.32,61.32,40.31,61.06,40.04z M75.08,26.5c-0.26-0.27-0.25-0.7,0.02-0.95
		c0.27-0.26,0.7-0.25,0.95,0.02s0.25,0.7-0.02,0.95C75.77,26.78,75.34,26.77,75.08,26.5z M68.13,34.92c0.21-0.2,0.54-0.2,0.74,0.01
		c0.2,0.21,0.2,0.54-0.01,0.74c-0.21,0.2-0.54,0.2-0.74-0.01C67.92,35.46,67.92,35.13,68.13,34.92z M60.59,43.88
		c-0.26-0.27-0.25-0.7,0.02-0.95c0.27-0.26,0.7-0.25,0.95,0.02c0.26,0.27,0.25,0.7-0.02,0.95C61.28,44.15,60.85,44.14,60.59,43.88z
		 M65.26,40.95c-0.2-0.21-0.2-0.54,0.01-0.74s0.54-0.2,0.74,0.01c0.2,0.21,0.2,0.54-0.01,0.74S65.46,41.16,65.26,40.95z
		 M76.17,30.41c-0.2-0.21-0.2-0.54,0.01-0.74c0.21-0.2,0.54-0.2,0.74,0.01c0.2,0.21,0.2,0.54-0.01,0.74
		C76.7,30.63,76.37,30.62,76.17,30.41z M70.85,36.92c0.16-0.15,0.41-0.15,0.56,0.01c0.15,0.16,0.15,0.41-0.01,0.56
		c-0.16,0.15-0.41,0.15-0.56-0.01C70.69,37.32,70.69,37.07,70.85,36.92z M60.47,48.07c-0.26-0.27-0.25-0.7,0.02-0.95
		c0.27-0.26,0.7-0.25,0.95,0.02c0.26,0.27,0.25,0.7-0.02,0.95C61.15,48.34,60.73,48.34,60.47,48.07z M68.7,41.43
		c-0.15-0.16-0.15-0.41,0.01-0.56c0.16-0.15,0.41-0.15,0.56,0.01c0.15,0.16,0.15,0.41-0.01,0.56C69.1,41.59,68.85,41.59,68.7,41.43z
		 M76.86,33.54c-0.15-0.16-0.15-0.41,0.01-0.56c0.16-0.15,0.41-0.15,0.56,0.01c0.15,0.16,0.15,0.41-0.01,0.56
		C77.26,33.71,77.01,33.7,76.86,33.54z M83.85,26.42c-0.26-0.27-0.25-0.7,0.02-0.95c0.27-0.26,0.7-0.25,0.95,0.02
		s0.25,0.7-0.02,0.95C84.53,26.7,84.11,26.69,83.85,26.42z M95.55,53.24c0.26,0.27,0.25,0.7-0.02,0.95
		c-0.27,0.26-0.7,0.25-0.95-0.02c-0.26-0.27-0.25-0.7,0.02-0.95C94.87,52.97,95.29,52.97,95.55,53.24z M97.39,49.59
		c0.26,0.27,0.25,0.7-0.02,0.95s-0.7,0.25-0.95-0.02c-0.26-0.27-0.25-0.7,0.02-0.95S97.13,49.32,97.39,49.59z M90.29,54.43
		c-0.21,0.2-0.54,0.2-0.74-0.01c-0.2-0.21-0.2-0.54,0.01-0.74c0.21-0.2,0.54-0.2,0.74,0.01C90.5,53.89,90.5,54.22,90.29,54.43z
		 M91.35,51.21c0.21-0.2,0.54-0.2,0.74,0.01c0.2,0.21,0.2,0.54-0.01,0.74c-0.21,0.2-0.54,0.2-0.74-0.01
		C91.14,51.74,91.14,51.41,91.35,51.21z M98.08,45.45c0.26,0.27,0.25,0.7-0.02,0.95c-0.27,0.26-0.7,0.25-0.95-0.02
		c-0.26-0.27-0.25-0.7,0.02-0.95C97.39,45.17,97.82,45.18,98.08,45.45z M93.52,48.38c0.2,0.21,0.2,0.54-0.01,0.74
		c-0.21,0.2-0.54,0.2-0.74-0.01c-0.2-0.21-0.2-0.54,0.01-0.74C92.99,48.17,93.32,48.17,93.52,48.38z M98.09,41.6
		c0.26,0.27,0.25,0.7-0.02,0.95c-0.27,0.26-0.7,0.25-0.95-0.02c-0.26-0.27-0.25-0.7,0.02-0.95C97.41,41.32,97.83,41.33,98.09,41.6z
		 M94.06,45.16c0.2,0.21,0.2,0.54-0.01,0.74c-0.21,0.2-0.54,0.2-0.74-0.01c-0.2-0.21-0.2-0.54,0.01-0.74
		C93.53,44.94,93.86,44.95,94.06,45.16z M88.78,49.11c0.15,0.16,0.15,0.41-0.01,0.56c-0.16,0.15-0.41,0.15-0.56-0.01
		c-0.15-0.16-0.15-0.41,0.01-0.56C88.38,48.95,88.63,48.96,88.78,49.11z M89.84,47.54c-0.16,0.15-0.41,0.15-0.56-0.01
		c-0.15-0.16-0.15-0.41,0.01-0.56c0.16-0.15,0.41-0.15,0.56,0.01C90,47.14,90,47.39,89.84,47.54z M83.19,53.97
		c-0.16,0.15-0.41,0.15-0.56-0.01c-0.15-0.16-0.15-0.41,0.01-0.56c0.16-0.15,0.41-0.15,0.56,0.01
		C83.35,53.57,83.34,53.82,83.19,53.97z M94.06,42.9c-0.21,0.2-0.54,0.2-0.74-0.01c-0.2-0.21-0.2-0.54,0.01-0.74
		c0.21-0.2,0.54-0.2,0.74,0.01C94.27,42.37,94.27,42.7,94.06,42.9z M80.17,51.19c-0.11-0.11-0.1-0.29,0.01-0.4
		c0.11-0.11,0.29-0.1,0.4,0.01c0.11,0.11,0.1,0.29-0.01,0.4C80.46,51.3,80.28,51.3,80.17,51.19z M76.62,54.66
		c-0.16,0.15-0.41,0.15-0.56-0.01c-0.15-0.16-0.15-0.41,0.01-0.56c0.16-0.15,0.41-0.15,0.56,0.01
		C76.78,54.26,76.77,54.51,76.62,54.66z M89.7,42.32c0.16-0.15,0.41-0.15,0.56,0.01c0.15,0.16,0.15,0.41-0.01,0.56
		c-0.16,0.15-0.41,0.15-0.56-0.01C89.54,42.72,89.55,42.47,89.7,42.32z M86.91,45.73c0.11,0.11,0.1,0.29-0.01,0.4
		c-0.11,0.11-0.29,0.1-0.4-0.01c-0.11-0.11-0.1-0.29,0.01-0.4C86.63,45.61,86.81,45.62,86.91,45.73z M84.8,48.55
		c0.11-0.11,0.29-0.1,0.4,0.01c0.11,0.11,0.1,0.29-0.01,0.4c-0.11,0.11-0.29,0.1-0.4-0.01C84.69,48.83,84.69,48.65,84.8,48.55z
		 M83.68,50.02c-0.11,0.11-0.29,0.1-0.4-0.01c-0.11-0.11-0.1-0.29,0.01-0.4c0.11-0.11,0.29-0.1,0.4,0.01
		C83.79,49.74,83.79,49.91,83.68,50.02z M89.7,44.57c0.16-0.15,0.41-0.15,0.56,0.01c0.15,0.16,0.15,0.41-0.01,0.56
		c-0.16,0.15-0.41,0.15-0.56-0.01C89.54,44.97,89.54,44.72,89.7,44.57z M97.49,37.63c0.26,0.27,0.25,0.7-0.02,0.95
		c-0.27,0.26-0.7,0.25-0.95-0.02c-0.26-0.27-0.25-0.7,0.02-0.95C96.81,37.36,97.23,37.37,97.49,37.63z M86.15,47.64
		c-0.11,0.11-0.29,0.1-0.4-0.01c-0.11-0.11-0.1-0.29,0.01-0.4c0.11-0.11,0.29-0.1,0.4,0.01C86.26,47.35,86.26,47.53,86.15,47.64z
		 M93.6,39.08c0.2,0.21,0.2,0.54-0.01,0.74c-0.21,0.2-0.54,0.2-0.74-0.01c-0.2-0.21-0.2-0.54,0.01-0.74
		C93.07,38.86,93.4,38.87,93.6,39.08z M87.2,44.01c0.11,0.11,0.1,0.29-0.01,0.4c-0.11,0.11-0.29,0.1-0.4-0.01
		c-0.11-0.11-0.1-0.29,0.01-0.4C86.92,43.9,87.09,43.9,87.2,44.01z M79.07,51.44c-0.11,0.11-0.29,0.1-0.4-0.01
		c-0.11-0.11-0.1-0.29,0.01-0.4c0.11-0.11,0.29-0.1,0.4,0.01C79.19,51.15,79.18,51.33,79.07,51.44z M83.67,45.48
		c0.07,0.07,0.06,0.18,0,0.24c-0.07,0.07-0.18,0.06-0.24,0c-0.07-0.07-0.06-0.18,0-0.24C83.5,45.41,83.61,45.42,83.67,45.48z
		 M83.9,44.79c-0.07-0.07-0.06-0.18,0-0.24c0.07-0.07,0.18-0.06,0.24,0c0.07,0.07,0.06,0.18,0,0.24
		C84.07,44.86,83.96,44.86,83.9,44.79z M83.08,46.29c0.07,0.07,0.06,0.18,0,0.24c-0.07,0.07-0.18,0.06-0.24,0
		c-0.07-0.07-0.06-0.18,0-0.24C82.91,46.22,83.02,46.23,83.08,46.29z M86.8,42.8c-0.11-0.11-0.1-0.29,0.01-0.4
		c0.11-0.11,0.29-0.1,0.4,0.01c0.11,0.11,0.1,0.29-0.01,0.4C87.09,42.92,86.91,42.91,86.8,42.8z M89.9,40.58
		c-0.16,0.15-0.41,0.15-0.56-0.01c-0.15-0.16-0.15-0.41,0.01-0.56c0.16-0.15,0.41-0.15,0.56,0.01
		C90.06,40.18,90.06,40.43,89.9,40.58z M95.79,33.54c0.26,0.27,0.25,0.7-0.02,0.95c-0.27,0.26-0.7,0.25-0.95-0.02
		c-0.26-0.27-0.25-0.7,0.02-0.95C95.11,33.26,95.53,33.27,95.79,33.54z M92.28,35.89c0.2,0.21,0.2,0.54-0.01,0.74
		c-0.21,0.2-0.54,0.2-0.74-0.01c-0.2-0.21-0.2-0.54,0.01-0.74C91.75,35.67,92.08,35.68,92.28,35.89z M82.5,44.33
		c-0.05-0.05-0.04-0.12,0-0.17c0.05-0.05,0.12-0.04,0.17,0c0.05,0.05,0.04,0.12,0,0.17C82.62,44.37,82.54,44.37,82.5,44.33z
		 M80.66,46.27c-0.05,0.05-0.12,0.04-0.17,0c-0.05-0.05-0.04-0.12,0-0.17c0.05-0.05,0.12-0.04,0.17,0
		C80.71,46.14,80.71,46.22,80.66,46.27z M81.3,45.98c-0.05,0.05-0.12,0.04-0.17,0c-0.05-0.05-0.04-0.12,0-0.17
		c0.05-0.05,0.12-0.04,0.17,0C81.35,45.86,81.35,45.93,81.3,45.98z M81.77,45.35c0.05-0.05,0.12-0.04,0.17,0
		c0.05,0.05,0.04,0.12,0,0.17c-0.05,0.05-0.12,0.04-0.17,0C81.73,45.47,81.73,45.4,81.77,45.35z M79.31,47.83
		c0.07,0.07,0.06,0.18,0,0.24c-0.07,0.07-0.18,0.06-0.24,0c-0.07-0.07-0.06-0.18,0-0.24C79.13,47.76,79.24,47.76,79.31,47.83z
		 M86.56,40.76c0.11-0.11,0.29-0.1,0.4,0.01c0.11,0.11,0.1,0.29-0.01,0.4c-0.11,0.11-0.29,0.1-0.4-0.01
		C86.45,41.05,86.45,40.87,86.56,40.76z M84.32,43.49c0.07,0.07,0.06,0.18,0,0.24c-0.07,0.07-0.18,0.06-0.24,0
		c-0.07-0.07-0.06-0.18,0-0.24C84.15,43.42,84.26,43.42,84.32,43.49z M80.23,47.68c0.07,0.07,0.06,0.18,0,0.24s-0.18,0.06-0.24,0
		c-0.07-0.07-0.06-0.18,0-0.24C80.05,47.61,80.16,47.61,80.23,47.68z M82.35,44.8c0.05,0.05,0.04,0.12,0,0.17
		c-0.05,0.05-0.12,0.04-0.17,0c-0.05-0.05-0.04-0.12,0-0.17C82.23,44.75,82.3,44.75,82.35,44.8z M84.32,42.75
		c-0.07,0.07-0.18,0.06-0.24,0c-0.07-0.07-0.06-0.18,0-0.24c0.07-0.07,0.18-0.06,0.24,0C84.39,42.57,84.39,42.68,84.32,42.75z
		 M79.35,46.41c0.05,0.05,0.04,0.12,0,0.17c-0.05,0.05-0.12,0.04-0.17,0c-0.05-0.05-0.04-0.12,0-0.17
		C79.23,46.36,79.31,46.36,79.35,46.41z M82.62,42.92c-0.05-0.05-0.04-0.12,0-0.17c0.05-0.05,0.12-0.04,0.17,0s0.04,0.12,0,0.17
		C82.74,42.97,82.67,42.97,82.62,42.92z M82.62,43.6c-0.05-0.05-0.04-0.12,0-0.17c0.05-0.05,0.12-0.04,0.17,0
		c0.05,0.05,0.04,0.12,0,0.17C82.74,43.65,82.66,43.65,82.62,43.6z M79.98,46.47c-0.05,0.05-0.12,0.04-0.17,0
		c-0.05-0.05-0.04-0.12,0-0.17c0.05-0.05,0.12-0.04,0.17,0C80.03,46.35,80.03,46.43,79.98,46.47z M78.33,47.68
		c0.07,0.07,0.06,0.18,0,0.24c-0.07,0.07-0.18,0.06-0.24,0c-0.07-0.07-0.06-0.18,0-0.24C78.15,47.61,78.26,47.61,78.33,47.68z
		 M75.79,50.24c0.11,0.11,0.1,0.29-0.01,0.4c-0.11,0.11-0.29,0.1-0.4-0.01c-0.11-0.11-0.1-0.29,0.01-0.4
		C75.51,50.12,75.68,50.12,75.79,50.24z M88.92,37.64c0.15,0.16,0.15,0.41-0.01,0.56c-0.16,0.15-0.41,0.15-0.56-0.01
		c-0.15-0.16-0.15-0.41,0.01-0.56C88.52,37.48,88.77,37.49,88.92,37.64z M84.17,41.73c-0.07,0.07-0.18,0.06-0.24,0
		c-0.07-0.07-0.06-0.18,0-0.24c0.07-0.07,0.18-0.06,0.24,0C84.24,41.56,84.24,41.67,84.17,41.73z M86.25,39.07
		c0.11,0.11,0.1,0.29-0.01,0.4c-0.11,0.11-0.29,0.1-0.4-0.01c-0.11-0.11-0.1-0.29,0.01-0.4C85.97,38.96,86.15,38.96,86.25,39.07z
		 M77.28,47.33c0.07,0.07,0.06,0.18,0,0.24c-0.07,0.07-0.18,0.06-0.24,0c-0.07-0.07-0.06-0.18,0-0.24
		C77.1,47.26,77.21,47.26,77.28,47.33z M79.7,44.77c0.03-0.02,0.07-0.02,0.09,0s0.02,0.07,0,0.09c-0.03,0.02-0.07,0.02-0.09,0
		C79.68,44.83,79.68,44.79,79.7,44.77z M80.77,44.25c0.03-0.02,0.07-0.02,0.09,0c0.02,0.03,0.02,0.07,0,0.09
		c-0.03,0.02-0.07,0.02-0.09,0C80.74,44.32,80.74,44.28,80.77,44.25z M80.51,44.59c-0.03,0.02-0.07,0.02-0.09,0s-0.02-0.07,0-0.09
		c0.03-0.02,0.07-0.02,0.09,0S80.53,44.57,80.51,44.59z M80.99,44.04c-0.02-0.03-0.02-0.07,0-0.09c0.03-0.02,0.07-0.02,0.09,0
		c0.02,0.03,0.02,0.07,0,0.09C81.05,44.07,81.01,44.07,80.99,44.04z M81.16,43.69c-0.02-0.03-0.02-0.07,0-0.09
		c0.03-0.02,0.07-0.02,0.09,0s0.02,0.07,0,0.09S81.19,43.72,81.16,43.69z M80.16,44.66c0.02,0.03,0.02,0.07,0,0.09
		c-0.03,0.02-0.07,0.02-0.09,0c-0.02-0.03-0.02-0.07,0-0.09C80.1,44.63,80.14,44.63,80.16,44.66z M78.51,46.3
		c0.05-0.05,0.12-0.04,0.17,0c0.05,0.05,0.04,0.12,0,0.17c-0.05,0.05-0.12,0.04-0.17,0C78.47,46.42,78.47,46.35,78.51,46.3z
		 M82.69,42.06c0.05,0.05,0.04,0.12,0,0.17c-0.05,0.05-0.12,0.04-0.17,0c-0.05-0.05-0.04-0.12,0-0.17
		C82.57,42.01,82.64,42.02,82.69,42.06z M81.32,43.21c0.02,0.03,0.02,0.07,0,0.09c-0.03,0.02-0.07,0.02-0.09,0
		c-0.02-0.03-0.02-0.07,0-0.09C81.25,43.18,81.29,43.18,81.32,43.21z M79.45,44.92c-0.03,0.02-0.07,0.02-0.09,0
		c-0.02-0.03-0.02-0.07,0-0.09c0.03-0.02,0.07-0.02,0.09,0C79.47,44.85,79.47,44.89,79.45,44.92z M77.96,46.07
		c0.05,0.05,0.04,0.12,0,0.17c-0.05,0.05-0.12,0.04-0.17,0c-0.05-0.05-0.04-0.12,0-0.17C77.84,46.02,77.91,46.02,77.96,46.07z
		 M78.99,44.86c-0.02-0.03-0.02-0.07,0-0.09c0.03-0.02,0.07-0.02,0.09,0c0.02,0.03,0.02,0.07,0,0.09
		C79.06,44.89,79.02,44.88,78.99,44.86z M81.23,42.84c0.03-0.02,0.07-0.02,0.09,0c0.02,0.03,0.02,0.07,0,0.09
		c-0.03,0.02-0.07,0.02-0.09,0C81.2,42.91,81.2,42.86,81.23,42.84z M83.74,40.44c0.07,0.07,0.06,0.18,0,0.24
		c-0.07,0.07-0.18,0.06-0.24,0c-0.07-0.07-0.06-0.18,0-0.24C83.56,40.37,83.67,40.37,83.74,40.44z M82.39,41.34
		c0.05,0.05,0.04,0.12,0,0.17c-0.05,0.05-0.12,0.04-0.17,0c-0.05-0.05-0.04-0.12,0-0.17C82.27,41.29,82.34,41.3,82.39,41.34z
		 M81.26,42.55c-0.03,0.02-0.07,0.02-0.09,0c-0.02-0.03-0.02-0.07,0-0.09c0.03-0.02,0.07-0.02,0.09,0
		C81.29,42.49,81.29,42.53,81.26,42.55z M79.6,43.69c0.01,0.01,0.01,0.03,0,0.04c-0.01,0.01-0.03,0.01-0.04,0
		c-0.01-0.01-0.01-0.03,0-0.04C79.57,43.68,79.59,43.68,79.6,43.69z M80.2,43.04c0.01-0.01,0.03-0.01,0.04,0
		c0.01,0.01,0.01,0.03,0,0.04s-0.03,0.01-0.04,0C80.19,43.07,80.19,43.05,80.2,43.04z M78.69,44.64c0.02,0.03,0.02,0.07,0,0.09
		c-0.03,0.02-0.07,0.02-0.09,0c-0.02-0.03-0.02-0.07,0-0.09C78.63,44.61,78.67,44.62,78.69,44.64z M79.72,43.64
		c0.01-0.01,0.03-0.01,0.04,0c0.01,0.01,0.01,0.03,0,0.04c-0.01,0.01-0.03,0.01-0.04,0C79.71,43.67,79.71,43.65,79.72,43.64z
		 M79.86,43.58c0.01-0.01,0.03-0.01,0.04,0c0.01,0.01,0.01,0.03,0,0.04c-0.01,0.01-0.03,0.01-0.04,0
		C79.85,43.61,79.85,43.59,79.86,43.58z M80.01,43.48c0.01-0.01,0.03-0.01,0.04,0c0.01,0.01,0.01,0.03,0,0.04s-0.03,0.01-0.04,0
		C80,43.5,80,43.49,80.01,43.48z M80.14,43.39c-0.01,0.01-0.03,0.01-0.04,0c-0.01-0.01-0.01-0.03,0-0.04s0.03-0.01,0.04,0
		C80.15,43.36,80.15,43.38,80.14,43.39z M80.21,43.24c-0.01,0.01-0.03,0.01-0.04,0c-0.01-0.01-0.01-0.03,0-0.04
		c0.01-0.01,0.03-0.01,0.04,0C80.22,43.22,80.22,43.23,80.21,43.24z M89.95,33.78c-0.21,0.2-0.54,0.2-0.74-0.01
		c-0.2-0.21-0.2-0.54,0.01-0.74s0.54-0.2,0.74,0.01C90.16,33.24,90.16,33.58,89.95,33.78z M80.24,42.89c0.01,0.01,0.01,0.03,0,0.04
		c-0.01,0.01-0.03,0.01-0.04,0c-0.01-0.01-0.01-0.03,0-0.04C80.21,42.88,80.23,42.88,80.24,42.89z M81.01,42.07
		c0.03-0.02,0.07-0.02,0.09,0s0.02,0.07,0,0.09c-0.03,0.02-0.07,0.02-0.09,0C80.98,42.14,80.98,42.1,81.01,42.07z M79.46,43.71
		c0.01,0.01,0.01,0.03,0,0.04s-0.03,0.01-0.04,0c-0.01-0.01-0.01-0.03,0-0.04S79.45,43.7,79.46,43.71z M86.62,36.05
		c-0.15-0.16-0.15-0.41,0.01-0.56c0.16-0.15,0.41-0.15,0.56,0.01c0.15,0.16,0.15,0.41-0.01,0.56
		C87.02,36.21,86.77,36.21,86.62,36.05z M80.21,42.77c-0.01,0.01-0.03,0.01-0.04,0c-0.01-0.01-0.01-0.03,0-0.04
		c0.01-0.01,0.03-0.01,0.04,0C80.22,42.74,80.22,42.76,80.21,42.77z M78.78,43.11c0.01,0.01,0.01,0.03,0,0.04
		c-0.01,0.01-0.03,0.01-0.04,0c-0.01-0.01-0.01-0.03,0-0.04C78.75,43.1,78.77,43.1,78.78,43.11z M80.38,41.46
		c0.03-0.02,0.07-0.02,0.09,0c0.02,0.03,0.02,0.07,0,0.09c-0.03,0.02-0.07,0.02-0.09,0S80.35,41.48,80.38,41.46z M79.67,42.25
		c0.01-0.01,0.03-0.01,0.04,0c0.01,0.01,0.01,0.03,0,0.04s-0.03,0.01-0.04,0C79.66,42.27,79.66,42.26,79.67,42.25z M92.81,29.87
		c0.26,0.27,0.25,0.7-0.02,0.95c-0.27,0.26-0.7,0.25-0.95-0.02c-0.26-0.27-0.25-0.7,0.02-0.95C92.12,29.59,92.55,29.6,92.81,29.87z
		 M78.8,42.79c0.01,0.01,0.01,0.03,0,0.04c-0.01,0.01-0.03,0.01-0.04,0c-0.01-0.01-0.01-0.03,0-0.04S78.79,42.78,78.8,42.79z
		 M79.32,42.25c0.01-0.01,0.03-0.01,0.04,0c0.01,0.01,0.01,0.03,0,0.04s-0.03,0.01-0.04,0C79.31,42.28,79.31,42.26,79.32,42.25z
		 M77.92,43.74c0.02,0.03,0.02,0.07,0,0.09c-0.03,0.02-0.07,0.02-0.09,0s-0.02-0.07,0-0.09C77.85,43.72,77.89,43.72,77.92,43.74z
		 M78.78,42.94c0.01,0.01,0.01,0.03,0,0.04c-0.01,0.01-0.03,0.01-0.04,0s-0.01-0.03,0-0.04C78.76,42.93,78.77,42.93,78.78,42.94z
		 M79.49,42.23c0.01-0.01,0.03-0.01,0.04,0c0.01,0.01,0.01,0.03,0,0.04c-0.01,0.01-0.03,0.01-0.04,0
		C79.47,42.25,79.48,42.24,79.49,42.23z M78.95,42.52c0.01,0.01,0.01,0.03,0,0.04s-0.03,0.01-0.04,0c-0.01-0.01-0.01-0.03,0-0.04
		S78.94,42.51,78.95,42.52z M79.03,42.41c0.01-0.01,0.03-0.01,0.04,0c0.01,0.01,0.01,0.03,0,0.04c-0.01,0.01-0.03,0.01-0.04,0
		C79.02,42.43,79.02,42.42,79.03,42.41z M78.86,42.64c0.01,0.01,0.01,0.03,0,0.04s-0.03,0.01-0.04,0c-0.01-0.01-0.01-0.03,0-0.04
		S78.85,42.63,78.86,42.64z M79.16,42.35c-0.01-0.01-0.01-0.03,0-0.04c0.01-0.01,0.03-0.01,0.04,0c0.01,0.01,0.01,0.03,0,0.04
		C79.19,42.36,79.17,42.36,79.16,42.35z M81.23,40.21c0.05,0.05,0.04,0.12,0,0.17c-0.05,0.05-0.12,0.04-0.17,0
		c-0.05-0.05-0.04-0.12,0-0.17C81.11,40.16,81.18,40.16,81.23,40.21z M80.05,41.4c-0.03,0.02-0.07,0.02-0.09,0
		c-0.02-0.03-0.02-0.07,0-0.09c0.03-0.02,0.07-0.02,0.09,0C80.08,41.33,80.08,41.37,80.05,41.4z M77.82,43.37
		c0.02,0.03,0.02,0.07,0,0.09c-0.03,0.02-0.07,0.02-0.09,0c-0.02-0.03-0.02-0.07,0-0.09C77.76,43.34,77.8,43.34,77.82,43.37z
		 M76.53,44.59c-0.05,0.05-0.12,0.04-0.17,0c-0.05-0.05-0.04-0.12,0-0.17c0.05-0.05,0.12-0.04,0.17,0
		C76.58,44.47,76.57,44.54,76.53,44.59z M77.83,42.97c0.02,0.03,0.02,0.07,0,0.09c-0.03,0.02-0.07,0.02-0.09,0
		c-0.02-0.03-0.02-0.07,0-0.09C77.77,42.94,77.81,42.94,77.83,42.97z M79.52,41.25c0.03-0.02,0.07-0.02,0.09,0s0.02,0.07,0,0.09
		c-0.03,0.02-0.07,0.02-0.09,0S79.49,41.28,79.52,41.25z M70.75,50.28c0.15,0.16,0.15,0.41-0.01,0.56
		c-0.16,0.15-0.41,0.15-0.56-0.01c-0.15-0.16-0.15-0.41,0.01-0.56C70.35,50.12,70.6,50.13,70.75,50.28z M82.04,38.79
		c0.07,0.07,0.06,0.18,0,0.24c-0.07,0.07-0.18,0.06-0.24,0c-0.07-0.07-0.06-0.18,0-0.24C81.87,38.72,81.98,38.72,82.04,38.79z
		 M78.74,41.55c-0.02-0.03-0.02-0.07,0-0.09c0.03-0.02,0.07-0.02,0.09,0c0.02,0.03,0.02,0.07,0,0.09
		C78.81,41.58,78.76,41.58,78.74,41.55z M78.02,42.34c-0.03,0.02-0.07,0.02-0.09,0c-0.02-0.03-0.02-0.07,0-0.09
		c0.03-0.02,0.07-0.02,0.09,0C78.04,42.28,78.04,42.32,78.02,42.34z M78.51,41.78c-0.03,0.02-0.07,0.02-0.09,0
		c-0.02-0.03-0.02-0.07,0-0.09c0.03-0.02,0.07-0.02,0.09,0C78.53,41.71,78.53,41.75,78.51,41.78z M78.23,41.96
		c0.02,0.03,0.02,0.07,0,0.09c-0.03,0.02-0.07,0.02-0.09,0c-0.02-0.03-0.02-0.07,0-0.09C78.17,41.93,78.21,41.93,78.23,41.96z
		 M76.36,43.73c0.05,0.05,0.04,0.12,0,0.17c-0.05,0.05-0.12,0.04-0.17,0c-0.05-0.05-0.04-0.12,0-0.17
		C76.24,43.68,76.31,43.68,76.36,43.73z M75.19,44.93c0.07,0.07,0.06,0.18,0,0.24c-0.07,0.07-0.18,0.06-0.24,0
		c-0.07-0.07-0.06-0.18,0-0.24C75.01,44.85,75.12,44.86,75.19,44.93z M77.79,42.6c0.03-0.02,0.07-0.02,0.09,0
		c0.02,0.03,0.02,0.07,0,0.09c-0.03,0.02-0.07,0.02-0.09,0C77.76,42.67,77.76,42.63,77.79,42.6z M79.13,41.4
		c-0.02-0.03-0.02-0.07,0-0.09c0.03-0.02,0.07-0.02,0.09,0s0.02,0.07,0,0.09C79.19,41.43,79.15,41.43,79.13,41.4z M80.46,39.93
		c0.05,0.05,0.04,0.12,0,0.17c-0.05,0.05-0.12,0.04-0.17,0c-0.05-0.05-0.04-0.12,0-0.17C80.34,39.88,80.42,39.88,80.46,39.93z
		 M83.51,36.4c0.11,0.11,0.1,0.29-0.01,0.4c-0.11,0.11-0.29,0.1-0.4-0.01c-0.11-0.11-0.1-0.29,0.01-0.4
		C83.23,36.28,83.4,36.28,83.51,36.4z M76.46,42.32c0.05,0.05,0.04,0.12,0,0.17c-0.05,0.05-0.12,0.04-0.17,0
		c-0.05-0.05-0.04-0.12,0-0.17C76.34,42.27,76.42,42.27,76.46,42.32z M78.76,39.94c0.05-0.05,0.12-0.04,0.17,0
		c0.05,0.05,0.04,0.12,0,0.17c-0.05,0.05-0.12,0.04-0.17,0C78.71,40.06,78.71,39.99,78.76,39.94z M74.94,43.92
		c0.07,0.07,0.06,0.18,0,0.24c-0.07,0.07-0.18,0.06-0.24,0c-0.07-0.07-0.06-0.18,0-0.24C74.76,43.85,74.87,43.85,74.94,43.92z
		 M80.68,38.37c0.07-0.07,0.18-0.06,0.24,0c0.07,0.07,0.06,0.18,0,0.24c-0.07,0.07-0.18,0.06-0.24,0
		C80.61,38.55,80.61,38.44,80.68,38.37z M79.47,40c-0.05-0.05-0.04-0.12,0-0.17c0.05-0.05,0.12-0.04,0.17,0
		c0.05,0.05,0.04,0.12,0,0.17C79.59,40.05,79.52,40.05,79.47,40z M76.38,43.16c-0.05,0.05-0.12,0.04-0.17,0
		c-0.05-0.05-0.04-0.12,0-0.17s0.12-0.04,0.17,0C76.43,43.04,76.42,43.11,76.38,43.16z M85.06,34.44c-0.16,0.15-0.41,0.15-0.56-0.01
		c-0.15-0.16-0.15-0.41,0.01-0.56c0.16-0.15,0.41-0.15,0.56,0.01C85.22,34.04,85.22,34.29,85.06,34.44z M74.97,42.85
		c0.07,0.07,0.06,0.18,0,0.24c-0.07,0.07-0.18,0.06-0.24,0c-0.07-0.07-0.06-0.18,0-0.24C74.8,42.77,74.9,42.78,74.97,42.85z
		 M79.49,38.24c0.07-0.07,0.18-0.06,0.24,0c0.07,0.07,0.06,0.18,0,0.24c-0.07,0.07-0.18,0.06-0.24,0
		C79.42,38.42,79.42,38.31,79.49,38.24z M76.94,41.13c0.05-0.05,0.12-0.04,0.17,0c0.05,0.05,0.04,0.12,0,0.17
		c-0.05,0.05-0.12,0.04-0.17,0C76.89,41.25,76.89,41.17,76.94,41.13z M77.45,40.8c-0.05-0.05-0.04-0.12,0-0.17
		c0.05-0.05,0.12-0.04,0.17,0c0.05,0.05,0.04,0.12,0,0.17C77.57,40.85,77.5,40.85,77.45,40.8z M78.05,40.22
		c0.05-0.05,0.12-0.04,0.17,0c0.05,0.05,0.04,0.12,0,0.17c-0.05,0.05-0.12,0.04-0.17,0C78,40.34,78,40.27,78.05,40.22z M87.14,30.87
		c0.2,0.21,0.2,0.54-0.01,0.74c-0.21,0.2-0.54,0.2-0.74-0.01c-0.2-0.21-0.2-0.54,0.01-0.74C86.6,30.65,86.94,30.66,87.14,30.87z
		 M81.7,35.73c0.11,0.11,0.1,0.29-0.01,0.4c-0.11,0.11-0.29,0.1-0.4-0.01c-0.11-0.11-0.1-0.29,0.01-0.4
		C81.42,35.62,81.59,35.62,81.7,35.73z M76.78,39.65c-0.07,0.07-0.18,0.06-0.24,0c-0.07-0.07-0.06-0.18,0-0.24
		c0.07-0.07,0.18-0.06,0.24,0C76.85,39.47,76.84,39.58,76.78,39.65z M77.4,38.8c0.07-0.07,0.18-0.06,0.24,0
		c0.07,0.07,0.06,0.18,0,0.24c-0.07,0.07-0.18,0.06-0.24,0C77.33,38.98,77.33,38.87,77.4,38.8z M76.03,40.13
		c0.07,0.07,0.06,0.18,0,0.24c-0.07,0.07-0.18,0.06-0.24,0c-0.07-0.07-0.06-0.18,0-0.24C75.86,40.06,75.97,40.06,76.03,40.13z
		 M75.46,40.92c0.07,0.07,0.06,0.18,0,0.24c-0.07,0.07-0.18,0.06-0.24,0c-0.07-0.07-0.06-0.18,0-0.24
		C75.29,40.85,75.4,40.85,75.46,40.92z M72.01,44.71c0.11,0.11,0.1,0.29-0.01,0.4c-0.11,0.11-0.29,0.1-0.4-0.01
		c-0.11-0.11-0.1-0.29,0.01-0.4C71.72,44.59,71.9,44.6,72.01,44.71z M74.85,41.86c0.07-0.07,0.18-0.06,0.24,0
		c0.07,0.07,0.06,0.18,0,0.24c-0.07,0.07-0.18,0.06-0.24,0C74.78,42.04,74.78,41.93,74.85,41.86z M78.68,38.4
		c0.07,0.07,0.06,0.18,0,0.24c-0.07,0.07-0.18,0.06-0.24,0c-0.07-0.07-0.06-0.18,0-0.24C78.51,38.33,78.62,38.33,78.68,38.4z
		 M89.18,27.09c0.26,0.27,0.25,0.7-0.02,0.95c-0.27,0.26-0.7,0.25-0.95-0.02s-0.25-0.7,0.02-0.95
		C88.5,26.81,88.92,26.82,89.18,27.09z M82.53,32.95c0.15,0.16,0.15,0.41-0.01,0.56c-0.16,0.15-0.41,0.15-0.56-0.01
		c-0.15-0.16-0.15-0.41,0.01-0.56C82.13,32.79,82.38,32.8,82.53,32.95z M79.37,35.91c-0.11-0.11-0.1-0.29,0.01-0.4
		s0.29-0.1,0.4,0.01c0.11,0.11,0.1,0.29-0.01,0.4S79.47,36.02,79.37,35.91z M72.05,43.36c-0.11,0.11-0.29,0.1-0.4-0.01
		c-0.11-0.11-0.1-0.29,0.01-0.4c0.11-0.11,0.29-0.1,0.4,0.01C72.17,43.08,72.16,43.26,72.05,43.36z M78.06,36.16
		c-0.11,0.11-0.29,0.1-0.4-0.01c-0.11-0.11-0.1-0.29,0.01-0.4c0.11-0.11,0.29-0.1,0.4,0.01C78.18,35.87,78.17,36.05,78.06,36.16z
		 M72.25,41.77c-0.11,0.11-0.29,0.1-0.4-0.01c-0.11-0.11-0.1-0.29,0.01-0.4c0.11-0.11,0.29-0.1,0.4,0.01
		C72.36,41.49,72.36,41.67,72.25,41.77z M83.74,29.62c0.2,0.21,0.2,0.54-0.01,0.74c-0.21,0.2-0.54,0.2-0.74-0.01
		c-0.2-0.21-0.2-0.54,0.01-0.74C83.21,29.41,83.54,29.41,83.74,29.62z M73.78,38.56c0.11,0.11,0.1,0.29-0.01,0.4
		c-0.11,0.11-0.29,0.1-0.4-0.01c-0.11-0.11-0.1-0.29,0.01-0.4C73.49,38.45,73.67,38.45,73.78,38.56z M74.59,37.39
		c0.11-0.11,0.29-0.1,0.4,0.01c0.11,0.11,0.1,0.29-0.01,0.4c-0.11,0.11-0.29,0.1-0.4-0.01C74.48,37.67,74.48,37.5,74.59,37.39z
		 M72.85,39.85c0.11,0.11,0.1,0.29-0.01,0.4c-0.11,0.11-0.29,0.1-0.4-0.01c-0.11-0.11-0.1-0.29,0.01-0.4
		C72.57,39.73,72.75,39.74,72.85,39.85z M75.99,36.82c-0.11-0.11-0.1-0.29,0.01-0.4c0.11-0.11,0.29-0.1,0.4,0.01
		c0.11,0.11,0.1,0.29-0.01,0.4C76.27,36.93,76.1,36.93,75.99,36.82z M79.82,32.66c0.15,0.16,0.15,0.41-0.01,0.56
		c-0.16,0.15-0.41,0.15-0.56-0.01c-0.15-0.16-0.15-0.41,0.01-0.56C79.42,32.49,79.67,32.5,79.82,32.66z M68.99,43.11
		c0.15,0.16,0.15,0.41-0.01,0.56c-0.16,0.15-0.41,0.15-0.56-0.01c-0.15-0.16-0.15-0.41,0.01-0.56
		C68.59,42.95,68.84,42.96,68.99,43.11z M64.79,47.19c-0.2-0.21-0.2-0.54,0.01-0.74s0.54-0.2,0.74,0.01c0.2,0.21,0.2,0.54-0.01,0.74
		C65.33,47.41,64.99,47.4,64.79,47.19z M61.45,52c-0.26-0.27-0.25-0.7,0.02-0.95c0.27-0.26,0.7-0.25,0.95,0.02
		c0.26,0.27,0.25,0.7-0.02,0.95C62.13,52.27,61.71,52.27,61.45,52z M68.35,46.1c-0.15-0.16-0.15-0.41,0.01-0.56
		c0.16-0.15,0.41-0.15,0.56,0.01c0.15,0.16,0.15,0.41-0.01,0.56C68.75,46.26,68.5,46.26,68.35,46.1z M65.56,50.25
		c-0.2-0.21-0.2-0.54,0.01-0.74c0.21-0.2,0.54-0.2,0.74,0.01c0.2,0.21,0.2,0.54-0.01,0.74C66.09,50.47,65.76,50.46,65.56,50.25z
		 M68.92,48.39c-0.15-0.16-0.15-0.41,0.01-0.56c0.16-0.15,0.41-0.15,0.56,0.01c0.15,0.16,0.15,0.41-0.01,0.56
		C69.32,48.55,69.07,48.55,68.92,48.39z M76.55,41.84c-0.05-0.05-0.04-0.12,0-0.17c0.05-0.05,0.12-0.04,0.17,0
		c0.05,0.05,0.04,0.12,0,0.17C76.67,41.88,76.59,41.88,76.55,41.84z M72.01,46.73c-0.11-0.11-0.1-0.29,0.01-0.4s0.29-0.1,0.4,0.01
		c0.11,0.11,0.1,0.29-0.01,0.4C72.3,46.84,72.12,46.84,72.01,46.73z M63.62,56.19c-0.26-0.27-0.25-0.7,0.02-0.95
		c0.27-0.26,0.7-0.25,0.95,0.02c0.26,0.27,0.25,0.7-0.02,0.95C64.3,56.47,63.88,56.46,63.62,56.19z M67.25,53.51
		c-0.2-0.21-0.2-0.54,0.01-0.74c0.21-0.2,0.54-0.2,0.74,0.01c0.2,0.21,0.2,0.54-0.01,0.74C67.78,53.73,67.45,53.72,67.25,53.51z
		 M72.91,48.46c-0.11-0.11-0.1-0.29,0.01-0.4c0.11-0.11,0.29-0.1,0.4,0.01c0.11,0.11,0.1,0.29-0.01,0.4
		C73.2,48.58,73.02,48.57,72.91,48.46z M75.5,46.24c-0.07-0.07-0.06-0.18,0-0.24c0.07-0.07,0.18-0.06,0.24,0
		c0.07,0.07,0.06,0.18,0,0.24C75.67,46.31,75.56,46.31,75.5,46.24z M76.74,45.32c-0.05-0.05-0.04-0.12,0-0.17
		c0.05-0.05,0.12-0.04,0.17,0c0.05,0.05,0.04,0.12,0,0.17C76.86,45.37,76.79,45.37,76.74,45.32z M82.73,39.5
		c0.07-0.07,0.18-0.06,0.24,0c0.07,0.07,0.06,0.18,0,0.24c-0.07,0.07-0.18,0.06-0.24,0C82.66,39.67,82.66,39.56,82.73,39.5z
		 M79.88,42.35c-0.01,0.01-0.03,0.01-0.04,0c-0.01-0.01-0.01-0.03,0-0.04s0.03-0.01,0.04,0C79.89,42.32,79.89,42.34,79.88,42.35z
		 M78.82,43.3c-0.01,0.01-0.03,0.01-0.04,0c-0.01-0.01-0.01-0.03,0-0.04s0.03-0.01,0.04,0C78.83,43.27,78.83,43.29,78.82,43.3z
		 M78.03,44.23c-0.02-0.03-0.02-0.07,0-0.09c0.03-0.02,0.07-0.02,0.09,0c0.02,0.03,0.02,0.07,0,0.09
		C78.1,44.26,78.06,44.26,78.03,44.23z M78.87,43.43c0.01-0.01,0.03-0.01,0.04,0c0.01,0.01,0.01,0.03,0,0.04
		c-0.01,0.01-0.03,0.01-0.04,0C78.86,43.46,78.86,43.44,78.87,43.43z M79.99,42.46c-0.01-0.01-0.01-0.03,0-0.04
		c0.01-0.01,0.03-0.01,0.04,0c0.01,0.01,0.01,0.03,0,0.04C80.02,42.47,80,42.47,79.99,42.46z M80.73,41.72
		c0.03-0.02,0.07-0.02,0.09,0c0.02,0.03,0.02,0.07,0,0.09c-0.03,0.02-0.07,0.02-0.09,0S80.7,41.75,80.73,41.72z M78.98,43.59
		c-0.01-0.01-0.01-0.03,0-0.04c0.01-0.01,0.03-0.01,0.04,0c0.01,0.01,0.01,0.03,0,0.04C79.01,43.6,78.99,43.6,78.98,43.59z
		 M81.69,40.86c-0.05-0.05-0.04-0.12,0-0.17c0.05-0.05,0.12-0.04,0.17,0c0.05,0.05,0.04,0.12,0,0.17
		C81.81,40.91,81.74,40.91,81.69,40.86z M84.61,37.94c-0.11-0.11-0.1-0.29,0.01-0.4c0.11-0.11,0.29-0.1,0.4,0.01
		c0.11,0.11,0.1,0.29-0.01,0.4C84.9,38.05,84.72,38.05,84.61,37.94z M80.11,42.6c-0.01-0.01-0.01-0.03,0-0.04
		c0.01-0.01,0.03-0.01,0.04,0c0.01,0.01,0.01,0.03,0,0.04C80.13,42.61,80.12,42.61,80.11,42.6z M79.14,43.64
		c0.01,0.01,0.01,0.03,0,0.04c-0.01,0.01-0.03,0.01-0.04,0c-0.01-0.01-0.01-0.03,0-0.04C79.11,43.63,79.13,43.63,79.14,43.64z
		 M78.31,44.53c-0.02-0.03-0.02-0.07,0-0.09c0.03-0.02,0.07-0.02,0.09,0c0.02,0.03,0.02,0.07,0,0.09
		C78.38,44.55,78.34,44.55,78.31,44.53z M79.27,43.69c0.01-0.01,0.03-0.01,0.04,0c0.01,0.01,0.01,0.03,0,0.04
		c-0.01,0.01-0.03,0.01-0.04,0C79.26,43.72,79.26,43.7,79.27,43.69z M77.26,45.69c0.05-0.05,0.12-0.04,0.17,0
		c0.05,0.05,0.04,0.12,0,0.17c-0.05,0.05-0.12,0.04-0.17,0C77.21,45.81,77.22,45.73,77.26,45.69z M76.25,47.02
		c-0.07-0.07-0.06-0.18,0-0.24c0.07-0.07,0.18-0.06,0.24,0c0.07,0.07,0.06,0.18,0,0.24C76.43,47.09,76.32,47.09,76.25,47.02z
		 M74.14,49.34c0.11-0.11,0.29-0.1,0.4,0.01c0.11,0.11,0.1,0.29-0.01,0.4c-0.11,0.11-0.29,0.1-0.4-0.01
		C74.03,49.62,74.03,49.44,74.14,49.34z M71.92,52.06c0.16-0.15,0.41-0.15,0.56,0.01c0.15,0.16,0.15,0.41-0.01,0.56
		c-0.16,0.15-0.41,0.15-0.56-0.01C71.76,52.46,71.76,52.21,71.92,52.06z M69.56,55.15c0.21-0.2,0.54-0.2,0.74,0.01
		c0.2,0.21,0.2,0.54-0.01,0.74c-0.21,0.2-0.54,0.2-0.74-0.01C69.34,55.69,69.35,55.36,69.56,55.15z M66.57,59.25
		c-0.26-0.27-0.25-0.7,0.02-0.95c0.27-0.26,0.7-0.25,0.95,0.02c0.26,0.27,0.25,0.7-0.02,0.95S66.83,59.52,66.57,59.25z M73.66,53.86
		c-0.15-0.16-0.15-0.41,0.01-0.56c0.16-0.15,0.41-0.15,0.56,0.01c0.15,0.16,0.15,0.41-0.01,0.56
		C74.06,54.03,73.82,54.02,73.66,53.86z M77.09,51.18c-0.11-0.11-0.1-0.29,0.01-0.4c0.11-0.11,0.29-0.1,0.4,0.01
		c0.11,0.11,0.1,0.29-0.01,0.4C77.38,51.3,77.2,51.29,77.09,51.18z M80.97,47.62c-0.07-0.07-0.06-0.18,0-0.24
		c0.07-0.07,0.18-0.06,0.24,0c0.07,0.07,0.06,0.18,0,0.24C81.15,47.69,81.04,47.68,80.97,47.62z M81.91,46.95
		c0.07-0.07,0.18-0.06,0.24,0c0.07,0.07,0.06,0.18,0,0.24c-0.07,0.07-0.18,0.06-0.24,0C81.83,47.13,81.84,47.02,81.91,46.95z
		 M71.89,57.57c-0.2-0.21-0.2-0.54,0.01-0.74c0.21-0.2,0.54-0.2,0.74,0.01c0.2,0.21,0.2,0.54-0.01,0.74
		C72.43,57.78,72.09,57.78,71.89,57.57z M69.59,61.4c-0.26-0.27-0.25-0.7,0.02-0.95c0.27-0.26,0.7-0.25,0.95,0.02
		c0.26,0.27,0.25,0.7-0.02,0.95C70.28,61.68,69.85,61.67,69.59,61.4z M81.77,50.69c-0.11-0.11-0.1-0.29,0.01-0.4
		c0.11-0.11,0.29-0.1,0.4,0.01c0.11,0.11,0.1,0.29-0.01,0.4C82.06,50.81,81.88,50.8,81.77,50.69z M78.29,54.44
		c0.16-0.15,0.41-0.15,0.56,0.01c0.15,0.16,0.15,0.41-0.01,0.56c-0.16,0.15-0.41,0.15-0.56-0.01
		C78.13,54.84,78.14,54.59,78.29,54.44z M75.1,58.62c-0.2-0.21-0.2-0.54,0.01-0.74c0.21-0.2,0.54-0.2,0.74,0.01
		c0.2,0.21,0.2,0.54-0.01,0.74C75.63,58.83,75.3,58.83,75.1,58.62z M80.38,54.66c-0.15-0.16-0.15-0.41,0.01-0.56
		c0.16-0.15,0.41-0.15,0.56,0.01c0.15,0.16,0.15,0.41-0.01,0.56C80.78,54.82,80.54,54.81,80.38,54.66z M73.71,62.75
		c-0.26-0.27-0.25-0.7,0.02-0.95c0.27-0.26,0.7-0.25,0.95,0.02c0.26,0.27,0.25,0.7-0.02,0.95C74.39,63.02,73.97,63.02,73.71,62.75z
		 M78.06,59.08c-0.2-0.21-0.2-0.54,0.01-0.74c0.21-0.2,0.54-0.2,0.74,0.01c0.2,0.21,0.2,0.54-0.01,0.74
		C78.6,59.3,78.26,59.29,78.06,59.08z M84.75,53.01c-0.15-0.16-0.15-0.41,0.01-0.56c0.16-0.15,0.41-0.15,0.56,0.01
		c0.15,0.16,0.15,0.41-0.01,0.56C85.15,53.17,84.9,53.16,84.75,53.01z M86.87,51.5c-0.15-0.16-0.15-0.41,0.01-0.56
		c0.16-0.15,0.41-0.15,0.56,0.01c0.15,0.16,0.15,0.41-0.01,0.56C87.27,51.66,87.02,51.66,86.87,51.5z M80.87,58.63
		c-0.2-0.21-0.2-0.54,0.01-0.74c0.21-0.2,0.54-0.2,0.74,0.01c0.2,0.21,0.2,0.54-0.01,0.74C81.41,58.84,81.08,58.84,80.87,58.63z
		 M77.52,63.35c-0.26-0.27-0.25-0.7,0.02-0.95c0.27-0.26,0.7-0.25,0.95,0.02c0.26,0.27,0.25,0.7-0.02,0.95
		C78.21,63.62,77.78,63.61,77.52,63.35z M83.88,57.7c-0.2-0.21-0.2-0.54,0.01-0.74c0.21-0.2,0.54-0.2,0.74,0.01
		c0.2,0.21,0.2,0.54-0.01,0.74C84.41,57.91,84.08,57.91,83.88,57.7z M86.72,55.68c0.21-0.2,0.54-0.2,0.74,0.01
		c0.2,0.21,0.2,0.54-0.01,0.74c-0.21,0.2-0.54,0.2-0.74-0.01C86.5,56.22,86.51,55.88,86.72,55.68z M81.13,62.76
		c-0.26-0.27-0.25-0.7,0.02-0.95c0.27-0.26,0.7-0.25,0.95,0.02s0.25,0.7-0.02,0.95C81.82,63.04,81.39,63.03,81.13,62.76z
		 M84.99,61.57c-0.26-0.27-0.25-0.7,0.02-0.95c0.27-0.26,0.7-0.25,0.95,0.02c0.26,0.27,0.25,0.7-0.02,0.95
		C85.68,61.84,85.25,61.83,84.99,61.57z M88.63,59.93c-0.26-0.27-0.25-0.7,0.02-0.95c0.27-0.26,0.7-0.25,0.95,0.02
		c0.26,0.27,0.25,0.7-0.02,0.95C89.31,60.21,88.89,60.2,88.63,59.93z M92.28,57.34c-0.26-0.27-0.25-0.7,0.02-0.95
		c0.27-0.26,0.7-0.25,0.95,0.02c0.26,0.27,0.25,0.7-0.02,0.95C92.96,57.62,92.54,57.61,92.28,57.34z"/>
	<path d="M43.69,77.32l-1.86,1.76c-0.33,0.31-0.34,0.82-0.03,1.15c0.31,0.33,0.82,0.34,1.15,0.03l1.86-1.76
		c0.33-0.31,0.34-0.82,0.03-1.15C44.54,77.03,44.02,77.02,43.69,77.32z"/>
	<path d="M44.58,75.89l1.71,1.77C47.75,74.69,44.58,75.89,44.58,75.89z"/>
	<path d="M42.09,81.72l-1.71-1.77C38.91,82.91,42.09,81.72,42.09,81.72z"/>
	<path d="M70.04,67.79l2.97-2.26c-0.28-0.05-14.28-2.56-15.65-16.19L13.7,100.87c-0.13,1.23,0.11,2.19,0.53,2.96l-1.39,1.78
		c0.01,0.29,0.09,0.52,0.21,0.69c-1.47,1.5-1.5,2.37-1.5,2.37c-0.37,2.78,3.64,3.59,3.64,3.59c3.67,0.9,3.45,4.75,3.45,4.75
		c0.15,0.48,0.34,0.44,0.34,0.44c0.62-1.84-1.03-5-3.56-5.53c-3.18-0.67-3.51-2.31-3.46-3.25c0.04-0.79,1.01-1.78,1.34-2.1
		c0.34,0.27,0.75,0.32,0.75,0.32l1.89-1.28c1.39,0.89,2.9,1.09,2.9,1.09l50.53-38.4c0,0-13.07-2.29-14.42-16.11l0.55-0.65
		C55.5,51.53,55.5,63.78,70.04,67.79z M44.7,74.95c0.74-0.7,1.93-0.67,2.63,0.07c0.7,0.74,0.67,1.93-0.07,2.63l-5.03,4.75
		c-0.74,0.7-1.93,0.67-2.63-0.07c-0.7-0.74-0.67-1.93,0.07-2.63L44.7,74.95z"/>
</g>
</svg>
