<?xml version="1.0" encoding="utf-8"?>
<!-- Generator: Adobe Illustrator 24.0.3, SVG Export Plug-In . SVG Version: 6.00 Build 0)  -->
<svg version="1.1" id="Layer_1" xmlns="http://www.w3.org/2000/svg" xmlns:xlink="http://www.w3.org/1999/xlink" x="0px" y="0px"
	 viewBox="0 0 185.03 165.3" enable-background="new 0 0 185.03 165.3" xml:space="preserve">
<g>
	<path d="M95.75,65.74h1.93c-0.22-0.15-0.43-0.3-0.62-0.43h-1.38C95.71,65.45,95.73,65.58,95.75,65.74z"/>
	<path d="M135.02,78.67v22.51H97.09c-0.4,4.36-1.05,8.77-2.08,13.03c7.2,28.55,28.58,30.23,28.58,30.23
		c41.44,2.07,46.51-71.01,46.51-71.01C157.21,78.37,145.33,79.5,135.02,78.67z M124.74,133.84c-13.96-4.28-14.66-15.56-14.66-15.56
		l31.97,3.93C138.36,135.05,124.74,133.84,124.74,133.84z M136.54,97.13c11.03-10.45,19.19,2.36,19.19,2.36L136.54,97.13z"/>
	<path d="M106.42,75.03H96.9c0.02,0.18,0.03,0.35,0.05,0.53h9.85v-4.6c-0.12-0.06-0.25-0.12-0.37-0.18V75.03z"/>
	<path d="M118.65,75.57c-0.59-0.18-1.16-0.36-1.73-0.54h-6.56v-2.46c-0.14-0.06-0.29-0.12-0.42-0.18v3.18H118.65z"/>
	<path d="M128.96,79.79v15.7h-31.5c-0.01,0.16-0.01,0.33-0.02,0.49h32.02V79.34H97.24c0.01,0.15,0.02,0.3,0.03,0.45H128.96z"/>
	<path d="M87.69,75.03v-6c-0.14,0.08-0.28,0.16-0.42,0.24v6.29h6.62c0.02-0.18,0.05-0.36,0.07-0.53H87.69z"/>
	<path d="M95.4,65.74c0.03-0.14,0.05-0.28,0.07-0.43H93.7c-0.22,0.15-0.43,0.28-0.65,0.43H95.4z"/>
	<path d="M83.7,75.03h-9.42c-0.55,0.18-1.09,0.36-1.63,0.53h11.47v-4.64c-0.14,0.07-0.28,0.14-0.42,0.21V75.03z"/>
	<path d="M58.33,101.18V78.6c-21.38,2.45-37.21-4.72-37.21-4.72c5.31,78.01,47.13,70.6,47.13,70.6
		c15.66-3.23,23.29-15.91,26.76-30.28c-0.97-3.83-1.67-8.16-2.04-13.03H58.33z M35.86,99.8c8.05-12.88,19.17-2.53,19.17-2.53
		L35.86,99.8z M50.83,130.73c0.38-13.35,13.87-15.57,13.87-15.57c14.59,0.67,18.07,11.42,18.07,11.42L50.83,130.73z"/>
	<path d="M64.96,95.49v-15.7h28.44c0.01-0.15,0.03-0.3,0.05-0.45H64.59v16.65h28.12c0-0.16,0-0.33-0.01-0.49H64.96z"/>
	<polygon points="106.21,39.29 99.06,36.51 99.06,42.52 106.21,45.32 	"/>
	<polygon points="93.15,34.2 85.27,31.13 85.27,37.1 93.15,40.19 	"/>
	<polygon points="120.6,44.9 112.13,41.6 112.13,47.65 120.6,50.98 	"/>
	<polygon points="65.57,23.45 58.33,20.63 58.33,26.52 65.57,29.36 	"/>
	<polygon points="79.36,28.83 71.48,25.76 71.48,31.68 79.36,34.78 	"/>
	<path d="M92.71,95.98c0.04,1.8,0.13,3.52,0.26,5.19h4.12c0.16-1.74,0.28-3.48,0.36-5.19H92.71z"/>
	<path d="M64.59,75.56V65.31h19.53v5.61c1.04-0.52,2.09-1.07,3.14-1.65v-3.95h6.44c0.59-0.4,1.18-0.81,1.77-1.23
		c0,0,0.04,0.22,0.11,0.62c0.03-0.14,0.05-0.28,0.08-0.42c0,0,0.48,0.39,1.4,1.04h9.73v5.64c0.99,0.48,2.04,0.96,3.14,1.44v-7.07
		h19.53v10.25h-10.82c4.84,1.46,10.34,2.62,16.37,3.1V50.52l-8.5-3.31v6.09l3.31,1.3l0.01,1.05l-2.99-0.02l2.09,6l-6.35-0.25
		l-2.02-5.8l-8.52-0.07l2.08,5.97l-6.35-0.25l-2.02-5.78l-7.51-0.06l2.1,6.01l-6.35-0.25l-2.03-5.81l-7.55-0.06l2.09,6l-6.35-0.25
		l-2.02-5.8l-7.25-0.06l2.09,5.98l-6.35-0.25l-2.02-5.79l-6.27-0.05V78.6c4.56-0.52,9.36-1.48,14.32-3.04H64.59z"/>
	<path d="M95.69,65.31c-0.04-0.23-0.07-0.45-0.1-0.62c-0.04,0.21-0.07,0.41-0.11,0.62H95.69z"/>
	<path d="M96.94,75.56h-3.06c-0.16,1.28-0.31,2.54-0.44,3.78h3.79C97.15,78.02,97.05,76.75,96.94,75.56z"/>
	<path d="M83.7,65.74H64.96v9.29h9.32c3.09-1.05,6.24-2.33,9.42-3.9V65.74z"/>
	<path d="M68.92,95.44l19.17-2.53C88.09,92.92,76.98,82.56,68.92,95.44z"/>
	<path d="M97.27,79.79h-3.87c-0.58,5.73-0.79,10.94-0.69,15.7h4.77C97.71,89.85,97.57,84.46,97.27,79.79z"/>
	<path d="M103.44,93.06l19.19,2.36C122.63,95.42,114.46,82.61,103.44,93.06z"/>
	<path d="M106.42,65.74h-8.74c1.8,1.23,4.77,3.09,8.74,5.04V65.74z"/>
	<path d="M87.69,65.74v3.29c1.79-1,3.58-2.1,5.37-3.29H87.69z"/>
	<path d="M95.4,65.74c-0.58,3.23-1.06,6.32-1.45,9.29h2.94c-0.39-4.19-0.85-7.46-1.14-9.29H95.4z"/>
	<path d="M129.1,65.74h-18.74v6.83c2.01,0.85,4.2,1.69,6.56,2.46h12.18V65.74z"/>
</g>
</svg>
