<?xml version="1.0" encoding="utf-8"?>
<!-- Generator: Adobe Illustrator 24.0.3, SVG Export Plug-In . SVG Version: 6.00 Build 0)  -->
<svg version="1.1" id="Layer_1" xmlns="http://www.w3.org/2000/svg" xmlns:xlink="http://www.w3.org/1999/xlink" x="0px" y="0px"
	 viewBox="0 0 248.06 228.38" enable-background="new 0 0 248.06 228.38" xml:space="preserve">
<g>
	<path d="M225.5,48.61l-12.36-0.05c-9.63-7.49-30.89-26.1-30.89-26.1h0c-2.13-2.79-5.48-4.61-9.24-4.61h-30.95
		c-3.76,0-7.11,1.82-9.24,4.61h-0.02c-13.87,14.29-25.55,24.74-26.61,25.68l-26.65-0.11c0.08-0.22,0.13-0.45,0.13-0.7
		c0-1.12-0.91-2.03-2.03-2.03h-2.47c0.22-0.33,0.35-0.72,0.35-1.14c0-1.15-0.94-2.09-2.09-2.09H47.56c-1.15,0-2.09,0.94-2.09,2.09
		c0,0.42,0.13,0.81,0.35,1.14h-2.47c-1.12,0-2.03,0.91-2.03,2.03c0,0.19,0.04,0.37,0.09,0.55l-15.3-0.06
		c-6.6-0.03-12.02,5.35-12.05,11.95l-0.53,134.54c-0.03,6.6,5.35,12.02,11.95,12.05l199.4,0.79c6.6,0.03,12.02-5.35,12.05-11.95
		l0.53-134.54C237.48,54.06,232.1,48.64,225.5,48.61z M149.77,29.91h16.8c3.92,0,7.13,3.21,7.13,7.13c0,3.92-3.21,7.13-7.13,7.13
		h-16.8c-3.92,0-7.13-3.21-7.13-7.13C142.64,33.12,145.85,29.91,149.77,29.91z M45.47,81.17c-4.8,0-8.7-3.89-8.7-8.7
		s3.89-8.7,8.7-8.7c4.8,0,8.7,3.89,8.7,8.7S50.27,81.17,45.47,81.17z M158.99,180.1c-29.06,0-52.62-23.56-52.62-52.62
		c0-29.06,23.56-52.62,52.62-52.62s52.62,23.56,52.62,52.62C211.61,156.55,188.05,180.1,158.99,180.1z"/>
	<path d="M159.16,84.12c-24.03-0.1-43.58,19.3-43.68,43.33c-0.1,24.03,19.3,43.58,43.33,43.68c24.03,0.1,43.58-19.3,43.68-43.33
		C202.59,103.77,183.19,84.21,159.16,84.12z M193.1,113.88l2.79,4.43c2.44,6.85,2.58,8.46,2.04,13.83c-0.9,9-7.8,16.59-7.8,16.59
		C202.32,131.3,193.1,113.88,193.1,113.88z"/>
</g>
</svg>
