<?xml version="1.0" encoding="utf-8"?>
<!-- Generator: Adobe Illustrator 24.0.3, SVG Export Plug-In . SVG Version: 6.00 Build 0)  -->
<svg version="1.1" id="Layer_1" xmlns="http://www.w3.org/2000/svg" xmlns:xlink="http://www.w3.org/1999/xlink" x="0px" y="0px"
	 viewBox="0 0 364.91 248.8" enable-background="new 0 0 364.91 248.8" xml:space="preserve">
<g>
	<path fill="#231F20" d="M193.96,184.76c-0.25-0.1-0.5-0.19-0.75-0.29c-67.28-4.95-114.64,24.77-114.64,24.77L28.61,105.14
		c-0.01,0.01-0.02,0.02-0.03,0.03l-2.13,2.16l31.68,67.09l19.29,40.18c0,0,41.63-30.98,109.58-30.05c0,0,0,0,0,0
		C189.29,184.5,191.64,184.5,193.96,184.76z"/>
	<path fill="#231F20" d="M193.77,184.64l0.19,0.12C193.93,184.66,193.85,184.65,193.77,184.64z"/>
	<path fill="#231F20" d="M195.1,183.62l-62.56-115.1l-2.4-1.55l63.82,117.79l1.47-0.52c-0.8,0.32-1.47,0.52-1.47,0.52
		c-2.35-0.11-4.67-0.17-6.96-0.2c0.66,3.41,3.67,3.41,3.67,3.41c2.93-0.68,9.27-1.73,9.27-1.73c3.51-1.27,1.3-5.08,1.3-5.08
		c48.54-22.69,84.61-11.59,84.61-11.59l-3.14-3.97l-1.43-0.93C230.33,153.43,201.05,177.95,195.1,183.62z"/>
	<path fill="#231F20" d="M37.66,78.01l0.46,1.05l0,0l5.18,11.88l69.78-17.33c-31.16-5.23-60.26,8.56-60.26,8.56
		s30.28-17.53,62.59-9.14l14.73-3.66l62.77,113.49l0.01,0L130.14,66.97c-10.33-4.29-20.19-6.41-29.31-7.1
		C84.37,58.93,62.23,62.18,37.66,78.01z"/>
	<path fill="#231F20" d="M221.35,68.99c-36.94-8.39-62.99,8.57-68.55,12.63l8.89,5.75c9.06-6.56,32.1-19.29,65.38-10
		c-31.72-7.2-55.4,4.28-64.99,10.25l11.21,7.25c11.46-6.45,31.87-13.63,59.15-6.02c-25.89-5.88-46.43,0.7-58.32,6.55l11.01,7.11
		c11.98-5.42,30.28-9.73,53.61-3.22c-22.06-5.01-40.23-0.98-52.48,3.95l12.82,8.29c11.59-3.71,27.09-5.48,45.86-0.24
		c-17.64-4.01-32.79-2.22-44.42,1.17l11.93,7.71c10.56-2.25,23.6-2.59,38.76,1.64c-14.17-3.22-26.74-2.7-37.17-0.61l12.83,8.29
		c8.58-0.7,18.4-0.02,29.32,3.03c-10.11-2.3-19.39-2.68-27.67-1.96l13.12,8.48c6.25,0.22,13.01,1.18,20.28,3.21
		c-6.65-1.51-12.95-2.19-18.84-2.28l16.08,10.4c1.54,0.28,3.11,0.62,4.7,1l3.89-7.83l5.17-4.39L221.35,53.4l-2.55-4.25
		c0,0-19.09-3.27-40.02-2.1c-17.17,1.26-35.95,5.91-47.75,18.65c0,0,0,0.01-0.01,0.01c-0.3,0.41-0.59,0.83-0.86,1.26
		c0,0-0.01,0-0.01,0c-0.04-0.02-0.59-0.32-1.62-0.78c1.06,0.48,1.62,0.78,1.62,0.78l22.56,14.58
		C157.86,77.1,182.71,58.2,221.35,68.99z M216.37,58.07c-41.79-9.49-69.67,13.48-69.67,13.48S172.76,45.89,216.37,58.07z"/>
	<polygon fill="#231F20" points="270.39,146.51 274.99,142.6 274.8,142.29 270.16,146.23 	"/>
	<path fill="#231F20" d="M264.69,151.57c0.85,0.21,1.71,0.43,2.58,0.68c-0.96-0.22-1.91-0.4-2.85-0.59l-0.87,0.29l0.87-0.29
		c-0.22-0.04-0.44-0.1-0.66-0.14c-1.28-0.24-2.55-0.45-3.8-0.63l21.32,13.79c2.68,0.59,5.42,1.28,8.22,2.08l-12.81-21.3l-4.17,3.55
		L264.69,151.57z"/>
	<path fill="#231F20" d="M264.09,150.86l-0.25,0.5c0.28,0.07,0.56,0.13,0.84,0.2L264.09,150.86z"/>
	<path fill="#231F20" d="M193.21,184.47c0.1,0.01,0.2,0.01,0.3,0.02l-36.15-21.52c-31.38-5.51-60.85,8.46-60.85,8.46
		s27.45-15.9,57.97-10.18l-21.1-12.56c-23.85,0.64-42.98,9.71-42.98,9.71s17.6-10.19,40.29-11.32l-14.89-8.86
		c-18.18,2.48-31.42,8.76-31.42,8.76s12.14-7.03,29.24-10.06l-13.53-8.05c-13.36,2.89-22.38,7.16-22.38,7.16s8.25-4.77,20.72-8.15
		l-13.61-8.1c-8.18,2.42-13.25,4.83-13.25,4.83s4.63-2.68,12.21-5.45l-12.42-7.39c-2.91,1.11-4.54,1.89-4.54,1.89
		s1.49-0.86,4.16-2.11L45.75,96.54l42.59,97.65C88.33,194.2,141.01,164.07,193.21,184.47z"/>
	<path fill="#231F20" d="M193.77,184.64l-0.26-0.15C193.54,184.64,193.66,184.63,193.77,184.64z"/>
	<path fill="#231F20" d="M130.64,66.25c0.2-0.28,0.38-0.54,0.38-0.54L130.64,66.25z"/>
	<path fill="#231F20" d="M131.02,65.71L131.02,65.71c-0.07,0.09-0.6,0.87-0.8,1.15L131.02,65.71z"/>
	<path fill="#231F20" d="M28.58,105.17l0.03-0.03l0,0c2.93-2.65,8.51-6.65,17.14-8.6l-0.79-1.53c-0.01,0-9.85,1.41-17.08,8.59
		l0.7,1.46l-2.16,2.19l0.04,0.08l0.01-0.01C26.82,106.89,27.53,106.12,28.58,105.17z"/>
	<path fill="#231F20" d="M127.96,77.66c-4.18-2.04-8.38-3.55-12.55-4.63l-2.33,0.58C118.03,74.43,123.02,75.74,127.96,77.66z"/>
	<path fill="#231F20" d="M56.59,90.83c0,0,39.07-18.52,75.14-4.51C95.19,68.48,56.59,90.83,56.59,90.83z"/>
	<path fill="#231F20" d="M136.68,97.74c-36.54-17.84-75.14,4.51-75.14,4.51S100.61,83.73,136.68,97.74z"/>
	<path fill="#231F20" d="M141.95,109.16c-29.36-14.34-60.05-2.72-70.98,2.4l0.38,0.23C82.67,107.46,113.25,98.02,141.95,109.16z"/>
	<path fill="#231F20" d="M146.7,120.11c-23.88-11.66-48.64-6.15-62.93-0.94l1.04,0.62C99.33,115.5,123.63,111.15,146.7,120.11z"/>
	<path fill="#231F20" d="M152.84,131.53c-19.66-9.6-39.9-7.56-54.42-3.64l1.66,0.99C114.54,125.76,134.09,124.25,152.84,131.53z"/>
	<path fill="#231F20" d="M159.51,142.48c-16.05-7.84-32.5-7.92-45.9-5.55l2.18,1.3C128.84,136.45,144.44,136.62,159.51,142.48z"/>
	<path fill="#231F20" d="M165.53,153.9c-11.87-5.79-23.95-7.35-34.85-6.81l2.7,1.6C143.6,148.42,154.7,149.69,165.53,153.9z"/>
	<path fill="#231F20" d="M171.64,166.92c-5.72-2.8-11.5-4.6-17.17-5.67l2.88,1.72C162.11,163.8,166.9,165.08,171.64,166.92z"/>
	<path fill="#231F20" d="M151.68,82.47c0,0,0.39-0.32,1.12-0.85l-0.1-0.07C152.03,82.12,151.68,82.47,151.68,82.47z"/>
	<path fill="#231F20" d="M157.4,90.85c0,0,1.64-1.34,4.68-3.23l-0.39-0.25C158.88,89.4,157.4,90.85,157.4,90.85z"/>
	<path fill="#231F20" d="M162.77,102.32c0,0,4.05-3.33,11.35-6.93l-0.83-0.54C166.42,98.72,162.77,102.32,162.77,102.32z"/>
	<path fill="#231F20" d="M169.07,112.77c0,0,6.22-5.12,17.19-9.53l-1.13-0.73C174.71,107.22,169.07,112.77,169.07,112.77z"/>
	<path fill="#231F20" d="M175.26,124.76c0,0,9.32-7.66,25.25-12.31l-1.44-0.93C183.73,116.44,175.26,124.76,175.26,124.76z"/>
	<path fill="#231F20" d="M181.54,135.29c0,0,12.18-10.03,32.5-14.09l-1.59-1.03C192.63,124.38,181.54,135.29,181.54,135.29z"/>
	<path fill="#231F20" d="M186.51,146c0,0,16.04-13.19,42-15.44l-1.65-1.06C201.16,131.58,186.51,146,186.51,146z"/>
	<path fill="#231F20" d="M192.23,155.73c0,0,19.71-16.23,50.83-15.76l-1.44-0.93C210.35,137.92,192.23,155.73,192.23,155.73z"/>
	<path fill="#231F20" d="M197.6,165.72c0,0,24.66-20.31,62.35-14.84l-0.81-0.53C220.44,143.24,197.6,165.72,197.6,165.72z"/>
	<polygon fill="#231F20" points="130.15,66.96 130.14,66.96 130.15,66.96 	"/>
	<path fill="#231F20" d="M131.03,65.69c-0.01,0.01-0.02,0.02-0.02,0.02l0,0C131.02,65.7,131.03,65.69,131.03,65.69z"/>
	<path fill="#231F20" d="M130.15,66.96l0.01-0.02l0,0l0.02-0.02l0.46-0.67C130.41,66.58,130.17,66.92,130.15,66.96
		c0,0,0.01-0.01,0.01-0.01L130.15,66.96z"/>
	<path fill="#231F20" d="M130.16,66.94c0.01-0.01,0.03-0.04,0.06-0.08l-0.04,0.06L130.16,66.94z"/>
	<polygon fill="#231F20" points="130.15,66.96 130.15,66.96 130.15,66.95 	"/>
	
		<rect x="344.81" y="78.23" transform="matrix(0.7619 -0.6477 0.6477 0.7619 29.3377 243.5243)" fill="#231F20" width="2.13" height="7.27"/>
	<polygon fill="#231F20" points="344.6,83.42 274.99,142.6 276.7,145.45 346.72,85.91 	"/>
	<polygon fill="#231F20" points="264.42,151.66 264.42,151.66 264.69,151.57 264.68,151.56 264.69,151.57 	"/>
	<polygon fill="#231F20" points="344.37,83.14 342.01,80.37 272.9,139.13 274.8,142.29 	"/>
</g>
</svg>
