<?xml version="1.0" encoding="utf-8"?>
<!-- Generator: Adobe Illustrator 24.0.3, SVG Export Plug-In . SVG Version: 6.00 Build 0)  -->
<svg version="1.1" id="Layer_1" xmlns="http://www.w3.org/2000/svg" xmlns:xlink="http://www.w3.org/1999/xlink" x="0px" y="0px"
	 viewBox="0 0 612 792" enable-background="new 0 0 612 792" xml:space="preserve">
<path d="M282.6,426.34c0,0-0.59-17.64-54.7-5.88c0,0-11.76,1.91-38.23-4.04c0,0,7.06-4.19,7.65-9.48c0,0-4.71-21.17-45.87-52.34
	c0,0,42.93-1.76,51.17-14.7c0,0,4.12-6.47-9.41-31.76c0,0,17.06,11.76,11.76-10.59c0,0,12.94,4.7,5.29-20.58
	c0,0,9.41,16.47,22.35-53.52c0,0,7.06,27.64,10.59,20.58c0,0,8.23,18.82,18.23,9.41c0,0,5.88,24.7,17.06,17.06
	c0,0,13.53,65.87,25.29,4.12c0,0,14.12,13.53,21.17-17.64c0,0,15.88,14.11,21.17-4.12c0,0,7.65,17.17,45.87-29.41
	c0,0-5.29,59.4,10.59,62.93c0,0-7.65,21.76,4.71,22.94c0,0-14.12,13.53-5.29,22.94c0,0-53.52,46.46,20.58,10.59
	c0,0,2.94,13.53,24.11,2.94c0,0-5.88,10.59,37.05,8.23c0,0-32.93,32.35-32.93,45.29c0,0-21.17,5.88-4.71,20.58
	c0,0-84.1,18.82-11.76,63.52c0,0-88.81-12.35-59.4,16.47c0,0-39.4-18.82-34.11,0c0,0-26.64-54.39-55.79-71.74
	c-1.03-0.62-64.83,75.08-63.6,80.1c0.59,2.41-0.9-1.27-1.23-5.01C219.97,500.5,285.45,426.5,282.6,426.34z"/>
</svg>
